<svg xmlns="http://www.w3.org/2000/svg" viewBox="0 0 75 75" style="enable-background:new 0 0 75 75;" xml:space="preserve"><g>	<path d="M2.5,42.8c0.2,0,0.5-0.2,0.8-0.4C3,42.4,2.8,42.5,2.5,42.8z"></path>	<path d="M50.8,0c-0.1,0-0.1,0.1-0.2,0.2C50.6,0.1,50.7,0.1,50.8,0z"></path>	<path d="M16.4,33.5l-0.1-0.2c0.6-0.5,0.3,0.1,0.9-0.4c0-0.4,1-0.7,1.1-1c0,0,0.3-0.2,0.3-0.1c0-0.2,0.3-0.2,0.4-0.4  c0-0.1-0.1,0-0.2,0l0.4-0.4c0.2-0.1,0.3,0,0.1,0.1c1.1-0.8,6.2-4.5,7.3-5.4c-0.2,0-0.5,0.3-0.8,0.3c0.2-0.3,0.5-0.3,0.5-0.5  c0.3,0.1,0.7-0.4,1.1-0.4V25l0.2,0c1.2-1.1,0.3-0.3,1.4-1.2c0.7-0.5,0.8-1,1.3-1.2c-0.1,0-0.3,0.1-0.1-0.1c0.1,0.1,0.4-0.4,0.6-0.4  c0.2-0.1,0.7-0.6,0.4-0.6c0.2,0,0.7-0.3,0.4,0c0.2-0.1,0.3-0.2,0.4-0.4l-0.3,0.1c0.5-0.5,0.9-0.6,1.2-1l-0.3,0.1  c0.3-0.3,0.6-0.5,0.8-0.4l-0.3,0.3c0.6-0.4,0.9-0.7,1.3-1.1l-0.2,0.1c0.5-0.6,3.5-3.1,3.9-3.7l-0.3,0.1l0.4-0.5  c-0.1,0,0.1,0.6,0,0.6c1-0.8,6.2-4.8,7.2-5.4c0.4-0.2,0.2,0.1,0.2,0.2c0.4-0.4,0.1-0.3,0.5-0.6c0.1-0.1,0,0.1,0,0.2  c0.2-0.1,0.3-0.2,0.3-0.3c-0.2,0.1-0.3-0.1-0.4-0.1l0.5-0.4l0,0.1c0.1-0.1,0.1-0.5,0.6-0.8C48.3,8,49.2,7.3,50,6.7  c0,0.1-0.1,0.2-0.3,0.4c0.1-0.1,0.3-0.2,0.4-0.3c-0.3,0,0.3-0.3,0.1-0.3c0.5-0.7,1.4-1.1,1.8-1.6c-0.1-0.2-1.3-4.5-1.5-4.7  C50.8,0.2,51,0,51,0c-0.1,0-0.4,0.2-0.6,0.4l0.1,0.2c-0.4,0.4-0.2,0-0.5,0.3c-0.1-0.1,0.3-0.4,0.6-0.6c-0.3,0.2-0.6,0.3-0.7,0.5  c-0.3,0.2-0.1-0.2-0.4,0C49.2,1,49,1.3,48.7,1.4v0c-0.7,0.4-0.9,0.9-1.6,1.2l0-0.1c-0.3,0.1-0.6,0.5-1,0.7c0.1-0.1,0.3,0,0.1,0.1  C45.7,3.7,45.4,4,45,4.1l-0.2,0.3c-1.5,1.1-7.5,5.7-9,6.9l0-0.1c-2.3,1.8-7,5.4-9.2,7.4c-0.4,0.2-0.9,0.6-1.3,0.9  c0.2-0.1,0.2,0,0.1,0.1c-1.2,0.9,0,0.1-1.2,1.1c-1.3,1.1-6.6,5-7.8,5.8c-0.5,0.6-1.4,1.1-2,1.7l0-0.1c-0.3,0.3-1.5,1.1-2.6,2  c-1.2,0.8-2.4,1.6-2.8,1.9l0.1,0c-0.6,0.6-0.7,0.4-1.3,0.7c0.2,0.1-0.3,0.6-0.6,0.8l0,0c-0.3,0.3-1,1-1.6,1.4l0-0.1  c-0.4,0.4-1.3,1-1.7,1.3c-0.8,0.5-2.1,1.2-3.1,2.1l-0.9,0.2L0,38.5c0,0,1,4.2,2.9,3.9l0,0.1l0.3-0.2c0.4-0.2,0.4-0.4,0.5-0.3  l-0.5,0.3c0.4-0.2,0.2,0,0.1,0.1c0.1-0.1,0.3-0.2,0.4-0.2c0-0.1-0.1,0-0.1,0c0.2-0.2,0.3-0.4,0.6-0.5c0.3-0.2,0.1,0.1,0.5-0.1  c2.2-1.4,4.3-2.8,6.4-4.3c0.1,0,0,0,0,0.1c0.6-0.5,1.2-0.9,1.8-1.3c0.2-0.1,0.3,0,0.4,0c-0.1,0,0.7-0.6,1.5-1.2  c0.4-0.3,0.8-0.6,1.1-0.8C16.2,33.6,16.4,33.5,16.4,33.5L16.4,33.5z"></path>	<path d="M11.2,49.4c0.2,0,0.5-0.3,0.8-0.5C11.7,49,11.4,49.1,11.2,49.4z"></path>	<path d="M12,48.9L12,48.9L12,48.9z"></path>	<path d="M58.4,4.2c-0.1,0-0.1,0.1-0.2,0.2C58.2,4.4,58.3,4.3,58.4,4.2z"></path>	<path d="M24.3,38.9l-0.1-0.2c0.6-0.5,0.3,0,0.9-0.4c0-0.4,1-0.7,1.1-1c0,0,0.3-0.2,0.3-0.1c0-0.2,0.3-0.3,0.4-0.4  c0-0.1-0.1,0-0.2,0l0.4-0.4c0.2-0.1,0.3,0,0.1,0.1c1.1-0.8,6.2-4.7,7.3-5.6c-0.2,0-0.5,0.4-0.8,0.3c0.2-0.3,0.5-0.3,0.5-0.5  c0.3,0.1,0.7-0.5,1.1-0.4V30l0.2,0c1.2-1.2,0.2-0.3,1.4-1.2c0.7-0.6,0.9-1,1.3-1.2c-0.1,0-0.3,0.1-0.1-0.1c0.1,0.1,0.4-0.4,0.6-0.4  c0.2-0.1,0.7-0.6,0.4-0.6c0.2,0,0.7-0.4,0.4-0.1c0.2-0.1,0.4-0.2,0.5-0.4l-0.3,0.1c0.5-0.5,1-0.6,1.2-1l-0.3,0.1  c0.3-0.3,0.6-0.5,0.9-0.5l-0.3,0.3c0.6-0.4,0.9-0.7,1.3-1.2l-0.2,0.1c0.5-0.6,3.5-3.2,3.9-3.8L46,20.4l0.4-0.5  c-0.1,0,0.1,0.6,0,0.6c1-0.8,6.2-5.1,7.2-5.7c0.4-0.2,0.2,0.1,0.2,0.2c0.4-0.4,0.1-0.3,0.5-0.6c0.1-0.1,0,0.1,0,0.2  c0.2-0.1,0.3-0.2,0.3-0.3c-0.3,0.1-0.3-0.1-0.4-0.1l0.5-0.4l0,0.1c0.1-0.1,0.1-0.5,0.6-0.8c0.9-0.6,1.7-1.4,2.6-2  c0,0.1-0.1,0.2-0.3,0.4c0.1-0.1,0.3-0.2,0.4-0.3c-0.3,0.1,0.3-0.3,0.1-0.3c0.4-0.7,1.4-1.1,1.8-1.7c-0.1-0.2-1.5-4.4-1.7-4.6  c0.2-0.1,0.3-0.3,0.4-0.3c-0.1,0-0.4,0.2-0.6,0.4l0.1,0.1c-0.4,0.4-0.2,0-0.5,0.3c-0.1-0.1,0.2-0.4,0.5-0.7  c-0.3,0.2-0.6,0.4-0.7,0.6c-0.3,0.2-0.1-0.1-0.4,0.1c-0.2,0.2-0.4,0.6-0.7,0.7v0c-0.7,0.4-0.9,0.9-1.5,1.3l0-0.1  c-0.3,0.1-0.6,0.5-1,0.7c0.1-0.1,0.3-0.1,0.1,0.1c-0.5,0.3-0.7,0.6-1.1,0.7l-0.2,0.3c-1.5,1.2-7.3,6-8.8,7.2l0-0.1  c-2.3,1.9-7.1,5.6-9.3,7.6c-0.5,0.2-0.9,0.6-1.3,0.9c0.3-0.1,0.2,0,0.1,0.1c-1.2,0.9,0,0.1-1.2,1.1C30.6,27,25.3,31,24,31.9  c-0.5,0.7-1.4,1.2-2,1.8l0-0.1c-0.3,0.3-1.5,1.2-2.6,2.1c-1.1,0.9-2.3,1.9-2.7,2.3l0.1-0.1c-0.6,0.7-0.6,0.4-1.2,0.8  c0.2,0.1-0.3,0.7-0.5,0.9l0,0c-0.3,0.3-1,1.1-1.5,1.6l0-0.1c-0.4,0.5-1.3,1.2-1.6,1.5c-0.8,0.6-2.1,1.5-3,2.4l-0.9,0.3l-0.1,0.1  c0,0,1.6,3.9,3.4,3.4l0.1,0.1l0.3-0.2c0.3-0.2,0.4-0.5,0.5-0.3l-0.4,0.4c0.3-0.2,0.2,0,0.1,0.1c0.1-0.1,0.3-0.2,0.4-0.3  c0-0.1-0.1,0-0.1,0c0.1-0.2,0.3-0.5,0.5-0.6c0.3-0.3,0.1,0.1,0.5-0.2c2-1.6,4-3.2,6-4.9c0.1,0,0,0,0,0.1c0.6-0.6,1.1-1,1.6-1.5  c0.2-0.1,0.3-0.1,0.3-0.1C21.1,41.5,24.2,38.9,24.3,38.9L24.3,38.9z"></path>	<path d="M12.4,58.2c0.2,0,0.5-0.2,0.8-0.4C12.9,57.8,12.7,57.9,12.4,58.2z"></path>	<path d="M13.2,57.8L13.2,57.8L13.2,57.8z"></path>	<path d="M62.6,14.7c-0.1,0-0.1,0.1-0.2,0.2C62.5,14.8,62.6,14.7,62.6,14.7z"></path>	<path d="M26.6,48.5l-0.1-0.2c0.6-0.5,0.3,0.1,0.9-0.4c0.1-0.4,1-0.7,1.1-1c0,0,0.3-0.2,0.3-0.1c0-0.2,0.3-0.3,0.4-0.4  c0-0.1-0.1,0-0.2,0l0.4-0.4c0.2-0.1,0.3,0,0.1,0.1c1.1-0.8,6.4-4.6,7.6-5.5c-0.2,0-0.5,0.4-0.8,0.3c0.3-0.3,0.5-0.3,0.5-0.5  c0.3,0.1,0.7-0.5,1.1-0.4v-0.2l0.2,0c1.3-1.2,0.3-0.3,1.5-1.2c0.7-0.5,0.9-1,1.3-1.2c-0.1,0-0.3,0.1-0.1-0.1  c0.1,0.1,0.4-0.4,0.6-0.4c0.2-0.1,0.8-0.6,0.4-0.6c0.2,0,0.7-0.3,0.4,0c0.2-0.1,0.4-0.2,0.5-0.4L42.7,36c0.6-0.5,1-0.6,1.3-1  l-0.3,0.1c0.3-0.3,0.6-0.5,0.9-0.4L44.2,35c0.6-0.4,0.9-0.7,1.3-1.2L45.4,34c0.5-0.6,3.6-3.1,4.1-3.7l-0.3,0.1l0.4-0.5  c-0.1,0,0,0.6,0,0.6c0.5-0.4,2.1-1.7,3.7-2.8c1.6-1.2,3.3-2.3,3.8-2.6c0.4-0.2,0.2,0.1,0.2,0.2c0.5-0.4,0.1-0.3,0.5-0.6  c0.1-0.1,0,0.1,0,0.2c0.2-0.1,0.4-0.2,0.3-0.3c-0.3,0.1-0.3-0.1-0.4-0.1l0.5-0.4l0,0.1c0.1-0.1,0.1-0.5,0.7-0.8  c0.9-0.6,1.8-1.3,2.7-1.9c0,0.1-0.1,0.2-0.3,0.4c0.1-0.1,0.3-0.2,0.4-0.3c-0.3,0,0.3-0.3,0.1-0.3c0.5-0.7,1.5-1.1,1.9-1.6  c-0.1-0.2-1.2-4.5-1.3-4.8c0.2-0.1,0.4-0.2,0.4-0.3c-0.1,0-0.5,0.2-0.6,0.4l0.1,0.2c-0.4,0.3-0.2,0-0.6,0.3  c-0.1-0.1,0.3-0.4,0.6-0.6c-0.3,0.2-0.7,0.3-0.7,0.5c-0.3,0.2-0.1-0.2-0.4,0c-0.2,0.2-0.5,0.5-0.8,0.7v0c-0.8,0.4-1,0.9-1.7,1.2  l0-0.1c-0.3,0.1-0.6,0.5-1.1,0.7c0.1-0.1,0.3,0,0,0.1c-0.5,0.3-0.8,0.5-1.2,0.7l-0.3,0.3c-1.6,1.1-7.9,5.7-9.4,6.9l0-0.1  c-2.4,1.8-7.3,5.5-9.7,7.5c-0.5,0.2-1,0.6-1.4,0.9c0.3-0.1,0.2,0,0.1,0.1c-1.2,0.9,0,0.1-1.2,1.1c-1.3,1.2-6.8,5.1-8.1,6  c-0.6,0.7-1.5,1.2-2.1,1.8l0-0.1c-0.7,0.6-4.8,3.4-5.6,4.1l0.1-0.1c-0.7,0.6-0.7,0.4-1.3,0.7c0.2,0.1-0.4,0.7-0.6,0.9l0,0  c-0.3,0.3-1,1-1.6,1.5l0-0.1c-0.4,0.5-1.4,1.1-1.7,1.4c-0.8,0.6-2.2,1.3-3.2,2.2l-0.9,0.2L9.8,54c0,0,1.1,4.1,3,3.8l0,0.1l0.3-0.2  c0.4-0.2,0.5-0.4,0.5-0.3l-0.5,0.3c0.4-0.2,0.2,0,0.1,0.1c0.1-0.1,0.3-0.2,0.4-0.2c0-0.1-0.1,0-0.1,0c0.2-0.2,0.4-0.4,0.6-0.6  c0.4-0.2,0.1,0.1,0.5-0.1c2.2-1.5,4.4-2.9,6.5-4.5c0.1,0,0,0,0,0.1c0.6-0.5,1.2-0.9,1.8-1.4c0.2-0.1,0.3,0,0.4,0  c-0.1,0,0.7-0.6,1.6-1.2c0.4-0.3,0.8-0.6,1.2-0.9C26.4,48.7,26.6,48.5,26.6,48.5L26.6,48.5z"></path>	<path d="M15,66.6c0.2,0,0.5-0.2,0.8-0.4C15.5,66.2,15.3,66.4,15,66.6z"></path>	<path d="M62.6,24.3c-0.1,0-0.1,0.1-0.2,0.2C62.4,24.4,62.5,24.4,62.6,24.3z"></path>	<path d="M28.6,57.3l-0.1-0.2c0.6-0.5,0.3,0.1,0.9-0.4c0.1-0.4,1-0.7,1.1-0.9c0,0,0.3-0.2,0.3-0.1c0-0.2,0.3-0.2,0.4-0.4  c0-0.1-0.1,0-0.2,0l0.4-0.3c0.2-0.1,0.3,0,0.1,0.1c1.1-0.7,6.3-4.3,7.4-5.2c-0.2,0-0.5,0.3-0.8,0.3c0.2-0.3,0.5-0.3,0.5-0.5  c0.3,0.1,0.7-0.4,1.1-0.4v-0.2l0.2,0c1.2-1.1,0.3-0.3,1.5-1.1c0.7-0.5,0.9-0.9,1.3-1.2c-0.1,0-0.3,0.1-0.1-0.1  c0.1,0.1,0.4-0.4,0.6-0.4c0.2-0.1,0.7-0.5,0.4-0.6c0.2,0,0.7-0.3,0.4,0c0.2-0.1,0.3-0.2,0.4-0.3l-0.3,0.1c0.5-0.4,0.9-0.6,1.2-1  l-0.3,0.1c0.3-0.3,0.6-0.5,0.8-0.4l-0.3,0.3c0.6-0.4,0.9-0.7,1.3-1.1l-0.2,0.1c0.5-0.6,3.5-3,3.9-3.6L50.5,40l0.4-0.5  c-0.1,0,0.1,0.6,0,0.6c0.5-0.4,2.1-1.5,3.6-2.8c1.5-1.2,3-2.4,3.5-2.7c0.4-0.2,0.2,0.1,0.2,0.2c0.4-0.4,0.1-0.3,0.5-0.6  c0.1-0.1,0,0.1,0,0.2c0.2-0.1,0.3-0.2,0.3-0.3c-0.2,0.1-0.3-0.1-0.4-0.1l0.5-0.4l0,0.1c0.1-0.1,0.1-0.5,0.6-0.8  c0.8-0.6,1.7-1.3,2.5-2c0,0.1-0.1,0.2-0.3,0.4c0.1-0.1,0.3-0.2,0.4-0.3c-0.3,0.1,0.3-0.3,0.1-0.3c0.4-0.7,1.4-1.1,1.8-1.7  c-0.1-0.2-1.6-4.3-1.8-4.6c0.2-0.1,0.3-0.2,0.4-0.3c-0.1,0-0.4,0.2-0.6,0.4l0.1,0.1c-0.4,0.4-0.2,0-0.5,0.3  c-0.1-0.1,0.2-0.4,0.5-0.6c-0.3,0.2-0.6,0.4-0.6,0.6c-0.3,0.2-0.1-0.1-0.4,0c-0.2,0.2-0.4,0.5-0.7,0.7v0c-0.7,0.4-0.8,0.9-1.5,1.3  l0-0.1c-0.3,0.1-0.6,0.5-1,0.7c0.1-0.1,0.3-0.1,0.1,0.1c-0.5,0.3-0.7,0.6-1.1,0.7l-0.2,0.3c-1.5,1.1-7.1,5.9-8.6,6.9l0-0.1  c-2.3,1.8-7,5.2-9.2,7.1c-0.4,0.2-0.9,0.6-1.3,0.8c0.3-0.1,0.2,0,0.1,0.1c-1.2,0.8,0,0.1-1.2,1c-1.3,1.1-6.6,4.8-7.9,5.6  c-0.5,0.6-1.4,1.1-2,1.7l0-0.1c-0.7,0.6-4.6,3.2-5.4,3.9l0.1-0.1c-0.6,0.6-0.7,0.4-1.2,0.7c0.2,0.1-0.3,0.7-0.6,0.8l0,0  c-0.3,0.3-1,1-1.5,1.4l0-0.1c-0.4,0.4-1.3,1.1-1.7,1.3c-0.8,0.5-2.1,1.2-3.1,2.1l-0.9,0.2l-0.1,0.1c0,0,1.2,4,3.1,3.7l0,0.1  l0.3-0.2c0.4-0.2,0.4-0.4,0.5-0.3L15.7,66c0.3-0.2,0.2,0,0.1,0.1c0.1-0.1,0.3-0.2,0.4-0.2c0-0.1-0.1,0-0.1,0  c0.2-0.2,0.3-0.4,0.6-0.5c0.3-0.2,0.1,0.1,0.5-0.1c2.1-1.4,4.2-2.8,6.2-4.3c0.1,0,0,0,0,0.1c0.6-0.5,1.2-0.9,1.7-1.3  c0.2-0.1,0.3,0,0.3,0c-0.1,0,0.7-0.6,1.5-1.2c0.4-0.3,0.8-0.6,1.1-0.8C28.3,57.4,28.6,57.2,28.6,57.3L28.6,57.3z"></path>	<path d="M22.5,75c0.2,0,0.5-0.3,0.8-0.5C23.1,74.6,22.8,74.8,22.5,75z"></path>	<path d="M73.7,28.9c-0.1,0-0.1,0.1-0.2,0.2C73.6,29,73.7,29,73.7,28.9z"></path>	<path d="M36.5,64.1l-0.1-0.2c0.6-0.5,0.3,0,0.9-0.5c0.1-0.4,1-0.8,1.1-1c0,0,0.3-0.2,0.3-0.1c0-0.2,0.3-0.3,0.4-0.4  c0-0.1-0.1,0-0.2,0l0.4-0.4c0.2-0.1,0.3,0,0.1,0.1c1.1-0.8,6.6-4.8,7.7-5.9c-0.2,0-0.5,0.4-0.8,0.3c0.3-0.3,0.5-0.3,0.6-0.5  c0.3,0.1,0.7-0.5,1.1-0.4v-0.2l0.2,0c1.3-1.2,0.3-0.3,1.5-1.2c0.7-0.6,0.9-1,1.4-1.2c-0.1,0-0.3,0.1-0.1-0.1  c0.1,0.1,0.4-0.5,0.6-0.4c0.2-0.1,0.8-0.6,0.5-0.6c0.2,0,0.7-0.4,0.4-0.1c0.2-0.1,0.4-0.2,0.5-0.4L53,51c0.6-0.5,1-0.6,1.3-1  l-0.3,0.1c0.4-0.3,0.7-0.5,0.9-0.5l-0.3,0.3c0.6-0.5,1-0.7,1.4-1.2l-0.2,0.1c0.5-0.6,3.8-3.2,4.2-3.9l-0.4,0.1l0.4-0.5  c-0.1,0,0,0.6,0,0.6c1.1-0.8,6.7-5.1,7.8-5.7c0.5-0.2,0.2,0.1,0.2,0.2c0.5-0.4,0.1-0.3,0.6-0.6c0.1-0.1,0,0.1,0,0.2  c0.2-0.1,0.4-0.2,0.4-0.3c-0.3,0.1-0.3-0.1-0.4-0.1l0.6-0.4l0,0.1c0.1-0.1,0.1-0.5,0.7-0.8c0.9-0.6,1.9-1.3,2.8-2  c0,0.1-0.1,0.2-0.3,0.4c0.1-0.1,0.3-0.2,0.4-0.3c-0.3,0.1,0.3-0.3,0.1-0.3c0.5-0.7,1.5-1.1,2-1.7c-0.1-0.2-1.2-4.5-1.4-4.8  c0.2-0.1,0.4-0.3,0.4-0.3c-0.1,0-0.5,0.2-0.6,0.4l0.1,0.2c-0.4,0.4-0.2,0-0.6,0.3c-0.1-0.1,0.3-0.4,0.6-0.7  c-0.3,0.2-0.7,0.4-0.7,0.6c-0.3,0.2-0.1-0.2-0.4,0c-0.2,0.2-0.5,0.6-0.8,0.7v0c-0.8,0.4-1,0.9-1.7,1.3l0-0.1  c-0.3,0.1-0.7,0.5-1.1,0.7c0.1-0.1,0.3-0.1,0,0.1c-0.5,0.3-0.8,0.6-1.2,0.7l-0.3,0.3c-1.7,1.2-8.1,6-9.7,7.2l0-0.1  c-2.5,1.9-7.6,5.7-10.1,7.8c-0.5,0.2-1,0.6-1.4,0.9c0.3-0.1,0.2,0,0.1,0.1c-1.3,1,0,0.1-1.3,1.2c-1.4,1.2-7,5.4-8.4,6.4  c-0.6,0.7-1.5,1.2-2.1,1.9l0-0.1c-0.3,0.3-1.6,1.2-2.8,2.2c-1.2,1-2.5,2-2.8,2.3l0.1-0.1c-0.7,0.7-0.7,0.4-1.3,0.9  c0.2,0.1-0.3,0.7-0.6,0.9l0,0c-0.3,0.3-1,1.1-1.6,1.6l0-0.1c-0.4,0.5-1.4,1.2-1.7,1.5c-0.8,0.6-2.2,1.5-3.2,2.5l-0.9,0.3L19.6,71  c0,0,1.4,4,3.4,3.5l0,0.1l0.3-0.2c0.4-0.2,0.4-0.5,0.5-0.4l-0.5,0.4c0.4-0.3,0.2,0,0.1,0.1c0.1-0.1,0.3-0.2,0.4-0.3  c0-0.1-0.1,0-0.1,0c0.2-0.2,0.3-0.5,0.6-0.6c0.3-0.3,0.1,0.1,0.5-0.2c2.2-1.7,4.3-3.3,6.4-5.1c0.1,0,0,0,0,0.1  c0.6-0.6,1.2-1,1.8-1.6c0.2-0.1,0.3-0.1,0.4-0.1C33.1,66.9,36.4,64.1,36.5,64.1L36.5,64.1z"></path></g></svg>