<svg xmlns="http://www.w3.org/2000/svg" viewBox="0 0 30 10" style="enable-background:new 0 0 30 10;" xml:space="preserve"><style type="text/css">	.pay-icon11{fill:#7F7F7F;}	.pay-icon12{fill:#353535;}</style><g>	<path class="pay-icon11" d="M10.8,7.3c0,0.6-0.2,1.2-0.6,1.7C9.8,9.4,9.3,9.7,8.7,9.7H7c0.2-0.1,0.4-0.3,0.6-0.5C7.9,8.7,8.2,8,8.2,7.3  c0-1-0.5-1.9-1.2-2.3c0.2-0.1,0.4-0.3,0.5-0.5c0.4-0.5,0.6-1.1,0.7-1.7c0-0.7-0.2-1.4-0.6-1.9C7.4,0.7,7.1,0.5,6.9,0.3h1.7  c1.2,0,2.2,1.1,2.2,2.5c0,0.6-0.3,1.1-0.6,1.5C9.8,4.7,9.3,5,8.7,5C9.9,5,10.8,6,10.8,7.3L10.8,7.3z"></path>	<path class="pay-icon12" d="M6.4,5c0.2-0.1,0.4-0.3,0.5-0.5c0.4-0.5,0.6-1.1,0.7-1.7c0-0.7-0.2-1.4-0.6-1.9C6.5,0.3,5.9,0,5.2,0h-2  C1.5,0,0,1.7,0,3.7V10h5.3c0.6,0,1.2-0.3,1.6-0.8C7.4,8.7,7.6,8,7.6,7.3C7.6,6.3,7.1,5.4,6.4,5z M0.5,9.4V3.7  c0-1.7,1.2-3.1,2.7-3.1H5C4,1.2,3.3,2.3,3.3,3.7v5.7H0.5z"></path>	<path class="pay-icon12" d="M16.2,5.6c0.2,0.3,0.3,0.5,0.3,0.9c0,0.3-0.1,0.5-0.2,0.7c-0.1,0.2-0.3,0.4-0.5,0.5C15.5,7.9,15.3,8,14.9,8H13  V2.5h1.8c0.3,0,0.6,0.1,0.8,0.2c0.2,0.1,0.4,0.3,0.5,0.5c0.1,0.2,0.2,0.4,0.2,0.7c0,0.3-0.1,0.6-0.2,0.8c-0.1,0.2-0.3,0.4-0.6,0.5  C15.8,5.2,16.1,5.4,16.2,5.6L16.2,5.6z M13.8,4.8h1c0.3,0,0.5-0.1,0.6-0.2c0.1-0.1,0.2-0.3,0.2-0.6s-0.1-0.4-0.2-0.6  c-0.1-0.1-0.3-0.2-0.6-0.2h-1V4.8z M15.5,7c0.2-0.1,0.2-0.4,0.2-0.6c0-0.3-0.1-0.5-0.2-0.6c-0.2-0.2-0.4-0.2-0.6-0.2h-1v1.7h1.1  C15.1,7.3,15.4,7.2,15.5,7L15.5,7z"></path>	<path class="pay-icon12" d="M17.4,2.9c-0.1-0.1-0.1-0.2-0.1-0.4c0-0.2,0-0.3,0.1-0.4c0.1-0.1,0.2-0.2,0.4-0.2c0.1,0,0.3,0.1,0.3,0.2  c0.1,0.1,0.1,0.2,0.1,0.4c0,0.2,0,0.3-0.1,0.4C18,3,17.9,3.1,17.8,3.1C17.6,3.1,17.5,3,17.4,2.9z M18.1,3.7V8h-0.8V3.7H18.1z"></path>	<path class="pay-icon12" d="M20.5,3.8c0.2-0.1,0.5-0.2,0.8-0.2c0.3,0,0.6,0.1,0.9,0.3c0.3,0.2,0.5,0.4,0.6,0.8C23,5,23,5.4,23,5.8  S23,6.6,22.8,7c-0.2,0.3-0.4,0.6-0.6,0.8c-0.3,0.2-0.6,0.3-0.9,0.3c-0.3,0-0.6-0.1-0.8-0.2c-0.2-0.1-0.4-0.3-0.5-0.5V8h-0.8V2.2  h0.8v2.1C20.1,4.1,20.3,3.9,20.5,3.8z M22.1,5c-0.1-0.2-0.2-0.4-0.4-0.5c-0.2-0.1-0.4-0.2-0.6-0.2c-0.2,0-0.4,0.1-0.6,0.2  c-0.2,0.1-0.3,0.3-0.4,0.5c-0.1,0.2-0.2,0.5-0.2,0.8c0,0.3,0.1,0.6,0.2,0.8c0.1,0.2,0.2,0.4,0.4,0.5c0.2,0.1,0.4,0.2,0.6,0.2  c0.2,0,0.4-0.1,0.6-0.2C21.8,7,22,6.8,22.1,6.6c0.1-0.2,0.2-0.5,0.2-0.8C22.2,5.5,22.2,5.2,22.1,5L22.1,5z"></path>	<path class="pay-icon12" d="M24.5,7.8C24.2,7.6,24,7.3,23.8,7c-0.2-0.3-0.2-0.7-0.2-1.2c0-0.4,0.1-0.8,0.3-1.2c0.2-0.3,0.4-0.6,0.7-0.8  c0.3-0.2,0.6-0.3,1-0.3c0.4,0,0.7,0.1,1,0.3c0.3,0.2,0.5,0.4,0.7,0.8c0.2,0.3,0.3,0.7,0.3,1.2c0,0.4-0.1,0.8-0.3,1.2  c-0.2,0.3-0.4,0.6-0.7,0.8c-0.3,0.2-0.6,0.3-1,0.3C25.1,8.1,24.8,8,24.5,7.8L24.5,7.8z M26,7.1c0.2-0.1,0.3-0.3,0.4-0.5  c0.1-0.2,0.2-0.5,0.2-0.8c0-0.3-0.1-0.6-0.2-0.8c-0.1-0.2-0.2-0.4-0.4-0.5c-0.2-0.1-0.4-0.2-0.6-0.2c-0.2,0-0.4,0.1-0.6,0.2  c-0.2,0.1-0.3,0.3-0.4,0.5c-0.1,0.2-0.2,0.5-0.2,0.8c0,0.5,0.1,0.8,0.3,1.1c0.2,0.3,0.5,0.4,0.8,0.4C25.6,7.3,25.8,7.2,26,7.1  L26,7.1z"></path>	<path class="pay-icon12" d="M29.1,4.4v2.4c0,0.2,0,0.3,0.1,0.3c0.1,0.1,0.2,0.1,0.3,0.1H30V8h-0.6c-0.4,0-0.6-0.1-0.8-0.3  c-0.2-0.2-0.3-0.5-0.3-0.9V4.4h-0.4V3.7h0.4V2.6h0.8v1.1H30v0.7L29.1,4.4L29.1,4.4z"></path></g></svg>