<svg xmlns="http://www.w3.org/2000/svg" viewBox="0 0 100 100"><path d="M98.1,33.5c-1.1-6.2-7.9-10.4-14-10.7c1.4-3.4,1-7.6-0.7-10.9c-2.1-4.1-7.2-4.4-11-2.7c-8.5,3.9-8.7,13.9-7.5,22  c-12.5,9.1-25,18.3-37.5,27.4c-7.4-3.7-17-6.4-23.3,0.6c-2.9,3.2-3.6,7.5-0.8,11c2.5,3.2,6.8,4.1,10.7,3.7  c-2.3,6.6,0.6,16,7.9,17.7c3.9,0.9,7.8-1.6,9.7-4.8c2.2-3.6,1.7-8.4,1.3-12.5c8.9-6.5,17.9-13.1,26.8-19.6  c5.3-3.9,10.5-7.7,15.8-11.6c1-0.7,2-1.5,3-2.2c-0.7,0.5-0.3,0.3,0.6,0.7c0.9,0.3,1.7,0.6,2.6,0.9c2,0.6,4.1,1,6.2,1.2  C94.5,44.3,99.3,40.2,98.1,33.5L98.1,33.5z M94.4,39.8c-1.4,1.5-3.9,1.6-5.8,1.5c-2.1-0.1-4.1-0.6-6.1-1.2c-1-0.3-4-2-5-1.3  c-0.8,0.6-1.7,1.2-2.5,1.8c-11.3,8.3-22.6,16.6-34,24.8c-2.4,1.8-4.8,3.5-7.2,5.3c-0.9,0.6-2.5,1.4-3.1,2.4c-0.5,0.9,0,2.8,0.1,3.9  c0.1,1.6,0.1,3.2,0,4.8c-0.4,3.9-3.1,7.2-7.2,7.5c-3.8,0.3-6.3-3.8-7.3-6.9c-1.1-3.1-0.8-6.6,0.8-9.4c0.6-0.9-0.4-2-1.4-1.8  c-4,0.9-7.8,0.3-10.7-2.7c-3.2-3.4,0.8-8.2,3.7-10c5.5-3.3,13.1,0,18.2,2.6c0.4,0.2,0.9,0.3,1.2,0c12.9-9.4,25.8-18.8,38.7-28.3  c0.5-0.4,0.7-0.8,0.6-1.4c-1-6.1-1.6-13.7,3.3-18.3c2.6-2.4,7.7-3.8,10.2-0.6c2.2,2.8,2.1,7.6,0.2,10.6c-0.2,0.2-0.3,0.4-0.4,0.6  c-0.3,0.6,0.2,1.2,0.8,1.4c0.2,0.1,0.5,0.2,0.7,0.1c5.3-0.8,11.3,2.8,13.1,7.8C96.3,35.3,96,38,94.4,39.8L94.4,39.8z"></path><path d="M25.5,81.6c-1,0.7-2.3,1.2-3.4,0.5c-1.4-0.7-2.6,1.4-1.2,2.1c1.9,1,4.1,0.7,5.9-0.5C28,82.8,26.8,80.7,25.5,81.6L25.5,81.6  z"></path><path d="M14.9,58.9c-1,0-2,0-3,0.3c-1.5,0.4-0.9,2.7,0.6,2.3c0.8-0.2,1.6-0.2,2.4-0.2C16.5,61.4,16.5,59,14.9,58.9L14.9,58.9z"></path><path d="M90.8,36.2c-0.9,0.5-2.1,0.2-3.1-0.2c-0.6-0.3-1.3-0.2-1.7,0.4c-0.3,0.5-0.2,1.4,0.4,1.7c1.8,0.8,3.7,1,5.5,0.2  C93.4,37.6,92.2,35.5,90.8,36.2L90.8,36.2z"></path></svg>