<svg xmlns="http://www.w3.org/2000/svg" x="0px" y="0px" viewBox="0 0 285 180" style="enable-background:new 0 0 285 180;" xml:space="preserve"><g>	<path class="wdt-counter-icon-3" d="M275.6,109.5c2.3,4.8,2.3,10,0,14.8c-2.5,5.1-7.3,9-13.1,10.8c-1.8,0.6-3,2.2-3,4c0.2,5.2-2,10.4-6.5,14.4  c-4.2,3.7-9.8,5.7-15.8,5.7c-0.4,0-0.8,0-1.2,0c-1.9-0.1-3.6,1-4.3,2.6c-0.1,0.3-0.2,0.5-0.4,0.8c-2.3,4.8-6.6,8.5-12.1,10.5  c-2.7,1-5.6,1.5-8.5,1.5c-3.4,0-6.7-0.7-9.7-1.9c-1.7-0.7-3.6-0.3-4.9,0.9c-4.1,3.9-10,6.3-16.6,6.3c-6.1,0-11.6-2.1-15.6-5.5  c-1.7-1.4-4.2-1.4-5.9,0c-4,3.4-9.5,5.5-15.6,5.5s-11.5-2.1-15.6-5.5c-1.7-1.4-4.2-1.4-5.9,0c-4,3.4-9.5,5.5-15.6,5.5  c-6.6,0-12.5-2.5-16.6-6.4c-1.3-1.2-3.3-1.6-4.9-0.9c-3,1.2-6.3,1.9-9.7,1.9c-2.9,0-5.8-0.5-8.6-1.5c-6-2.2-10.4-6.3-12.4-11.2  c-0.7-1.6-2.4-2.6-4.3-2.6c-0.4,0-0.7,0-1.1,0c-6,0-11.6-2-15.8-5.7c-4.5-3.9-6.7-9.1-6.5-14.3c0.1-1.8-1.1-3.4-2.9-4  c-5.8-1.8-10.5-5.6-13-10.8c-2.3-4.8-2.3-10,0-14.8c0.1-0.2,0.2-0.4,0.3-0.6c0.9-1.7,0.5-3.7-1.1-4.9c-4.4-3.5-7.2-8.6-7.2-14.2  s2.7-10.6,7.1-14.1c1.5-1.2,1.9-3.2,1.1-4.9c-2.4-4.7-2.7-10.2-0.3-15.3c2.5-5.1,7.3-9,13.1-10.8c1.8-0.6,3-2.2,3-4  c-0.2-5.2,2-10.4,6.5-14.4c4.2-3.7,9.8-5.7,15.8-5.7c0.4,0,0.8,0,1.2,0c1.9,0.1,3.6-1,4.3-2.6c2.1-4.9,6.4-9.1,12.5-11.3  c2.7-1,5.6-1.5,8.5-1.5c3.4,0,6.7,0.7,9.7,1.9c1.7,0.7,3.6,0.3,4.9-0.9c4.1-3.9,10-6.3,16.5-6.3c6,0,11.5,2.1,15.6,5.5  c1.7,1.4,4.2,1.4,5.9,0c4-3.4,9.5-5.5,15.6-5.5s11.6,2.1,15.6,5.5c1.7,1.4,4.2,1.4,5.9,0c4-3.4,9.5-5.5,15.6-5.5  c6.6,0,12.5,2.5,16.6,6.4c1.3,1.2,3.3,1.6,4.9,0.9c3-1.2,6.3-1.9,9.7-1.9c3,0,5.8,0.5,8.6,1.5c5.5,2,9.8,5.7,12.1,10.5  c0.1,0.2,0.2,0.5,0.3,0.7c0.7,1.6,2.4,2.7,4.3,2.6c0.4,0,0.7,0,1.1,0c6,0,11.6,2,15.8,5.7c4.5,3.9,6.7,9.1,6.5,14.3  c-0.1,1.8,1.1,3.4,2.9,4c5.8,1.8,10.5,5.6,13,10.7c2.5,5.2,2.2,10.7-0.3,15.4c-0.9,1.7-0.4,3.7,1.1,4.9c4.4,3.5,7.2,8.6,7.2,14.2  c0,5.6-2.7,10.6-7.1,14.1c-1.5,1.2-2,3.2-1.1,4.8C275.4,109.1,275.5,109.3,275.6,109.5L275.6,109.5z"></path>	<path class="wdt-stroke-1" d="M175.9,10.6c5.6,0,10.7,2,14.3,5.3l0.3,0.3c1.2,1.1,3,1.6,4.7,1l0.3-0.1c2.6-1.1,5.5-1.7,8.6-1.7  c2.6,0,5.1,0.4,7.6,1.3v0c4.9,1.7,8.6,5,10.6,9.1v0c0.1,0.1,0.1,0.2,0.2,0.3l0.1,0.3l0,0c0.7,1.6,2.3,2.6,4,2.6l0.4,0h0  c0.3,0,0.6,0,1,0c5.1,0,9.9,1.7,13.6,4.7l0.4,0.3c3.9,3.3,5.8,7.6,5.7,12l0,0.4c-0.1,1.7,1,3.3,2.7,3.9l0.3,0.1  c4.9,1.5,9,4.7,11.2,8.9l0.2,0.4c2.1,4.3,1.9,9-0.1,13l-0.2,0.4c-0.9,1.7-0.5,3.8,1.1,5v0c3.9,3.1,6.3,7.5,6.3,12.3  c0,4.7-2.2,8.9-5.8,11.9l-0.4,0.3h0c-1.5,1.2-2.1,3.2-1.2,4.9v0c0.1,0.2,0.2,0.3,0.3,0.5l0.1,0.1l0,0c1.9,4,1.9,8.3,0.1,12.3  l-0.2,0.4c-2.1,4.3-6.1,7.6-11,9.3l-0.5,0.2h0c-1.8,0.6-3,2.1-3,3.9l0,0.2c0.2,4.3-1.6,8.7-5.3,12.1l-0.4,0.3  c-3.7,3.2-8.7,5-13.9,5c-0.3,0-0.7,0-1,0h0c-1.8-0.1-3.4,0.8-4.2,2.3l-0.1,0.3c-0.1,0.1-0.1,0.2-0.2,0.4l-0.2,0.3l0,0  c-1.9,4-5.5,7.2-10.2,9l-0.5,0.2l0,0c-2.4,0.9-4.9,1.3-7.5,1.3c-2.8,0-5.6-0.5-8.1-1.5l-0.5-0.2v0c-1.6-0.7-3.4-0.4-4.7,0.7  l-0.3,0.2c-3.6,3.4-8.8,5.5-14.6,5.5c-5.3,0-10.2-1.8-13.7-4.8h0c-1.7-1.4-4.1-1.4-5.8-0.1l-0.2,0.1c-3.5,3-8.4,4.8-13.7,4.8  c-5.2,0-9.9-1.7-13.4-4.5l-0.3-0.3c-1.6-1.4-4.1-1.4-5.8-0.1l-0.2,0.1c-3.5,3-8.4,4.8-13.7,4.8c-5.6,0-10.7-2-14.3-5.3l-0.3-0.3  c-1.2-1.1-3-1.6-4.7-1l-0.3,0.1c-2.6,1.1-5.5,1.7-8.6,1.7c-2.4,0-4.8-0.4-7.1-1.1l-0.5-0.2c-5.1-1.8-8.9-5.3-10.8-9.4l-0.2-0.4  l-0.1-0.3c-0.7-1.4-2.2-2.2-3.9-2.3l-0.4,0c-0.3,0-0.6,0-1,0c-5.1,0-9.9-1.7-13.6-4.7l-0.4-0.3c-3.9-3.3-5.8-7.6-5.7-12l0-0.4  c0.1-1.7-1-3.3-2.7-3.9l-0.3-0.1c-4.9-1.5-9-4.7-11.2-9l-0.2-0.4v0c-1.9-4-2-8.4-0.2-12.4l0.2-0.4l0,0c0.1-0.2,0.2-0.4,0.3-0.5l0,0  c0.9-1.7,0.5-3.6-1-4.9l-0.1-0.1v0l-0.4-0.3c-3.7-3.1-5.9-7.3-5.9-12c0-4.7,2.2-8.9,5.9-12l0.4-0.3c1.5-1.2,2-3.1,1.2-4.8l-0.1-0.2  l0,0L23,72.9c-1.9-3.9-2.1-8.3-0.2-12.5L23,60c2.1-4.3,6.1-7.6,11-9.3l0.5-0.2v0c1.8-0.6,3-2.1,3-3.9l0-0.2  c-0.2-4.3,1.6-8.7,5.3-12.1l0.4-0.3h0c3.7-3.2,8.7-5,13.9-5c0.2,0,0.4,0,0.5,0l0.5,0h0c1.9,0.1,3.6-1,4.3-2.6l0,0  c1.8-4.1,5.4-7.7,10.5-9.6l0.5-0.2c2.4-0.9,4.9-1.3,7.5-1.3c2.8,0,5.6,0.5,8.1,1.5l0.5,0.2v0c1.6,0.7,3.4,0.4,4.7-0.7l0.3-0.2l0,0  c3.6-3.4,8.8-5.5,14.6-5.5c5.3,0,10.2,1.8,13.7,4.8v0c1.7,1.4,4.3,1.4,6,0l0,0c3.5-2.9,8.4-4.8,13.7-4.8c5.2,0,9.9,1.7,13.4,4.5  l0.3,0.3c1.7,1.4,4.1,1.4,5.8,0.1l0.2-0.1C165.7,12.4,170.6,10.6,175.9,10.6z"></path></g></svg>