<svg xmlns="http://www.w3.org/2000/svg" viewBox="0 0 85 70" style="enable-background:new 0 0 85 70;" xml:space="preserve"><g>	<path d="M3,13.2C2.5,14,2,14.9,1.6,15.7C1,16.8,0.5,18,0.2,19.2C0,20.1-0.1,21.1,0.1,22c0.3,1.4,1.5,2.5,2.9,2.9  c1.5,0.4,3-0.1,4.1-1.1c0.5-0.5,1-1,1.4-1.6c0.6-0.9,1.1-1.9,1.5-3c0.1-0.2,0.2-0.5,0.3-0.7c0.1-0.2,0.2-0.4,0.3-0.6  c0.2-0.4,0.4-0.8,0.5-1.3c0.3-0.8,0.1-1.5,0-2.3c-0.1-0.3-0.3-0.6-0.4-0.9c-0.4-0.6-0.8-1.1-1.4-1.4c-0.5-0.3-1-0.5-1.6-0.5  c-0.4-0.1-0.9-0.2-1.3-0.2C5,11.2,3.7,11.9,3,13.2z"></path>	<path d="M25,1.8c-0.3,0.5-0.5,1.1-0.8,1.6l-0.3,0.1c-0.3,0.2-0.5,0.4-0.8,0.6c-0.5,0.5-0.8,1.1-1,1.7c-0.3,0.8-0.7,1.6-1,2.5  c-0.4,0.9-0.8,1.8-0.9,2.8c-0.2,0.7-0.2,1.4,0,2c0.3,1,0.9,1.8,1.8,2.3c0.6,0.3,1.2,0.5,1.9,0.5c1,0,2.1-0.4,2.7-1.1  c0.4-0.4,0.7-0.8,1-1.3c0.1-0.2,0.2-0.4,0.3-0.7l0.1-0.1c0.8-0.3,1.5-0.9,1.9-1.6c0.6-1,0.9-2.4,1.3-3.5C31.5,6.4,32,5.1,32,3.8  c0-1.7-1.1-3.2-2.8-3.6C28.9,0,28.6,0,28.2,0C26.9,0,25.6,0.7,25,1.8L25,1.8z"></path>	<path d="M5.5,36.4c-0.4,1.5-0.8,3.1-1.2,4.6l0,0.1l-0.1,0.2c-0.2,0.3-0.4,0.6-0.5,1c-0.3,0.5-0.5,1-0.7,1.5c-0.4,1-0.5,2.2-0.2,3.3  c0.2,0.7,0.6,1.3,1.1,1.8c0.5,0.8,1.3,1.3,2.3,1.6c2.1,0.6,4.5-0.7,5-2.8c0.9-3,1.6-6,2.4-9c0.6-2.2-0.7-4.5-2.9-5.1  c-0.3-0.1-0.7-0.2-1.1-0.2C7.7,33.3,6,34.5,5.5,36.4L5.5,36.4z"></path>	<path d="M26,32c-0.2,0.1-0.4,0.3-0.6,0.5c-0.2,0.2-0.4,0.4-0.6,0.7l-0.2,0.4c-0.1,0.2-0.2,0.4-0.3,0.7c-0.2,0.5-0.4,0.9-0.6,1.4  c-0.3,0.8-0.7,1.6-1,2.4c-0.4,1-0.6,2-0.5,3l-0.1,0.3c-0.2,0.6-0.1,1.4,0.3,2c0.3,0.6,0.9,1,1.5,1.2c0.7,0.2,1.4,0.1,2-0.3l0.1,0  c0.3,0,0.7,0,1-0.1c0.8,0.1,1.7,0,2.4-0.5c0.9-0.5,1.4-1.3,1.7-2.2c0.2-0.6,0.5-1.2,0.7-1.9c0.1-0.3,0.2-0.6,0.2-1  c0.2-0.9,0.3-1.9,0.1-2.8c-0.2-0.8-0.6-1.6-1.3-2.1l-0.5-0.3l-0.1-0.1c-0.3-0.6-0.6-0.8-1.2-1.2c-0.5-0.3-1-0.4-1.6-0.4  S26.5,31.8,26,32z"></path>	<path d="M53.9,32.8c0.4,0,0.8,0,1.1,0.2c1.1,0.3,2,1,2.6,2c0.5,0.9,0.8,2.3,0.4,3.3c-0.1,0.3-0.2,0.5-0.3,0.8c0,0.5,0,1-0.1,1.5  c-0.2,1.2-0.7,2.3-1.1,3.4c-0.3,0.8-0.6,1.7-0.9,2.5v0v0l0,0.1c-0.2,0.7-0.5,1.3-1.1,1.8c-0.3,0.2-0.6,0.4-0.8,0.6  c-0.9,0.6-2.1,0.7-3.2,0.4c-1.5-0.4-2.6-1.7-2.9-3.2c-0.7-1-0.9-2.3-0.5-3.5c0.4-1.2,0.9-2.4,1.4-3.5c0.4-1.1,0.9-2.1,1.3-3.2  c0.2-0.7,0.6-1.4,1.1-1.9c0.3-0.2,0.6-0.4,0.9-0.7C52.3,33,53.1,32.8,53.9,32.8z"></path>	<path d="M25.9,56c-0.7,0.4-1.5,1.2-1.6,2l-0.1,0.2c-0.4,0.5-0.7,1.1-0.9,1.7c0,0.2-0.1,0.4-0.1,0.6c-0.1,0.4-0.3,0.9-0.4,1.3  c-0.1,0.3-0.2,0.5-0.2,0.7c-0.3,0.7-0.5,1.3-0.7,2c-0.6,1.8,0.4,3.9,2,4.8c1.6,0.9,3.9,0.7,5.2-0.7c0.4-0.5,0.8-0.9,1.1-1.5  c0.2-0.5,0.5-1,0.6-1.5l0.2-0.4c0.3-0.4,0.5-0.8,0.6-1.3c0.2-0.6,0.4-1.1,0.5-1.7c0.1-0.4,0.1-0.8,0.2-1.2c0-0.8-0.2-1.5-0.6-2.2  c-0.1-1.5-1.2-2.9-2.6-3.3c-0.3-0.1-0.6-0.1-1-0.1C27.1,55.5,26.5,55.7,25.9,56L25.9,56z"></path>	<path d="M64.3,9c-0.8,0.2-1.4,0.6-2,1.2c-0.6,0.5-1.1,1.3-1.5,1.9c-0.2,0.3-0.4,0.6-0.6,0.9c-0.3,0.6-0.5,1.2-0.8,1.8  c-0.3,0.7-0.3,1.5-0.4,2.3c-0.1,1,0.1,2,0.6,2.9c0.4,0.9,1.1,1.7,1.9,2.2c1.7,1,3.9,0.7,5.3-0.5c0.4-0.2,0.7-0.5,1-0.9  c0.4-0.6,0.8-1.1,1.2-1.7c0.4-0.7,0.8-1.5,0.9-2.3c0.2-0.9,0.2-1.7,0-2.6L70,14.1c0.1-0.6,0.1-1.3-0.1-1.9  c-0.2-0.4-0.3-0.7-0.5-1.1c-0.4-0.7-0.9-1.2-1.6-1.6l-0.1-0.1c-0.7-0.4-1.5-0.6-2.3-0.6C65.1,8.9,64.7,9,64.3,9L64.3,9z"></path>	<path d="M77.2,26.7c-0.8,0.4-1.4,1.2-1.6,2.1c-0.4,1.1-0.7,2.3-1,3.5c-0.3,1.1-0.6,2.3-0.9,3.4l-0.1,0.4c-0.2,1-0.2,1.7,0,2.7  c0.2,0.8,0.7,1.7,1.3,2.3c0.5,0.5,1.2,0.9,1.9,1.1c0.4,0.1,0.9,0.1,1.3,0.2c0.8,0.1,1.8-0.3,2.4-0.7c0.4-0.2,0.8-0.5,1.1-0.9  c0.3-0.3,0.6-0.7,0.8-1c0.2-0.3,0.3-0.6,0.5-0.9c0.5-1.1,0.9-2.2,1.5-3.3c0.8-1.4,0.8-3.2,0-4.6c-0.4-0.7-1-1.3-1.7-1.6l-0.2-0.5  c-0.2-0.6-0.5-1.2-0.9-1.6c-0.2-0.2-0.5-0.4-0.7-0.6c-0.6-0.3-1.2-0.5-1.8-0.5h0C78.4,26.2,77.8,26.4,77.2,26.7L77.2,26.7z"></path>	<path d="M60.7,57.6c-1.3,0.3-2.3,1.3-3,2.4c-0.4,0.6-0.6,1.2-0.9,1.9c-0.1,0.3-0.2,0.5-0.3,0.8c-0.1,0.5-0.2,1.1-0.2,1.6  c-0.1,0.9,0.2,2,0.7,2.8c0.4,0.7,0.9,1.2,1.6,1.6c1,0.6,2.3,0.8,3.4,0.4c1.8-0.5,3.2-2.2,3.2-4c0.1-0.3,0.2-0.6,0.2-0.9  c0.1-0.3,0.1-0.5,0.2-0.8l0.1-0.4c0.1-0.5,0.2-0.9,0.2-1.3c0-0.4,0-0.9-0.1-1.3c-0.3-1-1-1.9-1.9-2.4c-0.6-0.4-1.3-0.5-2-0.5  C61.5,57.5,61.1,57.5,60.7,57.6L60.7,57.6z"></path>	<path d="M45.8,1.9c-0.3,0.3-0.7,0.5-1,0.8c-0.6,0.6-1,1.3-1.3,2.2c-0.3,0.7-0.5,1.5-0.8,2.3c-0.2,0.5-0.4,0.9-0.5,1.4  c-0.4,1.1-0.9,2.2-1.1,3.3C41,12.4,41,13,41,13.7c-0.1,0.5-0.2,1-0.4,1.5c-0.7,2.6,0.8,5.3,3.4,6c2.5,0.7,5.3-0.8,6-3.4  c0.3-1.3,0.7-2.6,1-3.9c0.3-0.6,0.5-1.2,0.9-1.8h0c0.2-0.3,0.3-0.7,0.5-1.1c0.2-0.4,0.1-0.9,0.2-1.4c0-0.2,0-0.4,0-0.6l0.1-0.4  c0.1-0.2,0.2-0.5,0.3-0.7c0.4-1,0.3-2.1,0-3.1c-0.5-2.1-2.6-3.6-4.7-3.6C47.4,1.2,46.6,1.5,45.8,1.9L45.8,1.9z"></path></g></svg>