<svg xmlns="http://www.w3.org/2000/svg" x="0px" y="0px" viewBox="0 0 285 180" style="enable-background:new 0 0 285 180;" xml:space="preserve"><g>	<path class="wdt-counter-icon-1" d="M283.5,90c0-4.3-20.8-7.1-21.5-11.2c-0.7-4.2,18.1-12.8,16.7-16.8c-1.4-4.1-22.1-0.7-24.2-4.5  c-2.1-3.8,12.9-17.3,10.2-20.7c-2.7-3.4-21.3,5.6-24.5,2.6c-3.3-3,6.6-20.1,2.9-22.6c-3.7-2.5-18.4,11.4-22.5,9.4  c-4.1-1.9-0.4-21-4.8-22.3c-4.3-1.3-13.6,16-18.2,15.4C190.8,19,190.8,0.5,184,0.5c-6.8,0-6.9,18.7-13.7,18.7  c-6.9,0-6.9-18.7-13.8-18.7c-6.9,0-6.9,18.7-13.7,18.7c-6.9,0-6.9-18.7-13.8-18.7c-6.9,0-6.9,18.7-13.7,18.7  c-6.9,0-6.9-18.7-13.8-18.7c-1.3,0-2.3,0.7-3.1,1.6c-1,1.1-1.7,2.5-2.3,3.9c-0.7,1.6-1.3,3.3-1.9,4.9c-0.6,1.6-1.2,3.2-2,4.7  c-0.5,0.9-1,1.8-1.8,2.5c-0.8,0.8-1.7,1-2.9,1.2c-2,0.3-3.5-1.5-4.7-2.6c-1.4-1.4-2.7-2.9-3.9-4.4c-1.3-1.6-2.6-3.1-4-4.6  c-1.1-1.1-2.2-2.3-3.6-3.2c-0.6-0.3-1.4-0.7-2.1-0.4c-4.4,1.3-0.8,20.4-4.8,22.4c-4.1,1.9-18.8-11.9-22.5-9.4  c-3.7,2.5,6.1,19.6,2.9,22.6c-3.3,3-21.8-6.1-24.5-2.6c-2.7,3.4,12.3,17,10.2,20.7C28.5,61.4,7.8,58,6.3,62.1  c-1.4,4,17.4,12.6,16.7,16.8C22.3,83,1.5,85.7,1.5,90.1c0,4.3,20.8,7.1,21.5,11.2c0.7,4.2-18.1,12.8-16.7,16.8  c1.4,4.1,22.1,0.7,24.2,4.5c2.1,3.8-12.9,17.3-10.2,20.7c2.7,3.4,21.3-5.6,24.5-2.6c3.3,3-6.6,20.1-2.9,22.6  c3.7,2.5,18.4-11.4,22.5-9.4c4.1,1.9,0.4,21,4.8,22.4c4.2,1.3,12.9-14.7,17.6-15.4c0,0,0.5,0,0.7,0c6.9,0,6.9,18.7,13.8,18.7  c6.9,0,6.9-18.7,13.7-18.7c6.9,0,6.9,18.7,13.8,18.7c6.9,0,6.9-18.7,13.7-18.7c6.9,0,6.9,18.7,13.7,18.7c6.9,0,6.9-18.7,13.8-18.7  c6.9,0,6.9,18.7,13.7,18.7c6.9,0,6.9-18.4,13.5-18.8c4.6-0.6,13.9,16.7,18.2,15.4c4.4-1.3,0.8-20.4,4.8-22.3  c4.1-1.9,18.8,11.9,22.5,9.4c3.7-2.5-6.1-19.6-2.9-22.6c3.3-3,21.8,6.1,24.5,2.6c2.7-3.4-12.3-16.9-10.2-20.7  c2.1-3.8,22.8-0.4,24.2-4.5c1.4-4-17.4-12.6-16.7-16.8C262.7,97.1,283.5,94.4,283.5,90L283.5,90z"></path>	<path class="wdt-stroke-1" d="M180.5,14.8c1.3,0,2.4,0.8,3.3,2.2c0.9,1.4,1.7,3.4,2.5,5.4c0.8,2,1.6,4,2.6,5.6c1,1.6,2.3,2.8,4,2.9v0  c0.7,0.1,1.4-0.2,2-0.5c0.7-0.4,1.4-0.9,2.2-1.6c1.5-1.3,3.1-3.1,4.6-4.8c1.6-1.7,3.1-3.4,4.5-4.6c0.7-0.6,1.3-1,1.9-1.3  c0.6-0.3,1-0.3,1.3-0.2v0c0.3,0.1,0.6,0.4,0.9,0.8c0.3,0.5,0.5,1.2,0.6,2c0.3,1.7,0.4,3.8,0.5,6c0.1,2.2,0.1,4.4,0.4,6.2  c0.1,0.9,0.3,1.7,0.6,2.4c0.3,0.7,0.7,1.2,1.3,1.5v0c0.6,0.3,1.4,0.2,2.1,0.1c0.8-0.2,1.7-0.5,2.6-0.9c1.9-0.9,4-2.1,6.2-3.4  c2.1-1.2,4.2-2.4,6-3.2c0.9-0.4,1.7-0.6,2.3-0.8c0.6-0.1,1-0.1,1.3,0.1l0.1,0.1c0.3,0.2,0.4,0.5,0.5,1c0.1,0.5,0,1.2-0.1,2.1  c-0.3,1.7-1,3.7-1.7,5.8c-0.7,2.1-1.5,4.3-1.9,6.1c-0.2,0.9-0.3,1.7-0.2,2.4c0,0.7,0.3,1.4,0.8,1.8c0.5,0.4,1.2,0.6,2,0.6  c0.8,0,1.8,0,2.8-0.2c2.1-0.3,4.6-1,7-1.6c2.5-0.6,4.9-1.2,6.9-1.5c1-0.1,1.8-0.2,2.5-0.1c0.7,0.1,1,0.2,1.2,0.5v0  c0.2,0.2,0.2,0.5,0.1,1c-0.1,0.5-0.4,1.2-0.9,1.9c-0.9,1.5-2.3,3.3-3.7,5.1c-1.4,1.8-2.9,3.7-3.9,5.3c-0.5,0.8-0.9,1.6-1.1,2.3  c-0.2,0.6-0.2,1.3,0,1.8l0.1,0.1l0,0c0.3,0.6,1,0.9,1.7,1.2c0.8,0.3,1.7,0.4,2.7,0.5c2.1,0.2,4.7,0.3,7.3,0.3  c2.6,0.1,5.1,0.1,7.1,0.4c1,0.1,1.8,0.3,2.4,0.5c0.5,0.2,0.8,0.4,0.9,0.7l0,0.1c0.1,0.2,0,0.5-0.3,1c-0.3,0.5-0.8,1-1.5,1.6  c-1.4,1.2-3.4,2.5-5.4,3.9c-2,1.3-4.1,2.7-5.6,4c-0.8,0.6-1.4,1.3-1.9,1.9c-0.4,0.5-0.7,1.2-0.6,1.8l0,0.1v0  c0.1,0.6,0.6,1.2,1.2,1.6c0.6,0.4,1.5,0.8,2.4,1.2c1.9,0.8,4.4,1.5,6.8,2.3c2.4,0.7,4.8,1.5,6.6,2.3c0.9,0.4,1.6,0.8,2.1,1.2  c0.4,0.3,0.6,0.6,0.6,0.8v0.1c0,0.2-0.2,0.5-0.6,0.9c-0.5,0.4-1.2,0.8-2.1,1.2c-1.8,0.8-4.1,1.5-6.6,2.3c-2.4,0.7-4.9,1.5-6.8,2.3  c-1,0.4-1.8,0.8-2.4,1.2c-0.6,0.4-1.1,0.9-1.2,1.5l0,0.1c-0.1,0.7,0.2,1.3,0.6,1.9c0.4,0.6,1.1,1.2,1.9,1.9c1.5,1.3,3.6,2.6,5.6,4  c2,1.4,4,2.7,5.4,3.9c0.7,0.6,1.2,1.1,1.5,1.6c0.3,0.4,0.3,0.7,0.3,0.9l0,0.1c-0.1,0.2-0.4,0.5-1,0.7c-0.6,0.2-1.4,0.4-2.4,0.5  c-2,0.3-4.5,0.3-7.1,0.4c-2.6,0.1-5.2,0.1-7.3,0.3c-1,0.1-2,0.3-2.7,0.5c-0.7,0.2-1.3,0.6-1.7,1l-0.1,0.1h0c-0.3,0.6-0.3,1.3-0.1,2  c0.2,0.7,0.6,1.5,1.1,2.3c1,1.6,2.5,3.5,3.9,5.3c1.5,1.8,2.9,3.6,3.7,5.1c0.4,0.8,0.7,1.4,0.9,1.9c0.1,0.5,0.1,0.8-0.1,0.9  l-0.1,0.1c-0.2,0.2-0.6,0.4-1.2,0.5c-0.7,0.1-1.5,0-2.5-0.1c-2-0.3-4.4-0.9-6.9-1.5c-2.5-0.6-5-1.3-7-1.6c-1-0.2-2-0.2-2.8-0.2  c-0.7,0-1.4,0.2-1.9,0.6l-0.1,0.1c-0.5,0.4-0.7,1.1-0.8,1.8c-0.1,0.7,0.1,1.6,0.2,2.4c0.4,1.8,1.1,4,1.9,6.1  c0.7,2.1,1.4,4.2,1.7,5.8c0.2,0.8,0.2,1.5,0.1,2.1c-0.1,0.5-0.2,0.7-0.4,0.9l-0.1,0.1c-0.3,0.2-0.7,0.2-1.4,0.1  c-0.6-0.1-1.4-0.4-2.3-0.8c-1.8-0.8-3.9-2-6-3.2c-2.1-1.2-4.3-2.5-6.2-3.4c-0.9-0.4-1.8-0.8-2.6-0.9c-0.7-0.1-1.3-0.2-1.9,0  l-0.2,0.1c-0.6,0.3-1,0.8-1.3,1.5c-0.3,0.7-0.5,1.5-0.6,2.4c-0.3,1.8-0.3,4.1-0.4,6.3c-0.1,2.2-0.1,4.4-0.5,6  c-0.2,0.8-0.4,1.5-0.6,2c-0.2,0.4-0.5,0.7-0.8,0.8l-0.1,0c-0.3,0.1-0.8,0-1.3-0.2c-0.6-0.3-1.2-0.7-1.9-1.3  c-1.4-1.2-2.9-2.9-4.5-4.6c-1.6-1.7-3.2-3.5-4.6-4.8c-0.7-0.7-1.5-1.2-2.2-1.6c-0.7-0.4-1.4-0.6-2-0.5v0c-1.8,0.1-3,1.3-4,2.9  c-1,1.6-1.8,3.6-2.5,5.6c-0.8,2-1.5,3.9-2.5,5.3c-0.9,1.4-2,2.2-3.3,2.2c-1.3,0-2.4-0.8-3.3-2.3c-0.9-1.4-1.7-3.4-2.5-5.4  c-0.8-2-1.6-4-2.6-5.6c-1-1.5-2.3-2.7-4.2-2.7c-1.8,0-3.1,1.2-4.2,2.7c-1,1.5-1.8,3.6-2.6,5.6c-0.8,2-1.6,3.9-2.5,5.4  c-0.9,1.4-2,2.3-3.3,2.3c-1.3,0-2.4-0.8-3.3-2.3c-0.9-1.4-1.7-3.4-2.5-5.4c-0.8-2-1.6-4-2.6-5.6c-1-1.5-2.3-2.7-4.2-2.7  c-1.8,0-3.1,1.2-4.1,2.7c-1,1.5-1.8,3.6-2.6,5.6c-0.8,2-1.6,3.9-2.5,5.4c-0.9,1.4-2,2.3-3.3,2.3s-2.4-0.8-3.3-2.3  c-0.9-1.4-1.7-3.4-2.5-5.4c-0.8-2-1.6-4-2.6-5.6c-1-1.5-2.3-2.7-4.1-2.7c-1.8,0-3.1,1.2-4.1,2.7c-1,1.5-1.8,3.6-2.6,5.6  c-0.8,2-1.6,3.9-2.5,5.4c-0.9,1.4-2,2.3-3.3,2.3c-1.3,0-2.4-0.8-3.3-2.3c-0.9-1.4-1.7-3.4-2.5-5.4c-0.8-2-1.6-4-2.6-5.6  c-1-1.5-2.3-2.7-4.2-2.7c-0.1,0-0.3,0-0.4,0c-0.1,0-0.1,0-0.2,0c0,0,0,0-0.1,0c0,0,0,0,0,0h0l0,0c-0.7,0.1-1.3,0.4-2,0.8  c-0.7,0.4-1.4,1-2.1,1.7c-1.4,1.4-3,3.1-4.5,4.8c-1.5,1.7-3,3.3-4.3,4.4c-0.7,0.6-1.3,1-1.8,1.2c-0.5,0.2-0.8,0.3-1.1,0.2l-0.1,0  c-0.3-0.1-0.6-0.4-0.9-0.8c-0.3-0.5-0.5-1.2-0.6-2c-0.3-1.7-0.4-3.8-0.5-6c-0.1-2.2-0.1-4.4-0.4-6.3c-0.1-0.9-0.3-1.7-0.6-2.4  c-0.3-0.6-0.7-1.1-1.2-1.4l-0.1-0.1c-0.6-0.3-1.4-0.2-2.1-0.1c-0.8,0.2-1.7,0.5-2.6,0.9c-1.9,0.9-4,2.1-6.2,3.4  c-2.1,1.2-4.2,2.4-6,3.2c-0.9,0.4-1.7,0.6-2.3,0.8c-0.6,0.1-1,0.1-1.3-0.1l-0.1-0.1c-0.3-0.2-0.4-0.5-0.5-1c-0.1-0.5,0-1.2,0.1-2.1  c0.3-1.7,1-3.7,1.7-5.9c0.7-2.1,1.5-4.3,1.9-6.1c0.2-0.9,0.3-1.7,0.2-2.5c0-0.7-0.2-1.3-0.7-1.7l-0.1-0.1c-0.5-0.4-1.2-0.6-2-0.6  c-0.8,0-1.8,0-2.8,0.2c-2.1,0.3-4.6,1-7,1.6c-2.5,0.6-4.9,1.2-6.9,1.5c-1,0.1-1.8,0.2-2.5,0.1c-0.7-0.1-1-0.2-1.2-0.5h0  c-0.2-0.2-0.2-0.5-0.1-1c0.1-0.5,0.4-1.2,0.9-1.9c0.9-1.5,2.3-3.3,3.7-5.1c1.4-1.8,2.9-3.7,3.9-5.3c0.5-0.8,0.9-1.6,1.1-2.3  c0.2-0.6,0.2-1.3,0-1.9l-0.1-0.1l0,0l-0.1-0.1c-0.3-0.5-1-0.8-1.7-1.1c-0.8-0.3-1.7-0.4-2.7-0.5c-2.1-0.2-4.7-0.3-7.3-0.3  c-2.6-0.1-5.1-0.1-7.1-0.4c-1-0.1-1.8-0.3-2.4-0.5c-0.5-0.2-0.8-0.4-0.9-0.7l0-0.1v0c-0.1-0.2,0-0.5,0.3-1c0.3-0.5,0.8-1,1.5-1.6  c1.4-1.2,3.4-2.5,5.4-3.9c2-1.3,4.1-2.7,5.6-4c0.8-0.6,1.4-1.3,1.9-1.9c0.4-0.5,0.7-1.2,0.6-1.8l0-0.1v0c-0.1-0.6-0.6-1.2-1.2-1.6  c-0.6-0.4-1.5-0.8-2.4-1.2c-1.9-0.8-4.4-1.5-6.8-2.3c-2.4-0.7-4.8-1.5-6.6-2.3c-0.9-0.4-1.6-0.8-2.1-1.2c-0.5-0.4-0.6-0.7-0.6-0.9  c0-0.2,0.2-0.5,0.6-0.9c0.5-0.4,1.2-0.8,2.1-1.2c1.8-0.8,4.1-1.5,6.6-2.3c2.4-0.7,4.9-1.5,6.8-2.3c1-0.4,1.8-0.8,2.4-1.2  c0.6-0.4,1.1-0.9,1.2-1.5l0-0.1v0c0.1-0.7-0.2-1.3-0.6-1.9c-0.4-0.6-1.1-1.2-1.9-1.9c-1.5-1.3-3.6-2.6-5.6-4c-2-1.4-4-2.7-5.4-3.9  c-0.7-0.6-1.2-1.1-1.5-1.6c-0.3-0.4-0.3-0.7-0.3-0.9l0-0.1c0.1-0.2,0.4-0.5,1-0.7c0.6-0.2,1.4-0.4,2.4-0.5c2-0.3,4.5-0.3,7.1-0.4  c2.6-0.1,5.2-0.1,7.3-0.3c1-0.1,2-0.3,2.7-0.5c0.7-0.2,1.3-0.6,1.7-1.1l0.1-0.1c0.3-0.6,0.3-1.3,0.1-2c-0.2-0.7-0.6-1.5-1.1-2.3  c-1-1.6-2.5-3.5-3.9-5.3c-1.5-1.8-2.9-3.6-3.7-5.1c-0.4-0.8-0.7-1.4-0.9-1.9c-0.1-0.5-0.1-0.8,0.1-1l0.1-0.1  c0.2-0.2,0.6-0.4,1.2-0.5c0.7-0.1,1.5,0,2.5,0.1c2,0.3,4.4,0.9,6.9,1.5c2.5,0.6,5,1.3,7,1.6c1,0.2,2,0.2,2.8,0.2  c0.7,0,1.4-0.2,1.9-0.6l0.1-0.1c0.5-0.4,0.7-1.1,0.8-1.8c0.1-0.7-0.1-1.6-0.2-2.5c-0.4-1.8-1.1-4-1.9-6.1c-0.7-2.1-1.4-4.2-1.7-5.9  c-0.2-0.8-0.2-1.5-0.1-2.1c0.1-0.5,0.2-0.7,0.4-0.9l0.1-0.1c0.3-0.2,0.7-0.2,1.4-0.1c0.6,0.1,1.4,0.4,2.3,0.8c1.8,0.8,3.9,2,6,3.2  c2.1,1.2,4.3,2.5,6.2,3.4c0.9,0.4,1.8,0.8,2.6,0.9c0.7,0.1,1.3,0.2,1.9,0l0.2-0.1c0.6-0.3,1-0.8,1.3-1.5c0.3-0.7,0.5-1.5,0.6-2.4  c0.3-1.8,0.3-4.1,0.4-6.3c0.1-2.2,0.1-4.4,0.5-6c0.2-0.8,0.4-1.5,0.6-2c0.3-0.5,0.6-0.7,0.9-0.8l0,0c0.5-0.1,1,0.1,1.5,0.3v0  c0.9,0.5,1.7,1.2,2.4,1.9l0.7,0.7c1.3,1.3,2.4,2.6,3.6,3.9v0c1,1.1,2,2.3,3.2,3.3l0.5,0.5v0c0.5,0.5,1.2,1.2,1.9,1.7  c0.8,0.5,1.7,0.9,2.8,0.7l0,0c1-0.2,2-0.4,2.9-1.1l0,0c0.8-0.7,1.3-1.5,1.7-2.3l0,0c0.8-1.3,1.3-2.7,1.8-4l0,0  c0.5-1.2,1-2.5,1.5-3.7l0.2-0.5v0c0.5-1.1,1.1-2.3,2-3.2c0.7-0.7,1.5-1.2,2.5-1.2c1.3,0,2.4,0.8,3.3,2.3c1,1.4,1.7,3.4,2.5,5.4  c0.8,2,1.6,4,2.6,5.6c1,1.5,2.3,2.7,4.1,2.7c1.8,0,3.1-1.2,4.1-2.7c1-1.5,1.8-3.6,2.6-5.6c0.8-2,1.6-3.9,2.5-5.4  c0.9-1.4,2-2.3,3.3-2.3c1.3,0,2.4,0.8,3.3,2.3c1,1.4,1.7,3.4,2.5,5.4c0.8,2,1.6,4,2.6,5.6c1,1.5,2.3,2.7,4.1,2.7  c1.8,0,3.1-1.2,4.1-2.7c1-1.5,1.8-3.6,2.6-5.6c0.8-2,1.6-3.9,2.5-5.4c0.9-1.4,2-2.3,3.3-2.3c1.3,0,2.4,0.8,3.3,2.3  c1,1.4,1.7,3.4,2.5,5.4c0.8,2,1.6,4,2.6,5.6c1,1.5,2.3,2.7,4.1,2.7c1.8,0,3.1-1.2,4.2-2.7c1-1.5,1.8-3.6,2.6-5.6  c0.8-2,1.6-4,2.5-5.4C178.1,15.6,179.2,14.8,180.5,14.8z"></path></g></svg>