<svg xmlns="http://www.w3.org/2000/svg" viewBox="0 0 115 75" style="enable-background:new 0 0 115 75;" xml:space="preserve"><g>	<path d="M41.7,19.8c1.4,0,2.6-1,3.9-1.5c0.7-0.3,1.5-0.6,2.2-0.9c0.3-0.2,0.7-0.3,1-0.5c0,0,1.2-0.5,0.6-0.5  c2.6-0.3,2.1-3.9-0.5-3.4c-0.7,0.1-1.1,0.5-1.6,0.9c-0.7,0.5-1.5,0.9-2.3,1.3c-0.8,0.4-1.6,0.7-2.3,1.1c-0.5,0.3-1,0.8-1.5,1.1  C39.9,18.1,40.5,19.9,41.7,19.8L41.7,19.8z"></path>	<path d="M19.2,13c1.3,0.3,2.8-0.6,3.9-1.1c0.8-0.3,1.6-0.8,2.4-1.2c0.5-0.3,1.2-0.8,1.6-1c1.4-0.7,0.8-3.3-0.9-3.1  c-0.9,0.1-1.2,0.5-1.8,1c-0.5,0.4-1.2,0.8-1.8,1.2c-1.2,0.8-2.4,1.9-3.6,2.7C18.4,11.9,18.5,12.8,19.2,13z"></path>	<path d="M37.6,8.2c0,0,0,0.1,0.1,0.1C37.8,8.7,38.4,9,38.8,9c1.1-0.1,2.1-0.7,3.1-1.2c1-0.4,1.9-1,2.8-1.3c2.1-0.8,1.3-3.6-0.9-3.2  c-1.4,0.3-2.8,1.5-4.1,2.2C38.8,6,37,6.9,37.6,8.2L37.6,8.2z"></path>	<path d="M61.2,15.9c1.3,0.5,3.1-0.5,4.3-1c1.3-0.5,2.6-0.8,3.7-1.8c1.4-1.3-0.8-3.4-2.1-2.1c-0.7,0.8-1.8,1-2.8,1.5  c-1.1,0.5-2.3,1.1-3.3,1.8C60.3,14.8,60.6,15.6,61.2,15.9L61.2,15.9z"></path>	<path d="M67.3,27.3c2.1-0.8,3.7-2.4,5.6-3.5c0.7-0.4,0.8-1.4,0.3-2c-0.5-0.7-1.4-0.7-2.1-0.3c-0.9,0.5-1.7,1.3-2.6,2  c-0.9,0.6-2,1.2-2.6,2.1C65.3,26.4,66.2,27.7,67.3,27.3L67.3,27.3z"></path>	<path d="M60.2,44.9c1.8-1.9,3.8-3.8,5.6-5.7c1.8-1.9-1.5-4.3-2.9-2.1c-0.4,0.6-0.9,1.1-1.2,1.7c-0.4,0.7-0.9,1.4-1.4,2.1  c-0.8,1-2,2.2-1.7,3.6C58.8,45.2,59.8,45.4,60.2,44.9z"></path>	<path d="M40.8,48.3c1.2-0.2,2.3-1.3,3-2.2c0.8-0.9,1.8-1.7,2.4-2.8c0.9-1.9-2.4-3.3-3.2-1.3c-0.8,1.9-3.5,3.2-3.4,5.4  C39.6,47.9,40.2,48.4,40.8,48.3L40.8,48.3z"></path>	<path d="M24.1,59.1c0,0.2,0.4-0.5,0.6-0.6c0.4-0.5,0.7-1.1,1-1.6c0.7-1.1,1.5-2.2,2.2-3.3c1-1.6-1.8-3.2-2.6-1.5  c-0.8,1.6-1.5,3-2.1,4.6c-0.4,0.9-1.1,1.9-0.3,2.8C23.3,60.1,24.1,59.6,24.1,59.1L24.1,59.1z"></path>	<path d="M11.5,56.8c1-0.2,1.7-1.7,2.1-2.5c0.4-0.6,0.7-1.3,1-1.9c0,0,0.7-1.3,0.2-0.5c0.2-0.3,0.5-0.5,0.7-0.8  c0.5-0.9-0.1-2.6-1.4-2.4c-2.4,0.3-2.3,3-3,4.8C11,54,9.9,57.3,11.5,56.8L11.5,56.8z"></path>	<path d="M26,44.5c0.2-0.2,0.6-0.3,0.9-0.4c0.7-0.3,1.4-0.8,2.1-1.3c1.1-0.8,2.4-1.7,3.3-2.7c1.2-1.4-0.6-3.1-2-1.9  c-0.7,0.5-1.2,1.2-1.8,1.8c-0.7,0.7-1.4,1.2-2,1.9c-0.7,0.7-1.9,1.6-1.4,2.6C25.3,44.7,25.7,44.7,26,44.5z"></path>	<path d="M13.9,42.2c0.5-0.9,0.8-1.8,1.1-2.8c0.3-0.8,0.8-1.5,1-2.3c0.4-1.1-1-2.2-2.1-1.6c-1.2,0.7-1.2,2-1.2,3.2  c0,1.1-0.2,2.5,0.2,3.5C13.2,42.5,13.7,42.5,13.9,42.2L13.9,42.2z"></path>	<path d="M60.7,2.7c1.4,0.1,2.8,0.2,4.2,0.2c1.7,0,3.3,0.6,4.7-0.5c0.5-0.4,0.5-1.2,0-1.6c-1.4-1.2-3.5-0.7-5.3-0.5  c-1.2,0.1-3,0-4.1,0.6C59.4,1.4,59.8,2.6,60.7,2.7L60.7,2.7z"></path>	<path d="M82.5,6.3c-0.3,1,1.1,1.4,1.9,1.6c1.9,0.3,3.8,0.6,5.6,1.2c2,0.5,2.7-2.6,0.8-2.9C89.2,6,87.4,5.9,85.7,6  c-0.8,0-2.1,0.4-2.8,0.1C82.7,6,82.5,6.2,82.5,6.3L82.5,6.3z"></path>	<path d="M85.2,17.3c1.4,0.5,2.7,1,4.3,1.3c1.1,0.2,2.6,0.6,3.7,0.5c1.3-0.1,2.1-1.6,1.1-2.6c-1.1-1.1-2.7-0.7-4.2-0.7  c-1.5-0.1-3.5-0.5-4.9,0.1C84.5,16.2,84.5,17,85.2,17.3L85.2,17.3z"></path>	<path d="M91.9,28.4c2.7,1.1,5.9,0.4,8.7,1c3,0.7,3.1-4.2,0-3.5c-2.8,0.7-6,0-8.7,1C91.2,27.3,91.2,28.1,91.9,28.4z"></path>	<path d="M50.8,51.8c-0.6,0-0.8,0.3-1.3,0.6c-0.7,0.5-1.4,1.1-2,1.6c-1.1,0.9-1.8,1.9-2.7,3c-1,1.2,0.9,2.7,2.1,2  c0.6-0.3,0.7-0.7,1-1.3c0.3-0.7,0.8-1.2,1.3-1.8c0.8-0.9,2-2,2.2-3.3C51.6,52.3,51.3,51.8,50.8,51.8L50.8,51.8z"></path>	<path d="M36.7,59.8c-0.8,0.6-1.1,1.6-1.4,2.5c-0.5,1.4-0.6,2.8-0.7,4.3c-0.1,2.1,3.6,2.1,3.4,0c-0.1-1.4-0.3-2.8-0.1-4.2  c0.1-0.8,0.2-1.9-0.5-2.5C37.3,59.7,36.9,59.6,36.7,59.8z"></path>	<path d="M18.2,67.6c-0.4,1.1,0.3,2.4,0.6,3.4c0.3,1.1,0.5,2.2,1.1,3.1c1.5,2.4,5.1-0.6,3-2.2c-0.7-0.5-1-1.2-1.4-1.9  c-0.2-0.4-0.4-0.9-0.7-1.3c-0.2-0.5-0.6-0.8-0.9-1.2C19.5,66.6,18.4,66.9,18.2,67.6L18.2,67.6z"></path>	<path d="M2.5,43.7c0.7-0.8,1.3-1.5,1.7-2.5c0.5-1.1,0.9-2.2,1.4-3.3c1-2.3-3.1-3.5-3.9-1c-0.4,1.1-0.6,2.2-0.9,3.3  c-0.3,1-1,1.8-0.6,2.8C0.4,44,1.8,44.6,2.5,43.7L2.5,43.7z"></path>	<path d="M9.7,26.7c0.6-0.7,1.4-1.2,2-1.9c0.6-0.7,1.1-1.6,1.8-2.2c1.9-1.5-0.9-4.3-2.7-2.6c-0.4,0.4-0.7,0.9-1,1.4  c-0.3,0.6-0.8,1.1-1.1,1.6c-0.6,1.1-1.3,2-1,3.3C8,27,9.2,27.3,9.7,26.7L9.7,26.7z"></path>	<path d="M44.3,33.1c1.5-0.4,2.9-1.1,4.1-2c1-0.8,2.5-1.5,3.3-2.6c1.1-1.6-1.5-3-2.6-1.5c-0.2,0.2-0.7,0.4-0.9,0.6  c-0.7,0.5-1.3,1.1-2,1.6c-1,0.7-2.5,1.2-3.1,2.3C42.6,32.4,43.3,33.4,44.3,33.1L44.3,33.1z"></path>	<path d="M25.5,30.1c0.3-0.4,0.8-0.6,1.1-1c0.4-0.4,0.7-0.8,1.1-1.2c0.8-0.9,1.8-1.6,2.6-2.4c1.3-1.4-0.6-3.3-2.1-2.1  c-1.2,0.9-2.1,2.3-2.8,3.5c-0.5,0.9-1.6,2.1-1,3.2C24.5,30.6,25.2,30.5,25.5,30.1L25.5,30.1z"></path>	<path d="M76.2,32c0.9,0.2,1.8,0,2.7-0.2c0.9-0.2,1.9-0.2,2.8-0.4c1.8-0.3,1-3.3-0.8-2.7c-0.8,0.3-1.5,0.3-2.3,0.6  c-0.7,0.3-1.5,0.8-2.2,0.9C75.5,30.4,75.1,31.8,76.2,32z"></path>	<path d="M106.2,18.4c0.2,1.6,2,2.2,3.3,2.8c0.5,0.2,1,0.4,1.4,0.7c-0.1,0,0.6,0.3,0.4,0.2c-0.3-0.2,0.6,0.6,0.7,0.6  c1.1,0.5,2.5,0.1,2.8-1.1c0,0,0-0.1,0-0.1c0.2-0.6,0-1.4-0.5-1.9c-0.9-0.7-1.8-0.9-2.9-1.1c-1.4-0.2-2.7-0.7-4-1.2  C106.9,17.3,106.1,17.9,106.2,18.4L106.2,18.4z"></path>	<path d="M3.9,60.1c-0.1,1.3,0.5,2.8,0.9,4.1c0.5,1.3,1.4,2.7,3.1,2.4c0.8-0.2,1.1-1,1-1.7c-0.1-0.6-0.5-0.8-0.9-1.3  c-0.3-0.3-0.5-0.7-0.7-1.1c-0.3-0.4-0.5-0.9-0.7-1.3c-0.3-0.6-0.7-1-1.1-1.5C5.1,58.9,3.9,59.2,3.9,60.1z"></path></g></svg>