<svg xmlns="http://www.w3.org/2000/svg" viewBox="0 0 20 14" style="enable-background:new 0 0 20 14;" xml:space="preserve"><g>	<path d="M19,0.9C18.5,0.3,17.7,0,16.9,0H3.1C2.3,0,1.5,0.3,0.9,0.9l8.8,8.5C9.8,9.4,9.9,9.5,10,9.5c0.1,0,0.2,0,0.3-0.1L19,0.9z"></path>	<path d="M19.5,12.6c0.3-0.5,0.5-1.1,0.5-1.7V3.1c0-0.6-0.2-1.1-0.4-1.6l-6.2,6L19.5,12.6z"></path>	<path d="M3.1,14h13.9c0.8,0,1.5-0.3,2.1-0.8L12.8,8l-2.3,2.2c-0.1,0.1-0.3,0.2-0.5,0.2c-0.2,0-0.4-0.1-0.5-0.2L7.2,8L1,13.2  C1.6,13.7,2.3,14,3.1,14"></path>	<path d="M6.6,7.5l-6.2-6C0.2,2,0,2.5,0,3.1v7.8c0,0.6,0.2,1.2,0.5,1.7L6.6,7.5z"></path></g></svg>