<svg xmlns="http://www.w3.org/2000/svg" viewBox="0 0 100 100"><path d="M56.5,27.8H23.4c-1.5,0-3-0.6-4-1.7c-1.1-1.1-1.7-2.5-1.7-4V8.3c0-1.5,0.6-3,1.7-4c1.1-1.1,2.5-1.7,4-1.7h33.2  c0.8,0,1.5,0.1,2.2,0.4s1.3,0.7,1.8,1.2s0.9,1.2,1.2,1.8s0.4,1.4,0.4,2.2V22c0,0.8-0.1,1.5-0.4,2.2c-0.3,0.7-0.7,1.3-1.2,1.8  s-1.2,0.9-1.8,1.2C58,27.6,57.3,27.8,56.5,27.8z M23.4,6.1c-0.6,0-1.1,0.2-1.5,0.6s-0.6,1-0.6,1.5V22c0,0.6,0.2,1.1,0.6,1.5  s1,0.6,1.5,0.6h33.2c0.3,0,0.6-0.1,0.8-0.2c0.3-0.1,0.5-0.3,0.7-0.5s0.4-0.4,0.5-0.7c0.1-0.3,0.2-0.5,0.2-0.8V8.3  c0-0.3-0.1-0.6-0.2-0.8c-0.1-0.3-0.3-0.5-0.5-0.7s-0.4-0.4-0.7-0.5s-0.5-0.2-0.8-0.2C56.6,6.1,23.4,6.1,23.4,6.1z"></path><path d="M56.5,28.3H23.4c-1.7,0-3.3-0.7-4.4-1.9c-1.2-1.2-1.8-2.7-1.8-4.3V8.3c0-1.7,0.7-3.3,1.9-4.4c1.2-1.2,2.7-1.8,4.3-1.8h33.2  c0.9,0,1.7,0.1,2.4,0.4c0.8,0.3,1.4,0.8,2,1.3c0.4,0.4,0.9,1.1,1.3,1.9c0.3,0.6,0.5,1.4,0.5,2.4V22c0,0.9-0.1,1.7-0.4,2.4  c-0.3,0.8-0.8,1.4-1.3,2c-0.4,0.4-1.1,0.9-1.9,1.3C58.1,28.1,57.3,28.3,56.5,28.3z M23.4,3.1c-1.4,0-2.6,0.5-3.6,1.6  c-1,0.9-1.6,2.2-1.6,3.6v13.8c0,1.4,0.5,2.6,1.6,3.6c0.9,1,2.2,1.6,3.6,1.6h33.1c0.7,0,1.3-0.2,2.1-0.5c0.8-0.4,1.3-0.7,1.7-1.1  c0.5-0.5,0.8-1,1.1-1.6c0.2-0.6,0.4-1.2,0.4-2V8.2c0-0.9-0.1-1.5-0.3-2c-0.4-0.8-0.7-1.3-1.1-1.7c-0.5-0.5-1-0.8-1.6-1.1  c-0.6-0.2-1.2-0.4-2-0.4H23.4z M56.6,24.6H23.4c-0.7,0-1.4-0.3-1.9-0.7c-0.5-0.5-0.7-1.1-0.7-1.9V8.2c0-0.7,0.3-1.4,0.7-1.9  c0.5-0.5,1.1-0.7,1.9-0.7h33.2c0.3,0,0.6,0.1,0.8,0.2l0.2,0.1C58,6,58.2,6.2,58.5,6.4c0.2,0.2,0.5,0.5,0.6,0.9c0,0.1,0.2,0.5,0.2,1  v13.6c0,0.3-0.1,0.6-0.2,0.8l-0.1,0.2c-0.1,0.4-0.4,0.7-0.6,0.9c-0.2,0.2-0.5,0.5-0.9,0.6C57.5,24.4,57.1,24.6,56.6,24.6z   M23.4,6.6c-0.5,0-0.8,0.1-1.1,0.5c-0.3,0.3-0.5,0.7-0.5,1.1V22c0,0.5,0.1,0.8,0.5,1.1c0.3,0.3,0.7,0.5,1.1,0.5h33.2  c0.2,0,0.4-0.1,0.6-0.1c0.3-0.1,0.4-0.2,0.6-0.4c0.2-0.2,0.3-0.3,0.4-0.5l0.1-0.2c0.1-0.2,0.1-0.3,0.1-0.5V8.3  c0-0.2-0.1-0.4-0.1-0.6c-0.1-0.3-0.2-0.4-0.4-0.6c-0.2-0.2-0.3-0.3-0.5-0.4l-0.2-0.1c-0.2-0.1-0.3-0.1-0.5-0.1H23.4z"></path><path d="M67.4,75c-1,0-1.8-0.8-1.8-1.8V44c0-2.1-1.7-3.3-4.4-5.1c-2.3-1.5-4.8-3.2-6-6c-0.4-0.9,0.1-1.9,1-2.3s1.9,0.1,2.3,1  c0.8,1.8,2.7,3.1,4.7,4.5c2.8,1.9,6,4,6,8v29.2C69.2,74.2,68.4,75,67.4,75z"></path><path d="M67.4,75.5c-1.3,0-2.3-1-2.3-2.3V44c0-1.8-1.5-2.9-4.2-4.7c-2.1-1.3-4.9-3.2-6.2-6.2c-0.2-0.6-0.2-1.2,0-1.7  c0.2-0.5,0.7-1,1.2-1.2c1.1-0.5,2.4,0.1,3,1.3c0.7,1.6,2.5,2.9,4.4,4.2l0.3,0.2c2.8,1.9,6.1,4.1,6.1,8.3v29.2  C69.7,74.5,68.6,75.5,67.4,75.5z M56.9,31c-0.1,0-0.3,0-0.5,0.1c-0.3,0.1-0.6,0.4-0.7,0.7c-0.1,0.2-0.2,0.5,0,0.9  c1.1,2.6,3.3,4.1,5.8,5.8c2.6,1.7,4.6,3.1,4.6,5.5v29.2c0,0.7,0.6,1.3,1.3,1.3c0.7,0,1.3-0.5,1.3-1.2V44.1c0-3.7-2.9-5.6-5.6-7.5  l-0.3-0.2c-2-1.4-3.9-2.7-4.7-4.6C57.8,31.3,57.4,31,56.9,31z"></path><path d="M18.2,91.3c-1.9,0-3.8-0.7-5.2-2.1S10.8,86,10.7,84V43.9c0-4.1,3.2-6.2,6-8c1.9-1.3,3.7-2.4,4.5-4.1  c0.4-0.9,1.5-1.2,2.4-0.8c0.9,0.4,1.2,1.5,0.8,2.4c-1.3,2.4-3.6,4-5.7,5.4c-2.7,1.8-4.4,3-4.4,5.1V84c0,1,0.4,2,1.2,2.7  c0.7,0.7,1.8,1.1,2.8,1.1h33.9c1,0,1.8,0.8,1.8,1.8s-0.8,1.8-1.8,1.8L18.2,91.3L18.2,91.3z"></path><path d="M52.2,91.9l-34-0.1c-2.1,0-4.1-0.8-5.6-2.2c-1.5-1.5-2.3-3.4-2.4-5.5l0-40.1c0-4.4,3.5-6.6,6.2-8.4l0.5-0.4  c1.7-1.1,3.1-2.1,3.8-3.5c0.5-1.1,1.9-1.6,3.1-1c1.1,0.5,1.6,1.9,1.1,3.1c-1.3,2.4-3.5,4.1-5.9,5.6c-2.7,1.8-4.2,2.9-4.2,4.7V84  c0,0.9,0.4,1.8,1,2.3c0.6,0.6,1.6,1,2.5,1h33.9c1.3,0,2.3,1,2.3,2.3S53.5,91.9,52.2,91.9z M22.8,31.3c-0.1,0-0.3,0-0.4,0.1  c-0.3,0.1-0.6,0.3-0.7,0.6c-0.8,1.7-2.4,2.8-4.1,4L17,36.3c-2.7,1.7-5.8,3.7-5.8,7.6V84c0.1,1.8,0.8,3.5,2.2,4.8c1.2,1.2,3,2,4.8,2  h0l34,0.1c0.7,0,1.3-0.6,1.3-1.3c0-0.7-0.6-1.3-1.3-1.3H18.3c-1.2,0-2.4-0.5-3.2-1.2c-0.8-0.7-1.3-1.9-1.3-3.1V43.9  c0-2.4,2-3.8,4.6-5.5c2.2-1.5,4.3-3,5.5-5.2c0.1-0.3,0.2-0.7,0-1c-0.1-0.3-0.3-0.6-0.6-0.7C23.2,31.4,23,31.3,22.8,31.3z"></path><path d="M46.5,83.9h-28c-1,0-1.8-0.8-1.8-1.8s0.8-1.8,1.8-1.8h26.2V45.7H18.5c-1,0-1.8-0.8-1.8-1.8s0.8-1.8,1.8-1.8h27.9  c1,0,1.8,0.8,1.8,1.8v38.3C48.2,83.1,47.4,83.9,46.5,83.9z"></path><path d="M46.5,84.4h-28c-1.3,0-2.3-1-2.3-2.3s1-2.3,2.3-2.3h25.7V46.2H18.5c-1.3,0-2.3-1-2.3-2.3c0-1.3,1-2.3,2.3-2.3h27.9  c1.3,0,2.3,1,2.3,2.3v38.3C48.7,83.4,47.7,84.4,46.5,84.4z M18.5,80.8c-0.7,0-1.3,0.6-1.3,1.3c0,0.7,0.6,1.3,1.3,1.3h28  c0.6,0,1.2-0.6,1.2-1.2V43.9c0-0.7-0.6-1.3-1.3-1.3H18.5c-0.7,0-1.3,0.6-1.3,1.3s0.6,1.3,1.3,1.3h26.7v35.6H18.5z"></path><path d="M80,97.4H66.2c-5.1,0-9.3-4.2-9.3-9.3s4.2-9.3,9.3-9.3H80c5.1,0,9.3,4.2,9.3,9.3S85.1,97.4,80,97.4z M66.2,82.3  c-3.2,0-5.8,2.6-5.8,5.8s2.6,5.8,5.8,5.8H80c3.2,0,5.8-2.6,5.8-5.8s-2.6-5.8-5.8-5.8H66.2z"></path><path d="M80,97.9H66.2c-5.4,0-9.8-4.4-9.8-9.8c0-5.4,4.4-9.8,9.8-9.8H80c5.4,0,9.8,4.4,9.8,9.8C89.8,93.5,85.4,97.9,80,97.9z   M66.2,79.3c-4.9,0-8.8,3.9-8.8,8.8s3.9,8.8,8.8,8.8H80c4.9,0,8.8-3.9,8.8-8.8s-3.9-8.8-8.8-8.8H66.2z M80,94.4H66.2  c-3.5,0-6.3-2.8-6.3-6.3c0-3.5,2.8-6.3,6.3-6.3H80c3.5,0,6.3,2.8,6.3,6.3C86.3,91.6,83.5,94.4,80,94.4z M66.2,82.8  c-2.9,0-5.3,2.4-5.3,5.3c0,2.9,2.4,5.3,5.3,5.3H80c2.9,0,5.3-2.4,5.3-5.3c0-2.9-2.4-5.3-5.3-5.3H66.2z"></path><path d="M73.1,96.1c-1,0-1.8-0.8-1.8-1.8v-7c0-1,0.8-1.8,1.8-1.8s1.8,0.8,1.8,1.8v7C74.8,95.3,74,96.1,73.1,96.1z"></path><path d="M73.1,96.6c-1.3,0-2.3-1-2.3-2.3v-7c0-1.3,1-2.3,2.3-2.3s2.3,1,2.3,2.3v7C75.3,95.6,74.3,96.6,73.1,96.6z M73.1,86  c-0.7,0-1.3,0.6-1.3,1.3v7c0,0.7,0.6,1.3,1.3,1.3c0.6,0,1.2-0.6,1.3-1.3l0-7C74.4,86.6,73.8,86,73.1,86z"></path><path d="M54.1,22.2c-1,0-1.8-0.8-1.8-1.8V11c0-1,0.8-1.8,1.8-1.8s1.8,0.8,1.8,1.8v9.4C55.9,21.4,55.1,22.2,54.1,22.2z"></path><path d="M54.1,22.7c-1.3,0-2.3-1-2.3-2.3V11c0-1.3,1-2.3,2.3-2.3s2.3,1,2.3,2.3v9.4C56.4,21.7,55.4,22.7,54.1,22.7z M54.1,9.7  c-0.7,0-1.3,0.6-1.3,1.3v9.4c0,0.7,0.6,1.3,1.3,1.3c0.7,0,1.3-0.6,1.3-1.3V11C55.4,10.3,54.8,9.7,54.1,9.7z"></path><path d="M47.8,22.2c-1,0-1.8-0.8-1.8-1.8V11c0-1,0.8-1.8,1.8-1.8s1.8,0.8,1.8,1.8v9.4C49.6,21.4,48.8,22.2,47.8,22.2z"></path><path d="M47.8,22.7c-1.3,0-2.3-1-2.3-2.3V11c0-1.3,1-2.3,2.3-2.3c1.3,0,2.3,1,2.3,2.3v9.4C50.1,21.7,49.1,22.7,47.8,22.7z   M47.8,9.7c-0.7,0-1.3,0.6-1.3,1.3v9.4c0,0.7,0.6,1.3,1.3,1.3s1.3-0.6,1.3-1.3V11C49.1,10.3,48.5,9.7,47.8,9.7z"></path><path d="M41.6,22.2c-1,0-1.8-0.8-1.8-1.8V11c0-1,0.8-1.8,1.8-1.8s1.8,0.8,1.8,1.8v9.4C43.3,21.4,42.5,22.2,41.6,22.2z"></path><path d="M41.6,22.7c-1.3,0-2.3-1-2.3-2.3V11c0-1.3,1-2.3,2.3-2.3c1.3,0,2.3,1,2.3,2.3v9.4C43.8,21.7,42.8,22.7,41.6,22.7z   M41.6,9.7c-0.7,0-1.3,0.6-1.3,1.3v9.4c0,0.7,0.6,1.3,1.3,1.3c0.6,0,1.2-0.6,1.3-1.4l0-9.4C42.9,10.3,42.3,9.7,41.6,9.7z"></path><path d="M26.6,76.6c-0.4,0-0.8-0.1-1.2-0.4c-0.7-0.6-0.8-1.7-0.2-2.5l7-8H24c-0.6,0-1.3-0.4-1.6-1c-0.3-0.6-0.2-1.3,0.2-1.9  l9.6-12.2c0.6-0.8,1.7-0.9,2.5-0.3c0.8,0.6,0.9,1.7,0.3,2.5l-7.3,9.4l8.6-0.1l0,0c0.7,0,1.3,0.4,1.6,1s0.2,1.4-0.3,1.9l-9.7,11  C27.6,76.4,27.1,76.6,26.6,76.6z"></path><path d="M26.6,77.1c-0.6,0-1.1-0.2-1.5-0.5c-0.9-0.8-1.1-2.2-0.3-3.2l6.3-7.2H24c-0.8,0-1.7-0.5-2-1.3c-0.4-0.7-0.3-1.6,0.2-2.4  l9.6-12.2c0.7-1,2.2-1.2,3.2-0.4c1,0.8,1.2,2.2,0.4,3.2l-6.7,8.6l7.6-0.1c0.9,0,1.7,0.5,2.1,1.3c0.4,0.8,0.2,1.8-0.4,2.5l-9.7,11  C27.9,76.8,27.3,77.1,26.6,77.1z M33.6,50.4c-0.4,0-0.7,0.2-1,0.5L23,63.1c-0.3,0.4-0.4,1-0.1,1.4c0.2,0.5,0.8,0.7,1.2,0.7h9.3  L25.6,74c-0.4,0.6-0.4,1.4,0.1,1.8c0.5,0.4,1.4,0.4,1.8-0.1l9.7-11c0.4-0.4,0.4-0.9,0.2-1.3c-0.2-0.4-0.7-0.7-1.2-0.7l-9.6,0.1  l7.9-10.2c0.4-0.6,0.4-1.4-0.2-1.8C34.1,50.5,33.9,50.4,33.6,50.4z"></path></svg>