<svg xmlns="http://www.w3.org/2000/svg" viewBox="0 0 100 100" style="enable-background:new 0 0 100 100;" xml:space="preserve"><g>	<path d="M52.8,79.1c0,4.3,1.2,8.4,3.4,12c0.9,1.5,2.2,2.8,3.7,3.7c1.5,0.9,3.3,1.4,5,1.5c1.8,0.1,3.5-0.3,5.1-1.1  c1.6-0.8,3-1.9,4.1-3.4c5.6-6.9,5.2-19.7-0.6-26.3C63.9,55.3,52.4,66.9,52.8,79.1z"></path>	<path d="M77.9,55.3c0,2.9,0.5,5.7,1.6,8.3c1.1,2.6,2.7,5,4.8,6.9c1,1,2.3,1.7,3.6,2.1s2.8,0.5,4.1,0.2c1.4-0.3,2.7-0.9,3.8-1.7  c1.1-0.9,2-2,2.6-3.3c4.3-8.9-0.2-25.1-10.9-25.6C80.9,42.3,77.8,48.7,77.9,55.3z"></path>	<path d="M17.2,32.7c5,4.9,10.5,10.3,17.4,16.8c4.2,4,9.7,6.3,15.5,6.4c5.7,0,11.1-2.2,15.2-6.1c6.9-6.6,12.6-12.1,17.9-17.3  C94,22.6,85.8,3,71.5,3.5c-6.1,0.1-11.4,2.6-17.2,3.6c-5.7,0.9-11.1-0.3-17.6-2c-3.2-1.1-6.6-1.6-10-1.5  C13.2,4.6,6.8,23.6,17.2,32.7z"></path>	<path d="M14,71.8c6.7-4.2,9.2-12.8,7.9-20.6c-1.5-9.4-11.6-12.6-17.7-4.4C1.6,50.4,0.2,54.6,0,59C-0.5,67.8,5.7,76.2,14,71.8z"></path>	<path d="M21.9,79.1c-0.5,13.2,12,24.2,21.6,12.5c5.2-7,4.9-18.9-0.6-25.6C33.4,55.1,21.3,66.8,21.9,79.1z"></path></g></svg>