<svg xmlns="http://www.w3.org/2000/svg" viewBox="0 0 33 10" style="enable-background:new 0 0 33 10;" xml:space="preserve"><style type="text/css">	.pay-icon06{fill:#0091BB;}	.pay-icon05{fill:#00AD7E;}	.pay-icon04{fill:#113984;}</style><g>	<path class="pay-icon06" d="M5.7,4.3V2.7c0-0.2-0.2-0.4-0.4-0.4H0.4C0.2,2.3,0,2.5,0,2.7v5c0,0.1,0,0.1,0.1,0.1c0.1,0,0.1,0,0.2,0l1.5-1.4  L0,4.7h5.3C5.5,4.7,5.7,4.5,5.7,4.3z"></path>	<path class="pay-icon05" d="M5.7,5.1V10L3.9,8.3L2.4,9.7c-0.1,0-0.1,0.1,0,0.2C2.3,10,2.4,10,2.5,10h5.3C8,10,8.2,9.8,8.2,9.6V5.1  c0-0.2-0.2-0.4-0.4-0.4H6.1C5.9,4.7,5.7,4.9,5.7,5.1"></path>	<path class="pay-icon05" d="M12.3,10H14c0.2,0,0.4-0.2,0.4-0.4V0.4C14.4,0.2,14.2,0,14,0h-1.7c-0.2,0-0.4,0.2-0.4,0.4v9.2  C11.9,9.8,12.1,10,12.3,10z"></path>	<path class="pay-icon06" d="M10.9,10H9.2C9,10,8.8,9.8,8.8,9.6V2.7c0-0.2,0.2-0.4,0.4-0.4h1.7c0.2,0,0.4,0.2,0.4,0.4v6.8  C11.3,9.8,11.1,10,10.9,10z"></path>	<path class="pay-icon04" d="M26.8,9.1V8.5h0c0.1,0,0.3,0,0.4,0c0.1,0,0.2-0.1,0.2-0.2c0.1-0.1,0.1-0.2,0.1-0.4V5c0-0.1,0-0.1-0.1-0.2  s-0.1-0.1-0.2-0.1c-0.1,0-0.2-0.1-0.3-0.1l-0.1,0V4h1.9l0.2,1.1l0,0v3.2c0,0,0,0,0.1,0.1c0.1,0,0.1,0,0.2,0c0.1,0,0.2,0,0.2,0h0  v0.6H26.8z M33,9.1h-2.7V8.5h0c0.1,0,0.2,0,0.2,0c0.1,0,0.2,0,0.2,0c0.1,0,0.1,0,0.1-0.1v-3c0-0.1,0-0.3-0.1-0.4  c0-0.1-0.1-0.2-0.2-0.2c-0.1,0-0.2-0.1-0.4-0.1c-0.2,0-0.3,0-0.5,0.1c-0.2,0.1-0.4,0.2-0.5,0.4c-0.2,0.2-0.4,0.4-0.6,0.6l0-0.5  C28.8,5,29,4.8,29.2,4.6c0.2-0.2,0.5-0.4,0.7-0.5c0.3-0.1,0.6-0.2,0.8-0.2c0.3,0,0.6,0.1,0.8,0.2c0.2,0.1,0.4,0.3,0.5,0.5  c0.1,0.2,0.2,0.5,0.2,0.8v2.6c0,0.2,0,0.3,0.1,0.4c0.1,0.1,0.1,0.1,0.2,0.2c0.1,0,0.2,0,0.4,0h0V9.1z"></path>	<path class="pay-icon04" d="M24.6,3.3c-0.3,0-0.5-0.1-0.6-0.2c-0.2-0.1-0.2-0.3-0.2-0.6c0-0.2,0.1-0.4,0.2-0.5c0.2-0.1,0.4-0.2,0.6-0.2  c0.3,0,0.5,0.1,0.6,0.2c0.2,0.1,0.2,0.3,0.2,0.5c0,0.2-0.1,0.4-0.2,0.6C25.1,3.2,24.9,3.3,24.6,3.3z M25.4,4v4  c0,0.2,0.1,0.4,0.2,0.4c0.1,0.1,0.3,0.1,0.5,0.1h0v0.6h-2.8V8.5h0c0.2,0,0.4,0,0.5-0.1C24,8.4,24,8.2,24,8V5c0-0.1-0.1-0.2-0.2-0.2  c-0.1,0-0.3-0.1-0.5-0.1l-0.1,0V4H25.4z"></path>	<path class="pay-icon04" d="M19,3.3v5c0,0,0,0.1,0.1,0.1c0,0,0.1,0,0.2,0c0.1,0,0.2,0,0.2,0c0.1,0,0.2,0,0.3,0H20v0.7h-3.2V8.4h0.1  c0.2,0,0.4,0,0.5-0.1c0.1,0,0.2-0.1,0.2-0.3V3.6c0-0.1-0.1-0.2-0.2-0.3c-0.1,0-0.3-0.1-0.5-0.1h-0.1V2.6h5.6v1.8h-0.8l-0.1-0.8  c0-0.1-0.1-0.2-0.1-0.2c-0.1-0.1-0.2-0.1-0.3-0.1c-0.2,0-0.3,0-0.6,0H19z M18.8,5.6c0.3,0,0.6,0,0.9-0.1c0.3,0,0.6,0,0.9-0.1  c0.3,0,0.6,0,0.9,0v0.9c-0.3,0-0.6,0-0.9-0.1c-0.3,0-0.6,0-0.9-0.1c-0.3,0-0.6,0-0.9,0V5.6z"></path></g></svg>