<svg xmlns="http://www.w3.org/2000/svg" viewBox="0 0 35 10" style="enable-background:new 0 0 35 10;" xml:space="preserve"><style type="text/css">	.pay-icon07{fill:#8AC44B;}	.pay-icon08{fill:#45A849;}	.pay-icon09{fill:#008C46;}	.pay-icon10{fill:#113984;}</style><g>	<path class="pay-icon07" d="M6.8,5.7V2.9H3.9L2.5,4.3h2.9v3l1.4-1.4V5.7z"></path>	<path class="pay-icon08" d="M4.4,5.3H1.5L0.2,6.8h2.9v3l1.4-1.4V5.3z"></path>	<path class="pay-icon09" d="M2,2.9C3.4,0.9,6.3,1,7.6,3c1,1.6,0.6,3.9-1,5C6.3,8.3,5.9,8.5,5.4,8.5V10C8,9.6,9.9,7.1,9.5,4.3  C9.1,1.6,6.7-0.3,4.1,0.1C2,0.4,0.3,2.1,0,4.3h1.4C1.5,3.8,1.7,3.3,2,2.9"></path>	<path class="pay-icon10" d="M14.7,3.8v0.3c0,0.6-0.2,1.1-0.5,1.4c-0.4,0.4-0.8,0.5-1.4,0.5c-0.6,0-1.1-0.2-1.5-0.6  c-0.4-0.4-0.6-0.9-0.6-1.5s0.2-1.1,0.6-1.5c0.4-0.4,0.9-0.6,1.5-0.6c0.4,0,0.7,0.1,1,0.3c0.3,0.2,0.5,0.4,0.7,0.7l-0.7,0.4  c-0.1-0.2-0.2-0.3-0.4-0.4c-0.2-0.1-0.4-0.2-0.6-0.2c-0.4,0-0.7,0.1-0.9,0.4c-0.2,0.3-0.4,0.6-0.4,1c0,0.4,0.1,0.7,0.4,1  c0.2,0.3,0.6,0.4,1,0.4c0.3,0,0.5-0.1,0.7-0.2C13.8,5,13.9,4.8,14,4.5h-1.2V3.8H14.7z"></path>	<path class="pay-icon10" d="M16.5,3.7c-0.1,0-0.1,0-0.2,0c-0.1,0-0.3,0-0.4,0.1c-0.1,0.1-0.2,0.3-0.2,0.5V6H15V4.3c0-0.2,0-0.4,0.1-0.6  c0.1-0.2,0.2-0.3,0.3-0.4c0.1-0.1,0.3-0.2,0.5-0.3C16,3,16.1,3,16.2,3c0.1,0,0.2,0,0.3,0V3.7L16.5,3.7z"></path>	<path class="pay-icon10" d="M17.4,5.1c0.1,0.2,0.3,0.2,0.5,0.2s0.4-0.1,0.5-0.2c0.1-0.2,0.2-0.3,0.2-0.6c0-0.2-0.1-0.4-0.2-0.6  c-0.1-0.2-0.3-0.2-0.5-0.2S17.6,3.8,17.4,4c-0.1,0.2-0.2,0.3-0.2,0.6C17.2,4.8,17.3,5,17.4,5.1z M19,5.7c-0.3,0.3-0.6,0.4-1,0.4  c-0.4,0-0.8-0.1-1-0.4c-0.3-0.3-0.4-0.7-0.4-1.1c0-0.4,0.1-0.8,0.4-1.1C17.2,3.2,17.6,3,18,3c0.4,0,0.8,0.1,1,0.4  c0.3,0.3,0.4,0.7,0.4,1.1C19.4,5,19.3,5.4,19,5.7z"></path>	<path class="pay-icon10" d="M22.8,3.1h0.7L22.6,6h-0.7l-0.5-1.8L20.9,6h-0.7l-0.8-2.9h0.8l0.5,1.8l0.5-1.8h0.7l0.5,1.8L22.8,3.1z"></path>	<path class="pay-icon10" d="M25,3.8h-0.6V5c0,0.1,0,0.2,0.1,0.2c0,0,0.1,0.1,0.2,0.1c0.1,0,0.2,0,0.3,0V6c-0.5,0.1-0.8,0-1-0.1  c-0.2-0.2-0.3-0.4-0.3-0.8V2.5h0.7v0.6H25L25,3.8L25,3.8z"></path>	<path class="pay-icon10" d="M26.8,3c0.3,0,0.6,0.1,0.8,0.3c0.2,0.2,0.3,0.5,0.3,0.9V6h-0.7V4.3c0-0.2,0-0.3-0.1-0.4  c-0.1-0.1-0.2-0.2-0.4-0.2c-0.2,0-0.3,0.1-0.4,0.2C26.1,4,26,4.2,26,4.5V6h-0.7V1.9H26v1.5C26.2,3.2,26.5,3,26.8,3"></path>	<path class="pay-icon10" d="M31.6,2.1h-0.8v2.2c0,0.7-0.4,1.1-0.9,1.1S29,4.9,29,4.2V2.1h-0.8v2.2c0,1.2,0.7,1.9,1.7,1.9  c1,0,1.7-0.7,1.7-1.9V2.1z"></path>	<path class="pay-icon10" d="M33.5,4.2h-0.7V2.8h0.7c0.5,0,0.8,0.3,0.8,0.7C34.3,3.9,33.9,4.2,33.5,4.2z M33.5,2.1H32v4h0.8V4.9h0.6  c1,0,1.6-0.6,1.6-1.5C35,2.6,34.4,2.1,33.5,2.1z"></path>	<path class="pay-icon10" d="M23,7.9h0.5v0.2h-0.7V7h0.6v0.2H23v0.3h0.4v0.2H23L23,7.9z M21.7,7.2v0.4H22c0,0,0.1,0,0.1-0.1  c0,0,0-0.1,0-0.1s0-0.1,0-0.1c0,0-0.1-0.1-0.1-0.1H21.7z M22.2,8.1L22,7.7h-0.2v0.4h-0.2V7H22c0.1,0,0.2,0,0.2,0.1  c0.1,0.1,0.1,0.2,0.1,0.3c0,0.1,0,0.1-0.1,0.2c0,0.1-0.1,0.1-0.2,0.1l0.2,0.4H22.2z M20.6,7.9h0.5v0.2h-0.7V7h0.6v0.2h-0.5v0.3H21  v0.2h-0.4V7.9z M19.7,7h0.2v1.1h-0.2V7.6h-0.5v0.5h-0.2V7h0.2v0.5h0.5V7z M18,7h0.2v1.1H18l-0.5-0.8v0.8h-0.2V7h0.1L18,7.8V7z   M16.3,7.7h0.3l-0.2-0.5L16.3,7.7z M16.7,8.1l-0.1-0.2h-0.5l-0.1,0.2h-0.2L16.3,7h0.2l0.4,1.1H16.7z M15.6,7.5L15.6,7.5  c0,0.2,0,0.4-0.1,0.5c-0.1,0.1-0.2,0.1-0.4,0.1c-0.2,0-0.3-0.1-0.4-0.2c-0.1-0.1-0.2-0.3-0.2-0.4c0-0.2,0.1-0.3,0.2-0.4  C14.8,7,14.9,7,15,7c0.1,0,0.2,0,0.3,0.1c0.1,0,0.1,0.1,0.2,0.2l-0.2,0.1c0-0.1-0.1-0.1-0.1-0.1c-0.1,0-0.1,0-0.2,0  c-0.1,0-0.2,0-0.3,0.1c-0.1,0.1-0.1,0.2-0.1,0.3c0,0.1,0,0.2,0.1,0.3C14.8,7.9,14.9,8,15.1,8c0.1,0,0.2,0,0.2-0.1  c0.1,0,0.1-0.1,0.1-0.2H15V7.5H15.6z M13.2,7.8C13.3,7.9,13.4,8,13.5,8c0.1,0,0.2,0,0.3-0.1c0.1-0.1,0.1-0.2,0.1-0.3  c0-0.1,0-0.2-0.1-0.3c-0.1-0.1-0.2-0.1-0.3-0.1c-0.1,0-0.2,0-0.3,0.1c-0.1,0.1-0.1,0.2-0.1,0.3C13.1,7.7,13.2,7.8,13.2,7.8z   M13.9,8c-0.1,0.1-0.2,0.2-0.4,0.2c-0.2,0-0.3-0.1-0.4-0.2c-0.1-0.1-0.2-0.3-0.2-0.4s0.1-0.3,0.2-0.4C13.2,7,13.3,7,13.5,7  c0.2,0,0.3,0.1,0.4,0.2c0.1,0.1,0.2,0.3,0.2,0.4C14.1,7.7,14,7.9,13.9,8z M12.2,7.9h0.4v0.2H12V7h0.2V7.9z M11.2,8.1  c-0.1,0-0.2,0-0.3-0.1c-0.1,0-0.1-0.1-0.2-0.2l0.2-0.1C10.9,7.9,11,8,11.2,8c0.1,0,0.1,0,0.1,0c0,0,0-0.1,0-0.1s0-0.1-0.1-0.1  c0,0-0.1-0.1-0.2-0.1c0,0-0.1,0-0.1,0c0,0-0.1,0-0.1-0.1c0,0-0.1-0.1-0.1-0.1c0,0,0-0.1,0-0.1c0-0.1,0-0.2,0.1-0.2  C11,7,11,7,11.1,7c0.1,0,0.2,0,0.2,0.1c0.1,0,0.1,0.1,0.1,0.2l-0.1,0.1c0-0.1-0.1-0.2-0.2-0.2c-0.1,0-0.1,0-0.1,0c0,0,0,0.1,0,0.1  s0,0.1,0,0.1c0,0,0.1,0,0.2,0.1c0,0,0.1,0,0.1,0c0,0,0,0,0.1,0c0,0,0.1,0,0.1,0c0,0,0,0,0.1,0.1c0,0,0,0,0,0.1c0,0,0,0.1,0,0.1  c0,0.1,0,0.2-0.1,0.2C11.4,8.1,11.3,8.1,11.2,8.1z"></path></g></svg>