<svg xmlns="http://www.w3.org/2000/svg" viewBox="0 0 100 100"><path d="M50.1,27C62.6,27,73,37.4,73,49.9c0,12.7-10.3,22.9-22.9,22.9c-12.7,0-22.9-10.1-22.9-22.9C27.2,37.4,37.4,27,50.1,27z  M50.1,64.8c8.1,0,14.7-6.6,14.7-14.9c0-8.1-6.6-14.7-14.7-14.7c-8.3,0-14.9,6.6-14.9,14.7C35.2,58.2,42,64.8,50.1,64.8z M79.1,26.3 c0-3-2.4-5.4-5.4-5.4c-3,0-5.4,2.4-5.4,5.4c0,3,2.4,5.4,5.4,5.4C76.7,31.6,79.1,29.2,79.1,26.3z M94.2,31.6c0.4,7.4,0.4,29.4,0,36.8 c-0.4,7.2-2,13.3-7.2,18.7c-5.2,5.2-11.5,6.8-18.7,7.2c-7.4,0.4-29.4,0.4-36.8,0c-7.2-0.4-13.3-2-18.7-7.2 c-5.2-5.4-6.8-11.5-7.2-18.7C5.4,61,5.4,39,5.8,31.6c0.4-7.2,2-13.5,7.2-18.7c5.4-5.2,11.5-6.8,18.7-7.2C39,5.4,61,5.4,68.4,5.8 c7.2,0.4,13.5,2,18.7,7.2C92.2,18.1,93.8,24.5,94.2,31.6z M84.7,76.1c2.4-5.8,1.8-19.7,1.8-26.2c0-6.4,0.6-20.3-1.8-26.2 c-1.6-3.8-4.6-7-8.3-8.3c-6-2.4-19.9-1.8-26.2-1.8c-6.6,0-20.5-0.6-26.2,1.8c-4,1.6-7,4.6-8.5,8.3c-2.4,6-1.8,19.9-1.8,26.2 c0,6.6-0.6,20.5,1.8,26.2c1.6,4,4.6,7,8.5,8.5c5.8,2.4,19.7,1.8,26.2,1.8c6.4,0,20.3,0.6,26.2-1.8C80.1,83.1,83.3,80.1,84.7,76.1z"></path></svg>