<svg xmlns="http://www.w3.org/2000/svg" viewBox="0 0 33 10" style="enable-background:new 0 0 33 10;" xml:space="preserve"><style type="text/css">	.pay-icon01{fill:#5870F6;}	.pay-icon02{fill:#0195FF;}	.pay-icon03{fill:#0AE8ED;}</style><g>	<path class="pay-icon01" d="M14.8,9.8c-0.6,0-1.1-0.2-1.5-0.5c-0.4-0.3-0.6-0.8-0.7-1.4l1.2-0.3c0,0.3,0.2,0.6,0.3,0.8  c0.2,0.2,0.4,0.3,0.7,0.3c0.3,0,0.6-0.1,0.8-0.3c0.2-0.2,0.3-0.5,0.3-0.9V3.6h1.2v3.9c0,0.5-0.1,0.9-0.3,1.2  c-0.2,0.3-0.4,0.6-0.8,0.8C15.7,9.7,15.3,9.8,14.8,9.8z"></path>	<path class="pay-icon01" d="M19.8,9.8c-0.5,0-0.9-0.2-1.2-0.5c-0.3-0.3-0.5-0.8-0.5-1.3V5h1.2v2.7c0,0.3,0.1,0.6,0.3,0.8  c0.2,0.2,0.4,0.3,0.7,0.3c0.3,0,0.5-0.1,0.7-0.3c0.2-0.2,0.3-0.4,0.3-0.8h0.3c0,0.4-0.1,0.8-0.2,1.1c-0.1,0.3-0.3,0.5-0.6,0.7  C20.4,9.7,20.1,9.8,19.8,9.8z M21.2,9.7V5h1.2v4.6H21.2z"></path>	<path class="pay-icon01" d="M26.5,9.7V7c0-0.3-0.1-0.6-0.3-0.8C26,6,25.8,5.9,25.6,5.9c-0.3,0-0.5,0.1-0.7,0.3c-0.2,0.2-0.3,0.4-0.3,0.8  h-0.3c0-0.4,0.1-0.8,0.2-1.1c0.1-0.3,0.3-0.5,0.6-0.7c0.3-0.2,0.5-0.2,0.9-0.2c0.3,0,0.6,0.1,0.8,0.2c0.2,0.1,0.4,0.4,0.6,0.6  c0.1,0.3,0.2,0.6,0.2,1v2.9H26.5z M23.4,9.7V5h1.2v4.6H23.4z"></path>	<path class="pay-icon01" d="M30.7,9.8c-0.4,0-0.8-0.1-1.2-0.3C29.2,9.3,29,9,28.8,8.6c-0.2-0.4-0.3-0.8-0.3-1.3c0-0.5,0.1-0.9,0.3-1.3  c0.2-0.4,0.5-0.7,0.8-0.8c0.3-0.2,0.7-0.3,1.2-0.3c0.4,0,0.8,0.1,1.2,0.3c0.3,0.2,0.6,0.5,0.8,0.8C32.9,6.4,33,6.8,33,7.3  c0,0.1,0,0.1,0,0.2c0,0.1,0,0.1,0,0.2h-3.8V6.9h2.9l-0.3,0.5c0-0.5-0.1-0.9-0.3-1.1c-0.2-0.2-0.4-0.3-0.7-0.3  c-0.3,0-0.6,0.1-0.8,0.3c-0.2,0.2-0.3,0.6-0.3,1.1c0,0.5,0.1,0.8,0.3,1.1c0.2,0.2,0.5,0.3,0.8,0.3c0.2,0,0.4,0,0.6-0.1  c0.2-0.1,0.3-0.3,0.4-0.5l1.1,0.3c-0.1,0.4-0.4,0.7-0.7,1C31.8,9.6,31.3,9.8,30.7,9.8z"></path>	<path class="pay-icon02" d="M5.6,1.6L8.1,3l0,3c0,2.2-1.9,4-4.3,4C3.6,10,3.3,10,3,9.9c1.5-0.7,2.5-2.1,2.5-3.8L5.6,1.6L5.6,1.6z"></path>	<path class="pay-icon01" d="M2.5,3.2l2.5,1.4l0,1.4c0,2.2-1.9,4-4.3,4C0.5,10,0.3,10,0,9.9c1.5-0.7,2.5-2.1,2.5-3.8V3.2L2.5,3.2z"></path>	<path class="pay-icon03" d="M8.6,0l2.5,1.4l0,4.6c0,2.2-1.9,4-4.3,4c-0.3,0-0.5,0-0.8-0.1c1.5-0.7,2.5-2.1,2.5-3.8L8.6,0L8.6,0z"></path></g></svg>