<svg xmlns="http://www.w3.org/2000/svg" viewBox="0 0 100 100"><path d="M35,87c-0.4,0-0.8-0.1-1.1-0.3c-2.8-1.4-5.1-3.5-6.8-6.1c-1.7-2.6-2.6-5.6-2.7-8.7c0,0,0-0.1,0-0.1   c0.1-2.9,0.9-5.7,2.3-8.2c1.5-2.5,3.5-4.6,6-6c1.2-0.7,2.7-0.3,3.4,0.9c0.7,1.2,0.3,2.7-0.9,3.4c-1.7,1-3.2,2.5-4.2,4.2   c-1,1.7-1.6,3.7-1.6,5.7c0.1,2.2,0.7,4.3,1.9,6.1c1.2,1.8,2.8,3.3,4.8,4.3c1.2,0.6,1.8,2.1,1.1,3.4C36.9,86.4,36,87,35,87z"></path><path d="M50,63.6c-25.7,0-45.9-11.4-45.9-25.9S24.3,11.7,50,11.7s45.9,11.4,45.9,25.9S75.7,63.6,50,63.6z M50,16.8   c-22.1,0-40.8,9.6-40.8,20.9S27.9,58.5,50,58.5S90.8,49,90.8,37.6S72.1,16.8,50,16.8z"></path><path d="M87.1,52.8c-0.6,0-1.2-0.2-1.7-0.6C78.1,45.6,64.5,41.5,50,41.5c-14.2,0-27.6,4-35.1,10.3c-1.1,0.9-2.6,0.8-3.5-0.3   c-0.9-1.1-0.8-2.6,0.3-3.5c8.4-7.2,22.8-11.6,38.3-11.6c15.9,0,30.4,4.5,38.8,11.9c1,0.9,1.1,2.5,0.2,3.6   C88.5,52.5,87.8,52.8,87.1,52.8z"></path><path d="M50,88.3c-25.7,0-45.9-11.4-45.9-25.9V37.6c0-1.4,1.1-2.5,2.5-2.5s2.5,1.1,2.5,2.5v24.7c0,11.3,18.7,20.9,40.8,20.9   s40.8-9.6,40.8-20.9V37.6c0-1.4,1.1-2.5,2.5-2.5s2.5,1.1,2.5,2.5v24.7C95.9,76.9,75.7,88.3,50,88.3z"></path><path d="M41.5,71.1c0.4,0,0.8,0.1,1.1,0.3c0.3,0.2,0.6,0.5,0.7,0.9c0.1,0.4,0.2,0.7,0.1,1.1c-0.1,0.4-0.3,0.7-0.5,1   c-0.3,0.3-0.6,0.5-1,0.5c-0.4,0.1-0.8,0-1.1-0.1c-0.4-0.1-0.7-0.4-0.9-0.7c-0.2-0.3-0.3-0.7-0.3-1.1c0-0.5,0.2-1,0.6-1.4   C40.5,71.3,41,71.1,41.5,71.1z"></path><path d="M41.5,77.5c-0.6,0-1.2-0.1-1.7-0.3c-0.8-0.3-1.5-0.9-2-1.6c-0.5-0.7-0.8-1.6-0.8-2.5c0-1.2,0.5-2.3,1.3-3.1   c0.8-0.8,2-1.3,3.1-1.3c0.9,0,1.7,0.3,2.5,0.8c0.7,0.5,1.3,1.2,1.6,2c0.3,0.8,0.4,1.7,0.3,2.6c-0.2,0.9-0.6,1.7-1.2,2.3   c-0.6,0.6-1.4,1-2.3,1.2C42.1,77.5,41.8,77.5,41.5,77.5z M41.5,72.5c0,0-0.1,0-0.1,0c-0.1,0-0.2,0.1-0.3,0.2   C41,72.7,41,72.8,41,72.9c0,0.1,0,0.2,0,0.4c0,0.1,0.1,0.2,0.2,0.3c0.2,0.1,0.6,0.1,0.7-0.1c0.1-0.1,0.2-0.3,0.2-0.4   c0-0.1,0-0.2-0.1-0.3c-0.1-0.1-0.2-0.2-0.3-0.2C41.7,72.5,41.6,72.5,41.5,72.5z"></path><path d="M41.5,77.5c-0.6,0-1.2-0.1-1.7-0.3c-0.8-0.3-1.5-0.9-2-1.6c-0.5-0.7-0.8-1.6-0.8-2.5c0-1.2,0.5-2.3,1.3-3.1   c0.8-0.8,2-1.3,3.1-1.3c0.9,0,1.7,0.3,2.5,0.8c0.7,0.5,1.3,1.2,1.6,2c0.3,0.8,0.4,1.7,0.3,2.6c-0.2,0.9-0.6,1.7-1.2,2.3   c-0.6,0.6-1.4,1-2.3,1.2C42.1,77.5,41.8,77.5,41.5,77.5z M41.5,72.5c0,0-0.1,0-0.1,0c-0.1,0-0.2,0.1-0.3,0.2   C41,72.7,41,72.8,41,72.9c0,0.1,0,0.2,0,0.4c0,0.1,0.1,0.2,0.2,0.3c0.2,0.1,0.6,0.1,0.7-0.1c0.1-0.1,0.2-0.3,0.2-0.4   c0-0.1,0-0.2-0.1-0.3c-0.1-0.1-0.2-0.2-0.3-0.2C41.7,72.5,41.6,72.5,41.5,72.5z"></path><path d="M56.5,71.3c0.4,0,0.8,0.1,1.1,0.3c0.3,0.2,0.6,0.5,0.7,0.9c0.1,0.4,0.2,0.7,0.1,1.1c-0.1,0.4-0.3,0.7-0.5,1   c-0.3,0.3-0.6,0.5-1,0.5c-0.4,0.1-0.8,0-1.1-0.1c-0.4-0.1-0.7-0.4-0.9-0.7c-0.2-0.3-0.3-0.7-0.3-1.1c0-0.5,0.2-1,0.6-1.4   C55.5,71.5,55.9,71.3,56.5,71.3z"></path><path d="M56.4,77.7c-0.6,0-1.2-0.1-1.7-0.3c-0.8-0.3-1.5-0.9-2-1.6C52.3,75,52,74.1,52,73.2c0-1.2,0.5-2.3,1.3-3.1   c0.8-0.8,2-1.3,3.1-1.3c0.9,0,1.7,0.3,2.5,0.8c0.7,0.5,1.3,1.2,1.6,2c0.3,0.8,0.4,1.7,0.3,2.6c-0.2,0.9-0.6,1.7-1.2,2.3   c-0.6,0.6-1.4,1-2.3,1.2C57,77.6,56.7,77.7,56.4,77.7z M56.5,72.6c0,0-0.1,0-0.1,0c-0.1,0-0.2,0.1-0.3,0.2   c-0.1,0.1-0.1,0.2-0.2,0.3c0,0.1,0,0.2,0,0.3c0,0.1,0.1,0.2,0.2,0.3c0.2,0.2,0.6,0.1,0.7-0.1c0.1-0.1,0.2-0.3,0.2-0.4   c0-0.1,0-0.2-0.1-0.3c-0.1-0.1-0.2-0.2-0.3-0.2C56.6,72.6,56.5,72.6,56.5,72.6z"></path><path d="M56.4,77.7c-0.6,0-1.2-0.1-1.7-0.3c-0.8-0.3-1.5-0.9-2-1.6C52.3,75,52,74.1,52,73.2c0-1.2,0.5-2.3,1.3-3.1   c0.8-0.8,2-1.3,3.1-1.3c0.9,0,1.7,0.3,2.5,0.8c0.7,0.5,1.3,1.2,1.6,2c0.3,0.8,0.4,1.7,0.3,2.6c-0.2,0.9-0.6,1.7-1.2,2.3   c-0.6,0.6-1.4,1-2.3,1.2C57,77.6,56.7,77.7,56.4,77.7z M56.5,72.6c0,0-0.1,0-0.1,0c-0.1,0-0.2,0.1-0.3,0.2   c-0.1,0.1-0.1,0.2-0.2,0.3c0,0.1,0,0.2,0,0.3c0,0.1,0.1,0.2,0.2,0.3c0.2,0.2,0.6,0.1,0.7-0.1c0.1-0.1,0.2-0.3,0.2-0.4   c0-0.1,0-0.2-0.1-0.3c-0.1-0.1-0.2-0.2-0.3-0.2C56.6,72.6,56.5,72.6,56.5,72.6z"></path><path d="M71.4,68.4c0.4,0,0.8,0.1,1.1,0.3c0.3,0.2,0.6,0.5,0.7,0.9c0.1,0.4,0.2,0.7,0.1,1.1c-0.1,0.4-0.3,0.7-0.5,1   c-0.3,0.3-0.6,0.5-1,0.5c-0.4,0.1-0.8,0-1.1-0.1c-0.4-0.1-0.7-0.4-0.9-0.7c-0.2-0.3-0.3-0.7-0.3-1.1c0-0.5,0.2-1,0.6-1.4   C70.4,68.6,70.8,68.4,71.4,68.4z"></path><path d="M71.4,74.7c-0.6,0-1.2-0.1-1.7-0.3c-0.8-0.3-1.5-0.9-2-1.6c-0.5-0.7-0.7-1.6-0.7-2.5c0-1.2,0.5-2.3,1.3-3.1   c0.8-0.8,2-1.3,3.1-1.3c0.9,0,1.7,0.3,2.5,0.7c0.7,0.5,1.3,1.2,1.6,2c0.3,0.8,0.4,1.7,0.3,2.6c-0.2,0.9-0.6,1.6-1.2,2.3   c-0.6,0.6-1.4,1-2.3,1.2C71.9,74.7,71.6,74.7,71.4,74.7z M71.4,69.7c0,0-0.1,0-0.1,0c-0.1,0-0.2,0.1-0.3,0.2   c-0.1,0.1-0.1,0.2-0.2,0.3c0,0.1,0,0.2,0,0.3c0,0.1,0.1,0.2,0.2,0.3c0.2,0.2,0.6,0.1,0.7-0.1c0.1-0.1,0.2-0.3,0.2-0.4   c0-0.1,0-0.2-0.1-0.3c-0.1-0.1-0.2-0.2-0.3-0.2C71.5,69.7,71.4,69.7,71.4,69.7z"></path><path d="M71.4,74.7c-2.4,0-4.4-2-4.4-4.4s2-4.4,4.4-4.4s4.4,2,4.4,4.4S73.8,74.7,71.4,74.7z M71.4,69.7c-0.3,0-0.6,0.3-0.6,0.6   s0.3,0.6,0.6,0.6s0.6-0.3,0.6-0.6S71.7,69.7,71.4,69.7z"></path></svg>