<svg xmlns="http://www.w3.org/2000/svg" viewBox="0 0 100 100"><path d="M88,83.6H12c-2.9,0-6-1.5-7.8-3.9c-1.4-1.9-1.9-4.2-1.2-6.4L10.1,49c1.1-3.7,2.7-6,5.1-7.2c3.6-1.8,8-0.3,12.1,1.2  c2,0.7,4.1,1.5,5.9,1.8c11.1,1.8,22.4,1.8,33.5,0c1.9-0.3,3.9-1,5.8-1.6c4.4-1.4,9-2.8,12.6-0.9c2.2,1.2,3.7,3.3,4.7,6.6l0,0  L97,73.3c0.6,2.2,0.2,4.5-1.3,6.5C94,82.1,90.9,83.6,88,83.6z M18.9,44.3c-0.8,0-1.6,0.1-2.2,0.5c-1.4,0.7-2.5,2.4-3.3,5.2  L6.3,74.3C5.8,75.8,6.4,77,7,77.7c1.1,1.5,3.2,2.5,5.1,2.5H88c1.9,0,3.9-1,5-2.5c0.6-0.8,1.1-2,0.7-3.5L86.6,50  c-0.7-2.4-1.7-3.9-3-4.6c-2.4-1.3-6.1-0.1-10,1.1c-2.1,0.6-4.2,1.3-6.3,1.7c-11.5,1.9-23.2,1.9-34.7,0c-2.2-0.4-4.4-1.2-6.5-1.9  C23.5,45.2,21,44.3,18.9,44.3z"></path><path d="M88,84.1H12c-3.1,0-6.3-1.6-8.2-4.1c-1.5-2.1-2-4.6-1.3-6.9l7.1-24.3c1.2-3.9,2.9-6.3,5.4-7.5c3.9-2,8.7-0.2,12.5,1.2  l0.8,0.3c1.7,0.6,3.5,1.2,5,1.5c11.1,1.8,22.3,1.8,33.3,0c1.6-0.2,3.2-0.8,4.8-1.3l0.9-0.3c4.3-1.4,9.1-2.9,13-0.9  c2.3,1.3,3.9,3.5,4.9,6.9l7.2,24.4c0.7,2.4,0.2,4.9-1.4,6.9C94.3,82.5,91.1,84.1,88,84.1z M18.9,41.5c-1.2,0-2.4,0.2-3.5,0.8  c-2.2,1.1-3.8,3.3-4.8,6.9L3.5,73.4c-0.6,2-0.2,4.1,1.1,6c1.7,2.2,4.6,3.7,7.4,3.7h76c2.8,0,5.7-1.4,7.3-3.6c1.4-1.8,1.8-4,1.2-6.1  L89.3,49c-1-3.2-2.4-5.2-4.5-6.3c-3.5-1.8-8.1-0.4-12.2,0.9L71.8,44c-1.6,0.5-3.3,1.1-5,1.3c-11.2,1.8-22.5,1.8-33.7,0  c-1.6-0.3-3.4-0.9-5.1-1.5l-0.8-0.3C24.2,42.4,21.4,41.5,18.9,41.5z M88,80.7H12.1c-2.1,0-4.3-1.1-5.5-2.7  c-0.4-0.5-1.4-1.9-0.8-3.9l7.1-24.3c0.8-2.9,2-4.7,3.6-5.5c0.5-0.4,1.3-0.6,2.4-0.6c2.3,0,4.9,1,7.4,2l0.9,0.3  c1.8,0.6,3.7,1.2,5.5,1.6c11.5,1.9,23.1,1.9,34.5,0c1.5-0.3,3.1-0.8,4.7-1.2c0.5-0.2,1.1-0.3,1.6-0.5l0.3-0.1  c3.9-1.2,7.5-2.3,10.1-1c1.4,0.8,2.5,2.4,3.2,4.9l7.1,24.2c0.5,1.8-0.2,3.1-0.8,3.9C92.2,79.6,90,80.7,88,80.7z M18.9,44.8  c-0.9,0-1.5,0.1-1.9,0.4c-1.3,0.7-2.4,2.3-3.1,4.9L6.8,74.4c-0.5,1.4,0.2,2.4,0.6,2.9c1,1.4,2.9,2.3,4.7,2.3H88  c1.7,0,3.6-0.9,4.6-2.3c0.5-0.6,1-1.7,0.6-3.1l-7.1-24.2c-0.6-2.2-1.6-3.7-2.8-4.3c-2.1-1.2-5.6-0.1-9.3,1L73.7,47  c-0.5,0.2-1.1,0.3-1.6,0.5c-1.6,0.5-3.2,0.9-4.8,1.3c-11.6,1.9-23.3,1.9-34.9,0c-1.9-0.4-3.8-1-5.7-1.6l-0.9-0.3  C23.5,45.7,21,44.8,18.9,44.8z"></path><path d="M22.2,44.9C22.1,44.9,22.1,44.9,22.2,44.9c-1.2,0-2.2-0.3-3.2-0.8s-1.9-1.1-2.6-2c-0.7-0.8-1.3-1.8-1.6-2.8  c-0.4-1-0.5-2.1-0.4-3.2c0.1-1.1,0.4-2.2,0.9-3.1c0.5-1,1.2-1.8,2-2.5c0.9-0.7,1.8-1.2,2.9-1.5c0.7-0.2,1.5-0.3,2.2-0.3  c0.3-1.2,0.8-2.3,1.6-3.3c1.1-1.3,2.5-2.2,4.1-2.7s3.3-0.4,4.9,0.1c1.1,0.4,2.1,1,3,1.8c0.6-0.3,1.3-0.5,2-0.6  c0.1-1.3,0.6-2.6,1.4-3.7c1.1-1.6,2.7-2.8,4.6-3.3c1.9-0.5,3.9-0.4,5.6,0.4c1.2,0.6,2.3,1.4,3.1,2.5c1.2-0.4,2.4-0.6,3.6-0.5  c1.3,0.1,2.5,0.5,3.5,1.2c0.7-0.6,1.4-1,2.3-1.3c1.3-0.5,2.8-0.7,4.2-0.5s2.8,0.8,3.9,1.7c0.7,0.6,1.3,1.3,1.8,2.1  c0.7-0.1,1.5-0.1,2.2-0.1c1.2,0.1,2.4,0.5,3.5,1.2c1,0.7,2,1.6,2.6,2.6c0.4,0.7,0.8,1.4,1,2.2c1.6,0.4,3.1,1.4,4.2,2.7  c1.4,1.7,2,3.8,1.8,6s-1.2,4.1-2.9,5.5c-1.7,1.4-3.8,2.1-5.9,1.9c-0.9-0.1-1.6-0.9-1.6-1.8c0.1-0.9,0.9-1.6,1.8-1.6  c1.3,0.1,2.5-0.3,3.5-1.1s1.6-2,1.7-3.2c0.1-1.3-0.3-2.5-1.1-3.5c-0.8-1-1.9-1.6-3.2-1.8c-0.8-0.1-1.4-0.7-1.5-1.5  c-0.1-0.7-0.3-1.4-0.7-2c-0.4-0.6-0.9-1.1-1.5-1.5s-1.3-0.6-2.1-0.7c-0.7-0.1-1.5,0-2.2,0.3c-0.9,0.3-1.8-0.1-2.1-1  c-0.3-0.8-0.8-1.5-1.5-2s-1.5-0.9-2.3-1s-1.7,0-2.5,0.3c-0.8,0.3-1.5,0.8-2,1.5c-0.3,0.4-0.7,0.6-1.2,0.6s-0.9-0.1-1.3-0.5  C58,23,57,22.6,55.9,22.5s-2.2,0.2-3.1,0.7c-0.4,0.3-0.9,0.3-1.4,0.2c-0.5-0.1-0.9-0.5-1.1-0.9c-0.5-1-1.3-1.9-2.4-2.3  c-1-0.5-2.2-0.6-3.3-0.3c-1.1,0.3-2.1,1-2.7,2c-0.6,0.9-0.9,2.1-0.8,3.2c0.1,0.5-0.1,1-0.4,1.3C40.5,26.8,40,27,39.5,27  c-1.1,0-2.1,0.3-3,0.9c-0.7,0.5-1.8,0.4-2.3-0.4c-0.6-0.8-1.4-1.4-2.3-1.7C31,25.5,30,25.5,29,25.7c-1,0.3-1.8,0.8-2.4,1.6  c-0.6,0.8-1,1.7-1.1,2.7c0,0.1,0,0.2,0,0.3c0,0.5-0.2,1-0.6,1.3S24,32.1,23.5,32c-0.2,0-0.3,0-0.5-0.1c-0.7-0.1-1.3,0-2,0.2  c-0.6,0.2-1.2,0.5-1.7,0.9s-0.9,0.9-1.2,1.5c-0.3,0.6-0.5,1.2-0.5,1.9c0,0.6,0,1.3,0.2,1.9c0.2,0.6,0.5,1.2,1,1.7  c0.4,0.5,1,0.9,1.5,1.2c0.6,0.3,1.2,0.4,1.9,0.5c0.9,0,1.7,0.8,1.6,1.8C23.8,44.2,23.1,44.9,22.2,44.9z"></path><path d="M22.2,45.4L22.2,45.4c-1.2,0-2.3-0.3-3.4-0.9c-1.3-0.6-2.1-1.3-2.8-2.1c-0.8-0.9-1.4-1.9-1.7-3c-0.4-1-0.5-2.1-0.4-3.4  c0.1-1.2,0.4-2.4,1-3.3c0.5-0.9,1.2-1.8,2.1-2.6c1-0.8,2-1.3,3.1-1.6c0.6-0.2,1.3-0.3,1.9-0.3c0.3-1.2,0.9-2.2,1.6-3.1  c1.2-1.4,2.6-2.3,4.3-2.9c1.6-0.5,3.4-0.5,5.2,0.1c1.1,0.4,2.1,1,2.9,1.7c0.4-0.2,0.9-0.3,1.5-0.4c0.2-1.2,0.7-2.5,1.5-3.6  c1.2-1.7,2.9-3,4.9-3.5c2.1-0.5,4.2-0.4,5.9,0.4c1.3,0.6,2.3,1.4,3.1,2.4c1.2-0.4,2.4-0.5,3.5-0.4c1.3,0.1,2.4,0.5,3.4,1.1  c0.7-0.5,1.3-0.9,2.2-1.2c1.4-0.5,3-0.7,4.4-0.5c1.5,0.2,3,0.9,4.1,1.8c0.7,0.6,1.2,1.2,1.7,2c0.6-0.1,1.3-0.1,2-0.1  c1.3,0.1,2.6,0.6,3.8,1.3c0.9,0.6,2,1.6,2.8,2.8c0.4,0.6,0.7,1.3,1,2c1.6,0.5,3,1.4,4.2,2.8c1.5,1.8,2.1,4,1.9,6.4  c-0.2,2.3-1.3,4.4-3.1,5.8c-1.8,1.5-4.1,2.2-6.3,2c-1.2-0.1-2.1-1.1-2.1-2.3c0.1-1.2,1.1-2.1,2.3-2.1c1.2,0.1,2.3-0.3,3.2-1  c0.9-0.7,1.4-1.8,1.5-2.9c0.1-1.1-0.3-2.2-1-3.1c-0.7-0.9-1.7-1.4-2.9-1.6c-1-0.1-1.8-0.9-1.9-1.9c-0.1-0.7-0.3-1.3-0.6-1.8  c-0.4-0.5-0.8-1-1.4-1.4c-0.5-0.3-1.1-0.5-1.9-0.6c-0.6-0.1-1.3,0-1.9,0.3c-0.6,0.2-1.2,0.2-1.7-0.1c-0.5-0.2-0.9-0.7-1.1-1.2  c-0.3-0.7-0.7-1.3-1.3-1.8c-0.7-0.5-1.4-0.8-2.1-0.9c-0.7-0.1-1.6,0-2.3,0.3c-0.7,0.3-1.3,0.7-1.8,1.3c-0.4,0.5-1,0.8-1.6,0.8  c-0.5,0-1.1-0.1-1.7-0.6l-0.1-0.1c-0.5-0.8-1.3-1.3-2.4-1.4c-0.9-0.1-1.9,0.1-2.8,0.6c-0.4,0.3-1,0.4-1.7,0.3  c-0.7-0.1-1.2-0.7-1.4-1.2c-0.5-1-1.3-1.7-2.1-2.1c-0.9-0.5-2-0.6-3-0.3c-1,0.3-1.9,0.9-2.4,1.8c-0.6,0.8-0.8,1.9-0.7,2.9  c0.1,0.5-0.1,1.2-0.5,1.6c-0.3,0.5-0.9,0.8-1.6,0.8c-1,0-1.9,0.3-2.7,0.8c-0.5,0.3-1.1,0.5-1.7,0.3c-0.6-0.1-1-0.4-1.3-0.9  c-0.5-0.7-1.2-1.2-2-1.5C31,26,30.1,26,29.1,26.2c-0.9,0.3-1.6,0.7-2.1,1.4c-0.6,0.8-0.9,1.6-1,2.4l0,0.3c0,0.7-0.3,1.3-0.8,1.7  c-0.6,0.4-1.2,0.6-1.8,0.5c-0.1,0-0.3,0-0.5-0.1c-0.6-0.1-1.1,0-1.7,0.2c-0.6,0.2-1.1,0.5-1.5,0.8c-0.4,0.4-0.8,0.8-1.1,1.3  c-0.3,0.6-0.4,1.1-0.4,1.7c0,0.6,0,1.2,0.2,1.7c0.2,0.6,0.5,1.1,0.9,1.5c0.4,0.5,1,0.9,1.4,1.1c0.5,0.2,1,0.3,1.7,0.4  c0.5,0,1.1,0.3,1.5,0.7c0.4,0.5,0.6,1,0.5,1.6C24.3,44.5,23.3,45.4,22.2,45.4z M22.4,29.2c-0.7,0-1.4,0.1-2.1,0.3  c-1,0.3-1.8,0.7-2.7,1.4c-0.8,0.7-1.4,1.5-1.9,2.3c-0.5,0.8-0.8,1.8-0.8,2.9c-0.1,1.1,0,2.1,0.4,3c0.3,0.9,0.8,1.9,1.5,2.7  c0.6,0.8,1.3,1.3,2.4,1.9c1,0.5,2,0.7,3,0.7c0.6,0,1.1-0.5,1.1-0.9c0-0.4-0.1-0.7-0.3-0.9c-0.2-0.2-0.5-0.4-0.8-0.4  c-0.8-0.1-1.5-0.2-2.1-0.6c-0.6-0.3-1.2-0.8-1.7-1.3c-0.5-0.5-0.8-1.1-1.1-1.9c-0.2-0.7-0.2-1.4-0.2-2.1c0-0.7,0.2-1.4,0.6-2.1  c0.3-0.7,0.8-1.2,1.3-1.7c0.5-0.4,1.2-0.8,1.9-1c0.7-0.2,1.4-0.3,2.2-0.2l0.2,0c0.1,0,0.1,0,0.3,0c0.5,0.1,0.9-0.1,1.1-0.3  c0.3-0.2,0.4-0.5,0.4-0.9V30c0.1-1.1,0.5-2.1,1.2-3c0.6-0.9,1.5-1.4,2.7-1.8c1.2-0.2,2.3-0.2,3.2,0.1c1,0.3,1.9,1,2.5,1.9  c0.2,0.3,0.5,0.4,0.7,0.5c0.3,0.1,0.7,0,0.9-0.2c1-0.7,2.1-1,3.3-1c0.3,0,0.7-0.1,0.8-0.3l0.1-0.1c0.2-0.2,0.3-0.5,0.3-0.8  c-0.1-1.3,0.2-2.6,0.9-3.6c0.6-1,1.7-1.9,3-2.2c1.2-0.3,2.6-0.2,3.7,0.3c1.1,0.4,2,1.3,2.6,2.5c0.1,0.2,0.4,0.6,0.8,0.6  c0.5,0.1,0.8,0.1,1-0.1c1.1-0.6,2.3-0.9,3.4-0.8c1.4,0.1,2.4,0.7,3.1,1.8c0.2,0.2,0.5,0.3,0.9,0.3c0.3,0,0.6-0.1,0.8-0.4  c0.5-0.7,1.3-1.3,2.2-1.7c0.9-0.3,1.8-0.4,2.7-0.3c0.8,0.1,1.7,0.5,2.5,1.1c0.8,0.5,1.3,1.3,1.7,2.2c0.1,0.3,0.3,0.5,0.6,0.7  c0.3,0.1,0.6,0.1,0.9,0c0.7-0.3,1.6-0.4,2.4-0.3c1,0.1,1.7,0.4,2.3,0.8c0.7,0.4,1.2,1,1.6,1.6c0.4,0.6,0.7,1.3,0.8,2.2  c0.1,0.6,0.5,1,1.1,1.1c1.5,0.2,2.7,0.9,3.5,2c0.9,1.1,1.3,2.5,1.2,3.9c-0.1,1.4-0.8,2.7-1.9,3.6c-1.1,0.9-2.5,1.3-3.9,1.2  c-0.6,0-1.2,0.5-1.3,1.2c0,0.6,0.5,1.2,1.2,1.2c1.9,0.2,3.9-0.5,5.5-1.8c1.6-1.3,2.5-3.1,2.7-5.2c0.2-2.1-0.4-4.1-1.7-5.6  c-1.1-1.2-2.5-2.2-3.9-2.5l-0.3-0.1l-0.1-0.3c-0.2-0.7-0.6-1.4-0.9-2.1c-0.6-1-1.7-1.9-2.5-2.4c-1-0.6-2.1-1-3.3-1.1  c-0.6,0-1.4,0-2.1,0.1l-0.3,0l-0.2-0.3c-0.5-0.8-1-1.4-1.7-2c-1-0.8-2.3-1.4-3.6-1.6c-1.3-0.2-2.7,0-4,0.5  c-0.9,0.3-1.5,0.6-2.2,1.2l-0.3,0.3L59.5,21c-0.9-0.6-2-1-3.3-1.1c-1.1-0.1-2.2,0.1-3.4,0.5l-0.3,0.1l-0.2-0.3  c-0.7-0.9-1.6-1.7-2.9-2.3c-1.5-0.7-3.4-0.9-5.2-0.4c-1.7,0.5-3.3,1.6-4.3,3.1c-0.8,1-1.2,2.3-1.3,3.5l0,0.4l-0.4,0.1  c-0.7,0.1-1.3,0.3-1.8,0.6l-0.3,0.2L35.7,25c-0.8-0.8-1.8-1.3-2.8-1.7c-1.6-0.5-3.2-0.5-4.6-0.1c-1.5,0.5-2.8,1.3-3.9,2.5  c-0.7,0.9-1.2,1.9-1.5,3.1l-0.1,0.4H22.4z"></path><path d="M79.2,35c-0.2,0-0.4,0-0.6-0.1c-0.9-0.4-1.3-1.3-0.9-2.2c0.2-0.6,0.4-1.2,0.4-1.8c0-0.6-0.1-1.2-0.4-1.8  c-0.2-0.6-0.6-1.1-1-1.5s-0.9-0.8-1.5-1s-1.2-0.4-1.8-0.4l0,0c-0.6,0-1.2,0.1-1.8,0.4c-0.6,0.2-1.1,0.6-1.5,1s-0.8,0.9-1,1.5  c-0.4,0.9-1.3,1.3-2.2,0.9c-0.9-0.4-1.3-1.3-0.9-2.2c0.4-1,1-1.9,1.8-2.6s1.6-1.3,2.6-1.7c1-0.4,2-0.6,3.1-0.6l0,0  c1.1,0,2.1,0.2,3.1,0.6s1.9,1,2.6,1.8c0.8,0.8,1.3,1.6,1.7,2.6c0.4,1,0.6,2,0.6,3.1c0,1.1-0.2,2.1-0.6,3.1  C80.5,34.6,79.9,35,79.2,35z"></path><path d="M79.2,35.5c-0.2,0-0.5,0-0.8-0.2c-0.5-0.2-1-0.7-1.2-1.2c-0.2-0.5-0.2-1.1,0-1.7c0.2-0.5,0.4-1.1,0.4-1.6  c0-0.6-0.1-1.1-0.3-1.6c-0.2-0.5-0.5-0.9-0.9-1.4c-0.4-0.4-0.9-0.7-1.3-0.9c-0.6-0.2-1.1-0.4-1.6-0.4c-0.6,0-1.1,0.1-1.6,0.3  c-0.5,0.2-0.9,0.5-1.4,0.9c-0.4,0.4-0.7,0.9-0.9,1.3c-0.3,0.6-0.7,1-1.2,1.2c-0.5,0.2-1.1,0.2-1.7,0c-0.6-0.2-1-0.7-1.2-1.2  c-0.2-0.5-0.2-1.1,0-1.7c0.4-1.1,1.1-2,1.9-2.8c0.7-0.6,1.6-1.3,2.7-1.8c2.1-0.9,4.4-0.9,6.6,0c1.1,0.4,2.1,1.1,2.8,1.9  c0.8,0.8,1.3,1.6,1.8,2.7c0.4,1.1,0.6,2.1,0.6,3.3s-0.2,2.2-0.6,3.3l-0.1,0.1C80.7,35.1,80,35.5,79.2,35.5z M73.4,25.7  c0.7,0,1.3,0.2,2,0.4c0.6,0.2,1.1,0.6,1.7,1.1c0.6,0.6,0.9,1.1,1.1,1.7c0.3,0.5,0.4,1.2,0.4,2c0,0.7-0.2,1.3-0.4,2  c-0.2,0.4-0.2,0.7-0.1,0.9c0.1,0.3,0.4,0.5,0.7,0.6c0.1,0.1,0.2,0.1,0.4,0.1c0.6,0,1.1-0.4,1.3-0.7C80.8,32.9,81,32,81,31  c0-1-0.2-2-0.6-2.9c-0.4-1-0.9-1.7-1.6-2.4c-0.6-0.7-1.5-1.3-2.4-1.7c-1-0.4-1.9-0.6-2.9-0.6s-2,0.2-2.9,0.6c-1,0.4-1.8,1-2.5,1.6  c-0.7,0.6-1.3,1.4-1.7,2.4c-0.1,0.3-0.2,0.6,0,0.9c0.1,0.3,0.4,0.5,0.7,0.6c0.3,0.1,0.6,0.1,0.9,0c0.3-0.1,0.5-0.4,0.6-0.7  c0.2-0.5,0.5-1.1,1.1-1.7c0.6-0.6,1.1-0.9,1.7-1.1C72,25.8,72.6,25.7,73.4,25.7z"></path><path d="M34,35.6c-0.8,0-1.5-0.6-1.7-1.4c-0.2-1-0.2-2.1,0.1-3.1c0.2-1,0.7-2,1.3-2.9c1.2-1.8,3.1-2.9,5.2-3.3  c2.1-0.4,4.3,0.1,6,1.4c1.8,1.2,2.9,3.1,3.3,5.2c0.2,0.9-0.5,1.8-1.4,1.9c-0.9,0.2-1.8-0.5-2-1.4c-0.2-1.2-0.9-2.3-1.9-3  s-2.3-1-3.5-0.8s-2.3,0.9-3,1.9c-0.4,0.5-0.6,1.1-0.7,1.7c-0.1,0.6-0.2,1.2,0,1.8c0.2,0.9-0.5,1.8-1.4,1.9  C34.2,35.6,34.1,35.6,34,35.6z"></path><path d="M34,36.1c-1,0-1.9-0.7-2.2-1.8c-0.2-0.8-0.3-2.1,0.1-3.4c0.2-0.9,0.6-2,1.4-3c1.2-1.8,3.2-3.1,5.5-3.5  c2.3-0.4,4.6,0.1,6.4,1.5c1.8,1.2,3,3.2,3.5,5.5c0.1,0.5,0,1.1-0.3,1.6c-0.4,0.5-0.9,0.8-1.5,0.9c-1.1,0.2-2.3-0.6-2.5-1.8  c-0.2-1.1-0.8-2.1-1.7-2.7c-0.9-0.6-2.1-0.9-3.1-0.7c-1.1,0.2-2,0.8-2.7,1.7c-0.3,0.4-0.5,0.9-0.6,1.5c-0.1,0.6-0.2,1.1,0,1.6  c0.1,0.6,0,1.2-0.3,1.7c-0.3,0.5-0.8,0.8-1.3,0.9C34.3,36.1,34.1,36.1,34,36.1z M34,35.1v0.5V35.1C34,35.1,34,35.1,34,35.1z   M40.3,25.3c-0.4,0-0.9,0-1.3,0.1c-2.1,0.4-3.8,1.5-4.9,3.1c-0.6,1-1.1,1.9-1.2,2.7c-0.3,0.9-0.3,1.9-0.1,2.9c0.1,0.6,0.6,1,1.2,1  l0.1-0.1l0.2,0c0.3,0,0.6-0.2,0.8-0.5c0.2-0.3,0.2-0.5,0.2-0.8c-0.2-0.7-0.1-1.4,0-2c0.1-0.8,0.4-1.4,0.8-1.9  c0.8-1.1,2-1.9,3.3-2.1c1.3-0.2,2.8,0.1,3.9,0.9c1.1,0.8,1.9,2,2.1,3.3c0.1,0.6,0.8,1.1,1.4,1c0.4,0,0.6-0.2,0.8-0.5  c0.2-0.3,0.2-0.5,0.2-0.8c-0.4-2.1-1.5-3.8-3.1-4.9C43.4,25.8,41.9,25.3,40.3,25.3z"></path></svg>