<svg xmlns="http://www.w3.org/2000/svg" viewBox="0 0 30 7" style="enable-background:new 0 0 30 7;" xml:space="preserve"><style type="text/css">	.pay-icon23{fill:#A81519;}</style><g>	<path class="pay-icon23" d="M8.4,0.7c1.2,0.5,2,1.7,2,3C10.4,5.5,9,7,7.3,7C5.6,7,4.2,5.5,4.2,3.7c0-1.4,0.8-2.6,2-3v1.4  c-0.5,0.4-0.8,1-0.8,1.7c0,1.1,0.9,2,1.9,2c1.1,0,1.9-0.9,1.9-2c0-0.7-0.3-1.3-0.8-1.7L8.4,0.7L8.4,0.7z"></path>	<path d="M4.7,2.8L4.7,2.8c0-0.3-0.1-0.6-0.2-0.9C4.5,1.6,4.3,1.4,4.1,1.2C3.9,1,3.7,0.9,3.4,0.7c-0.3-0.1-0.6-0.2-1-0.2H0v6.3h1.3  V5h1C2.6,5,3,5,3.2,4.9C3.5,4.8,3.8,4.6,4,4.4C4.2,4.3,4.4,4,4.5,3.8C4.7,3.5,4.7,3.2,4.7,2.8L4.7,2.8z M3.4,2.8  c0,0.3-0.1,0.5-0.3,0.7C2.9,3.7,2.7,3.8,2.3,3.8h-1V1.8h1c0.3,0,0.6,0.1,0.8,0.2C3.3,2.2,3.4,2.5,3.4,2.8L3.4,2.8z"></path>	<path d="M25.1,6.9V6.5h-2.9V5.7h-2V4.3h2V3.1h-2V1.8h2V1H25V0.6h-6.1v6.3H25.1z"></path>	<path d="M30,6.9l-1.5-2.3c0.4-0.2,0.7-0.4,0.9-0.7c0.2-0.3,0.4-0.7,0.4-1.2v0c0-0.7-0.2-1.2-0.6-1.5c-0.4-0.4-0.9-0.6-1.7-0.6h-2.7  v2.8h1.3V1.8h1.3c0.3,0,0.6,0.1,0.8,0.2c0.2,0.2,0.3,0.4,0.3,0.7v0c0,0.3-0.1,0.5-0.3,0.6c-0.2,0.2-0.4,0.2-0.7,0.2h-2.6v3.2h1.3  v-2h1l1.3,2H30L30,6.9z"></path>	<path class="pay-icon23" d="M6.7,0h1.2v4.7H6.7V0z"></path>	<path class="pay-icon23" d="M14.9,6.9l1-1.8l-2.6-3.3l1.2,0l-0.5-1.2h-2.6l1.7,3.2L14.9,6.9L14.9,6.9z M15.9,5.1l0.7-1.3l1.7-3.2h-2.9  l0.8,2.3H15L15.9,5.1L15.9,5.1z"></path>	<path d="M12.7,6.9l0.7-1.3l-1.1-1.9l-1.7-3.2H9.3L11,3.8L12.7,6.9z"></path></g></svg>