<svg xmlns="http://www.w3.org/2000/svg" viewBox="0 0 25 25" style="enable-background:new 0 0 25 25;" xml:space="preserve"><path d="M12.5,11.3c-3,0-5.4-2.4-5.4-5.4s2.4-5.4,5.4-5.4s5.4,2.4,5.4,5.4S15.5,11.3,12.5,11.3z M12.5,2c-2.1,0-3.9,1.7-3.9,3.9 s1.7,3.9,3.9,3.9s3.9-1.7,3.9-3.9S14.6,2,12.5,2z M18.7,24.5H6.3c-1,0-2-0.4-2.7-1.1c-0.7-0.7-1.1-1.7-1.1-2.7v-1.5 c0-1.9,0.7-3.6,2-4.9c1.3-1.3,3-2,4.9-2h6.2c1.8,0,3.6,0.7,4.9,2c1.3,1.3,2,3.1,2,4.9v1.5c0,1-0.4,2-1.1,2.7 C20.6,24.1,19.7,24.5,18.7,24.5z M9.4,13.7c-1.4,0-2.8,0.6-3.8,1.6c-1,1-1.6,2.4-1.6,3.8v1.5c0,0.6,0.2,1.2,0.7,1.6 c0.4,0.4,1,0.7,1.6,0.7h12.3c0.6,0,1.2-0.2,1.6-0.7c0.4-0.4,0.7-1,0.7-1.6v-1.5c0-1.5-0.6-2.8-1.6-3.8c-1-1-2.4-1.6-3.8-1.6H9.4z"></path></svg>