<svg xmlns="http://www.w3.org/2000/svg" viewBox="0 0 25 11" style="enable-background:new 0 0 25 11;" xml:space="preserve"><style type="text/css">	.pay-icon13{fill:#FFC826;}	.pay-icon14{fill:#FF6438;}	.pay-icon15{opacity:0.5;fill:url(#pay-grd-clr-1);enable-background:new    ;}	.pay-icon16{fill:#CF213C;}	.pay-icon17{opacity:0.6;fill:url(#pay-grd-clr-2);enable-background:new    ;}	.pay-icon18{fill:url(#pay-grd-clr-3);}	.pay-icon19{fill:#FFFFFF;}	.pay-icon20{opacity:0.5;fill:url(#pay-grd-clr-4);enable-background:new    ;}	.pay-icon21{opacity:0.8;fill:url(#pay-grd-clr-5);enable-background:new    ;}	.pay-icon22{fill:url(#pay-grd-clr-6);}</style><g>	<path class="pay-icon13" d="M25,5.5c0,3-2.5,5.5-5.6,5.5c-1.3,0-2.5-0.4-3.5-1.2c-1.3-1-2.1-2.6-2.1-4.3c0-1.7,0.8-3.3,2.1-4.3  c1-0.7,2.2-1.2,3.5-1.2C22.5,0,25,2.5,25,5.5z"></path>	<path class="pay-icon14" d="M18.1,5.5c0,3-2.5,5.5-5.6,5.5C11.2,11,10,10.6,9,9.8c-1.3-1-2.1-2.6-2.1-4.3c0-1.7,0.8-3.3,2.1-4.3  C10,0.4,11.2,0,12.5,0C15.6,0,18.1,2.5,18.1,5.5z"></path>			<radialGradient id="pay-grd-clr-1" cx="-16.7294" cy="19.6161" r="1" gradientTransform="matrix(4.2762 0 0 -4.2159 80.0184 85.6014)" gradientUnits="userSpaceOnUse">		<stop offset="0" style="stop-color:#CF213C"></stop>		<stop offset="1" style="stop-color:#FFFFFF"></stop>	</radialGradient>	<path class="pay-icon15" d="M12.5,0C11.2,0,10,0.4,9,1.2L6.9,5.5h11.2C18.1,2.5,15.6,0,12.5,0z"></path>	<path class="pay-icon16" d="M5.6,11c3.1,0,5.6-2.5,5.6-5.5c0-3-2.5-5.5-5.6-5.5C2.5,0,0,2.5,0,5.5C0,8.5,2.5,11,5.6,11z"></path>			<radialGradient id="pay-grd-clr-2" cx="-26.2706" cy="23.3839" r="1" gradientTransform="matrix(-4.2762 0 0 4.2159 -102.7392 -90.4862)" gradientUnits="userSpaceOnUse">		<stop offset="0" style="stop-color:#30080E"></stop>		<stop offset="1" style="stop-color:#FFFFFF"></stop>	</radialGradient>	<path class="pay-icon17" d="M5.6,11c1.3,0,2.5-0.4,3.5-1.2l2.1-4.3H0C0,8.5,2.5,11,5.6,11z"></path>			<linearGradient id="pay-grd-clr-3" gradientUnits="userSpaceOnUse" x1="9.0395" y1="3.1861" x2="9.0395" y2="11.814" gradientTransform="matrix(1 0 0 -1 0 13)">		<stop offset="0.15" style="stop-color:#FF6438"></stop>		<stop offset="0.85" style="stop-color:#CF213C"></stop>	</linearGradient>	<path class="pay-icon18" d="M6.9,5.5c0-1.7,0.8-3.3,2.1-4.3c1.3,1,2.1,2.6,2.1,4.3c0,1.8-0.8,3.3-2.1,4.3C7.7,8.8,6.9,7.2,6.9,5.5z"></path>	<path class="pay-icon19" d="M6.9,7.9L6,6.6h-1v1.3H3.8V3.2h2.1c0.4,0,0.8,0.1,1.1,0.2C7.3,3.5,7.6,3.7,7.7,4C7.9,4.2,8,4.5,8,4.9  S7.9,5.5,7.7,5.8C7.5,6,7.3,6.2,7,6.4l1.1,1.5L6.9,7.9L6.9,7.9z M6.6,4.3C6.4,4.1,6.2,4,5.8,4H4.9v1.6h0.9c0.3,0,0.6-0.1,0.8-0.2  c0.2-0.1,0.3-0.3,0.3-0.6C6.9,4.6,6.8,4.4,6.6,4.3z"></path>	<path class="pay-icon19" d="M8.2,8H6.8L5.9,6.6H5V8H3.7V3.1h2.2c0.4,0,0.8,0.1,1.1,0.2c0.3,0.1,0.6,0.4,0.8,0.6c0.2,0.3,0.3,0.6,0.3,1  S8,5.6,7.8,5.8C7.6,6.1,7.4,6.3,7.1,6.4L8.2,8L8.2,8z M6.9,7.8h1l-1-1.5l0.1,0C7.3,6.2,7.5,6,7.6,5.7c0.2-0.2,0.2-0.5,0.2-0.9  c0-0.3-0.1-0.6-0.2-0.9C7.5,3.8,7.3,3.6,7,3.4C6.7,3.3,6.3,3.2,5.9,3.2h-2v4.6h0.9V6.5H6L6.9,7.8L6.9,7.8z M5.8,5.8h-1V4h1  C6.2,4,6.5,4,6.7,4.2c0.2,0.2,0.3,0.4,0.3,0.7c0,0.3-0.1,0.5-0.3,0.7C6.5,5.7,6.2,5.8,5.8,5.8z M5,5.6h0.8c0.3,0,0.5-0.1,0.7-0.2  c0.2-0.1,0.2-0.3,0.2-0.5c0-0.2-0.1-0.4-0.2-0.5C6.4,4.2,6.1,4.1,5.8,4.1H5V5.6z"></path>			<radialGradient id="pay-grd-clr-4" cx="-16.7294" cy="19.6161" r="1" gradientTransform="matrix(4.2762 0 0 -4.2159 86.9396 85.6014)" gradientUnits="userSpaceOnUse">		<stop offset="0" style="stop-color:#A17E18"></stop>		<stop offset="1" style="stop-color:#FFFFFF"></stop>	</radialGradient>	<path class="pay-icon20" d="M19.4,0c-1.3,0-2.5,0.4-3.5,1.2l-2.1,4.3H25C25,2.5,22.5,0,19.4,0L19.4,0z"></path>			<radialGradient id="pay-grd-clr-5" cx="-26.2706" cy="23.3839" r="1" gradientTransform="matrix(-4.2762 0 0 4.2159 -95.8165 -90.4862)" gradientUnits="userSpaceOnUse">		<stop offset="0" style="stop-color:#821526"></stop>		<stop offset="1" style="stop-color:#FFFFFF"></stop>	</radialGradient>	<path class="pay-icon21" d="M12.5,11c1.3,0,2.5-0.4,3.5-1.2l2.1-4.3H6.9C6.9,8.5,9.4,11,12.5,11L12.5,11z"></path>			<linearGradient id="pay-grd-clr-6" gradientUnits="userSpaceOnUse" x1="15.9623" y1="11.814" x2="15.9623" y2="3.1861" gradientTransform="matrix(1 0 0 -1 0 13)">		<stop offset="0.15" style="stop-color:#FF6438"></stop>		<stop offset="0.3" style="stop-color:#FF7F33"></stop>		<stop offset="0.54" style="stop-color:#FFA62B"></stop>		<stop offset="0.73" style="stop-color:#FFBF27"></stop>		<stop offset="0.85" style="stop-color:#FFC826"></stop>	</linearGradient>	<path class="pay-icon22" d="M18.1,5.5c0,1.7-0.8,3.3-2.1,4.3c-1.3-1-2.1-2.6-2.1-4.3c0-1.7,0.8-3.3,2.1-4.3C17.3,2.2,18.1,3.7,18.1,5.5z"></path>	<path class="pay-icon19" d="M21,7.9l0-2.8l-1.4,2.3H19l-1.4-2.3v2.8h-1V3.2h0.9l1.8,2.9l1.8-2.9H22l0,4.7H21z"></path>	<path class="pay-icon19" d="M22.1,8h-1.2l0-2.6l-1.3,2.1H19l-1.3-2.1V8h-1.2V3.1h1.1l1.7,2.9L21,3.1h1L22.1,8L22.1,8z M21,7.8h0.9l0-4.6  h-0.8l-1.8,3l-1.8-3h-0.8v4.6h0.9v-3l1.5,2.5h0.4L21,4.7L21,7.8z"></path>	<path class="pay-icon19" d="M13.6,6.9h-2.2l-0.4,1H9.8l2.1-4.7H13l2.1,4.7H14L13.6,6.9L13.6,6.9z M13.2,6l-0.8-1.8L11.7,6H13.2L13.2,6z"></path>	<path class="pay-icon19" d="M15.3,8h-1.4l-0.4-1h-2.1L11,8H9.7l2.2-4.9h1.2L15.3,8L15.3,8z M14.1,7.8h1L13,3.2h-1L9.9,7.8h0.9l0.4-1h2.3  L14.1,7.8L14.1,7.8z M13.4,6.1h-1.8L12.5,4L13.4,6.1L13.4,6.1z M11.8,5.9h1.3l-0.6-1.5L11.8,5.9L11.8,5.9z"></path></g></svg>