<svg xmlns="http://www.w3.org/2000/svg" viewBox="0 0 100 100"><path d="M1.4,45.6c15.5-5.9,35-4.5,51.5-4.4c3.2,0,6.4,0,9.6,0.1c-4.5-2.6-10.9-5.2-9.8-10.9c0.7-3.9,4.9-5.9,9.2-5.3 c3.8,0.6,8.1,3.6,11.4,5.3c4.2,2.1,8.4,4.2,12.5,6.6c3.2,1.8,6.5,3.5,8.8,6c1.2,0.6,2.5,1.4,3.8,2.6c1.7,1.5,2.4,4.5,0.4,6.1 c-0.7,0.5-1.3,1-1.9,1.4c-1,2.8-3.4,5.1-6.3,7.1C83,65.3,74.9,70,66.7,74.3c-5.9,3-13.4-3.8-8.1-8.4c3-2.6,5.9-5.3,9.1-7.7 c0.9-0.7,2.1-1.7,3.3-2.7c-6.5-0.2-13-0.3-19.6-0.4C35.2,54.5,16.1,55.2,1.1,49C-0.6,48.2-0.2,46.2,1.4,45.6z"></path></svg>