<svg xmlns="http://www.w3.org/2000/svg" viewBox="0 0 20 25" style="enable-background:new 0 0 20 25;" xml:space="preserve"><path d="M18.4,7.3c0-0.5-0.3-1-0.6-1.3c-0.4-0.3-0.9-0.5-1.4-0.5h-1.8V7h1.8c0.1,0,0.2,0,0.3,0.1c0.1,0.1,0.1,0.2,0.2,0.3L18,21.1 c0,0.2,0,0.5-0.1,0.7c-0.1,0.2-0.2,0.4-0.4,0.6c-0.2,0.2-0.4,0.3-0.6,0.4c-0.2,0.1-0.4,0.1-0.7,0.1H3.9c-0.2,0-0.5,0-0.7-0.1 c-0.2-0.1-0.4-0.2-0.6-0.4c-0.2-0.2-0.3-0.4-0.4-0.6c-0.1-0.2-0.1-0.5-0.1-0.7L3.2,7.5c0-0.1,0.1-0.2,0.2-0.3C3.5,7.1,3.6,7,3.7,7 h1.8V5.5H3.7C3.2,5.4,2.7,5.7,2.4,6C2,6.4,1.7,6.8,1.7,7.3L0.6,21c0,0.4,0,0.9,0.2,1.3c0.2,0.4,0.4,0.8,0.7,1.1 c0.3,0.3,0.7,0.6,1.1,0.8c0.4,0.2,0.8,0.3,1.3,0.3h12.4c0.5,0,0.9-0.1,1.3-0.3c0.4-0.2,0.8-0.4,1.1-0.8c0.3-0.3,0.6-0.7,0.7-1.1 c0.2-0.4,0.2-0.9,0.2-1.3L18.4,7.3z M13,5.5h-6V7h6V5.5z M5.5,7v3c0,0.4,0.3,0.8,0.8,0.8c0.4,0,0.8-0.3,0.8-0.8V7H5.5z M13,7v3 c0,0.4,0.3,0.8,0.8,0.8c0.4,0,0.8-0.3,0.8-0.8V7H13z M7.1,5.5V7h6V5.5H7.1z M14.3,2.5c-0.2-0.4-0.4-0.8-0.7-1.1 c-0.3-0.3-0.7-0.6-1.1-0.7c-0.4-0.2-0.8-0.2-1.2-0.2H8.8c-0.9,0-1.7,0.3-2.3,1c-0.6,0.6-1,1.4-1,2.3v1.7h1.5V3.8 c0-0.4,0.2-0.9,0.5-1.2C7.9,2.2,8.4,2,8.8,2h2.5c0.2,0,0.4,0,0.7,0.1c0.2,0.1,0.4,0.2,0.6,0.4c0.2,0.2,0.3,0.3,0.4,0.6 C13,3.3,13,3.5,13,3.8v1.7h1.5V3.8C14.6,3.3,14.5,2.9,14.3,2.5z M13,7v3c0,0.4,0.3,0.8,0.8,0.8c0.4,0,0.8-0.3,0.8-0.8V7H13z  M14.6,5.5V7H13V5.5H14.6z M7.1,5.5V7H5.5V5.5H7.1z"></path></svg>