<svg xmlns="http://www.w3.org/2000/svg" viewBox="0 0 100 100"><path d="M84,45.4c-4-1.6-8-2.9-12.1-4c-2.1-0.5-4.2-1-6.3-1.3c-1.1-0.2-3.2-0.8-2.7,0.1c-1.7-2.9-2.4-7-3.3-10.2 c-2.4-8.1-4.9-16.3-6.6-24.6c-0.2-0.9-0.8-1.3-1.4-1.4c0,0-0.1,0-0.1,0c-0.1,0-0.2,0-0.3,0h-0.5c-0.8,0-1.7,0.6-1.9,1.4 c-1.8,8.2-4.9,16.2-7.5,24.1c-1.2,3.5-2.2,7.2-3.9,10.4c0.1-0.2-0.5-0.3-1.6-0.1c-2.1,0.3-4.2,0.7-6.3,1.2c-4.6,1-9.1,2.6-13.4,4.3 c-1.5,0.6-2.1,2.6-0.5,3.6c4.8,2.9,10.2,4.7,15.5,6.6c2.4,0.8,4.8,1.8,7.2,2.6c1.1,0.4,2.2,0.7,2.8,1.8c0.6,1.2,0.7,2.9,1,4.1 c0.6,3.2,1,6.4,1.6,9.6c1.4,7,3.3,13.9,4.6,20.8c0.3,1.9,3.4,1.9,3.8,0c1.1-6.5,2.9-12.9,4.3-19.3C57.2,70.4,57,64.6,59,60 c1-2.2,6.8-3.1,8.8-3.9c5.7-2.2,11.6-3.9,16.8-7.1C86.1,48.1,85.6,46.1,84,45.4L84,45.4z"></path></svg>