<svg xmlns="http://www.w3.org/2000/svg" x="0px" y="0px" viewBox="0 0 200 120" style="enable-background:new 0 0 200 120;" xml:space="preserve"><g>	<path d="M141.3,51.8c-1.8-3.1-4.4-5.6-7.5-7.2c-1.3-0.7-2.8-1.1-4.3-1.1c-1.5,0-3,0.3-4.3,1c-1.3,0.7-2.5,1.7-3.3,2.9  c-0.9,1.2-1.4,2.7-1.6,4.2c-1.2,7.3,4.3,16.4,11.4,18.7C143.1,73.6,146.6,60.4,141.3,51.8z"></path>	<path d="M132.7,79.6c-1.2-2.1-2.8-3.9-4.7-5.3c-1.9-1.4-4.1-2.4-6.4-3c-1.2-0.3-2.4-0.3-3.5,0c-1.1,0.3-2.2,0.8-3.1,1.6  c-0.9,0.8-1.6,1.8-2,2.9c-0.4,1.1-0.6,2.3-0.5,3.5c0.5,8.3,10.6,17.9,18.7,13.8C135.9,90.2,135.6,84.3,132.7,79.6z"></path>	<path d="M186.8,70c-5.7-1.4-12-2.9-19.8-4.7c-4.8-1.1-9.8-0.4-14.1,2c-4.2,2.4-7.3,6.3-8.7,10.9c-2.4,7.7-4.3,14.1-6,20  c-3.8,11.8,10.4,22.4,20.7,16c4.4-2.7,7.3-6.7,11.2-9.9c3.8-3.1,8.3-4.5,13.8-6c2.8-0.5,5.5-1.6,8-3.2  C201.4,88.6,198.2,72.2,186.8,70z"></path>	<path d="M172.9,40.5c-3.2,5.9-1.5,13.1,2.8,18.2c5,6.1,13.8,4.2,14.8-4.4c0.5-3.6-0.2-7.3-2-10.5C185.3,37.2,177.2,33.8,172.9,40.5  z"></path>	<path d="M164,38.7c-5.1-9.7-18.9-12.3-21.1,0.2C142,46.1,147.2,54.6,154,57C165.6,60.8,169.5,47.2,164,38.7z"></path>	<path d="M31.4,25.3c-1.7-3.1-4.4-5.6-7.5-7.2C22.5,17.4,21,17,19.5,17c-1.5,0-3,0.3-4.3,1c-1.3,0.7-2.5,1.7-3.3,2.9  c-0.9,1.2-1.4,2.7-1.6,4.2c-1.2,7.3,4.3,16.4,11.4,18.7C33.1,47.1,36.7,33.9,31.4,25.3z"></path>	<path d="M22.8,53.1c-1.2-2.1-2.8-3.9-4.7-5.3c-1.9-1.4-4.1-2.4-6.4-3c-1.2-0.3-2.4-0.3-3.5,0c-1.1,0.3-2.2,0.8-3.1,1.6  c-0.9,0.8-1.6,1.8-2,2.9c-0.4,1.1-0.6,2.3-0.5,3.5C3,61.1,13.1,70.8,21.2,66.7C26,63.8,25.6,57.8,22.8,53.1z"></path>	<path d="M76.9,43.5c-5.7-1.4-12-2.9-19.8-4.7c-4.8-1.1-9.8-0.4-14.1,2c-4.2,2.4-7.3,6.3-8.7,10.9c-2.4,7.7-4.3,14.1-6,20  c-3.8,11.8,10.4,22.4,20.7,16c4.4-2.7,7.3-6.7,11.2-9.9c3.8-3.1,8.3-4.5,13.8-6c2.8-0.5,5.5-1.6,8-3.2  C91.5,62.1,88.3,45.7,76.9,43.5z"></path>	<path d="M62.9,14.1c-3.2,5.9-1.5,13.1,2.8,18.2c5,6.1,13.8,4.2,14.8-4.4c0.4-3.6-0.2-7.3-2-10.5C75.3,10.7,67.2,7.3,62.9,14.1z"></path>	<path d="M54.1,12.2C49,2.5,35.2-0.1,33,12.4c-0.9,7.2,4.3,15.7,11.1,18.1C55.6,34.4,59.6,20.8,54.1,12.2z"></path></g></svg>