
<svg xmlns="http://www.w3.org/2000/svg"
	 viewBox="0 0 360 100" style="enable-background:new 0 0 360 100;" xml:space="preserve">
<style type="text/css">
	.logo_light{fill:#FFFFFF;}
</style>
<g>
	<g>
		<path class="logo_light" d="M342.5,78.2c-0.4,0.1-0.8,0.1-1.2,0.2c-0.4,0-0.8,0.1-1.2,0.1c-0.7,0.1-1.3,0-1.7-0.2
			c-0.5-0.3-0.8-0.7-0.9-1.1c0-0.4,0.2-0.8,0.6-1.2c0.5-0.4,0.9-0.7,1.4-0.9c0.4-0.2,0.8-0.4,1.3-0.5c0.5-0.2,0.9-0.3,1.4-0.4
			c0.4-0.1,0.7-0.3,0.9-0.5c0.2-0.2,0.4-0.6,0.5-1c0.2-0.9,0.4-1.7,0.7-2.7c0.3-0.9,0.7-1.8,1.1-2.7c0.5-0.9,1-1.6,1.6-2.3
			c0.6-0.7,1.4-1.3,2.1-1.8c0.5-0.3,1.1-0.5,1.6-0.7c0.6-0.2,1.2-0.2,1.8-0.1c0.9,0.3,1.7,0.8,2.3,1.6c0.6,0.7,1,1.7,1.2,2.7
			c0.1,0.7,0.1,1.5,0,2.2c-0.1,0.7-0.2,1.4-0.4,2.1c-0.2,0.5-0.2,0.8-0.2,0.9c0.1,0.1,0.4,0.2,0.9,0.3c0.6,0.2,1.2,0.4,1.7,0.8
			c0.5,0.3,1,0.8,1.4,1.3c0.7,0.9,0.9,1.8,0.6,2.7c-0.3,0.9-1.1,1.4-2.3,1.6c-0.6,0.1-1.3,0.2-1.9,0.1c-0.6-0.1-1.1-0.2-1.7-0.4
			c-0.6-0.1-1-0.2-1.2-0.1c-0.1,0.1-0.3,0.4-0.5,1c-0.9,2.4-1.4,4.8-1.5,7.3c-0.1,2.4,0.2,4.8,1,7.3c0.1,0.4,0.2,0.7,0.3,1.1
			c0.1,0.3,0.1,0.7,0.1,1.1c0,0.8-0.2,1.4-0.7,2c-0.5,0.6-1.1,0.8-1.9,0.8c-0.6,0-1.3-0.3-1.9-0.9c-0.3-0.3-0.6-0.6-0.8-0.9
			c-0.2-0.3-0.5-0.6-0.7-0.9c-1.5-2.4-2.5-4.9-3.2-7.5c-0.6-2.6-0.8-5.3-0.6-8.1c0-0.4,0.1-0.7,0.1-1.1
			C342.6,79,342.5,78.6,342.5,78.2z"/>
		<path class="logo_light" d="M317.4,70.6c0.6-0.7,1.2-1.4,1.9-2c0.7-0.7,1.5-1.2,2.3-1.7c0.8-0.5,1.6-0.9,2.5-1.2c0.9-0.3,1.8-0.4,2.8-0.4
			c1.8,0,3.4,0.5,4.7,1.6c1.4,1.1,2.3,2.6,2.8,4.5c0.5,1.9,0.6,3.7,0.1,5.3c-0.4,1.6-1.2,3.2-2.4,4.7c-0.5,0.6-1.1,1.2-1.9,1.6
			c-0.7,0.4-1.5,0.7-2.4,0.7c-0.8,0-1.4-0.1-2-0.4c-0.5-0.3-0.9-0.8-1.2-1.3c-0.3-0.5-0.5-1.1-0.6-1.7c-0.1-0.6-0.2-1.3-0.2-1.9
			c0-0.4,0-0.9,0.1-1.3c0-0.5,0-1-0.1-1.4c-0.2-1.4-0.8-2.1-2-2.1c-0.5,0-1,0.1-1.4,0.3c-0.5,0.2-0.9,0.5-1.3,0.8
			c-0.4,0.3-0.8,0.7-1.1,1.1c-0.3,0.4-0.6,0.8-0.8,1.2c-1.6,2.5-2.5,5-2.7,7.5c-0.2,2.5,0.2,5.1,1.2,7.8c0.2,0.5,0.4,0.9,0.6,1.4
			c0.2,0.4,0.4,0.9,0.6,1.4c0.3,0.7,0.4,1.2,0.3,1.6c0,0.4-0.2,0.7-0.6,0.9c-0.3,0.2-0.6,0.3-1,0.3c-0.6,0-1.2-0.3-1.9-0.8
			c-0.7-0.5-1.4-1.2-2-1.9c-0.6-0.7-1.2-1.5-1.7-2.2c-0.5-0.8-0.8-1.4-1.1-1.8c-1.8-3.4-2.9-7.1-3.5-11c-0.2-1.6-0.3-3.2-0.3-4.7
			c0-1.6,0.2-3.1,0.6-4.7c0.2-0.8,0.5-1.6,0.8-2.5c0.4-0.9,0.9-1.7,1.5-2.5c0.6-0.8,1.2-1.4,2-1.9c0.8-0.5,1.7-0.8,2.6-0.8
			c0.8,0,1.5,0.2,2,0.6c0.6,0.4,1,0.9,1.4,1.4c0.4,0.6,0.7,1.2,0.8,2s0.3,1.4,0.3,2.1c0,0.3,0,0.5,0,0.8
			C317.3,70,317.3,70.3,317.4,70.6z"/>
		<path class="logo_light" d="M291.3,81.4c0.2-0.5,0.4-1.1,0.4-1.7c0.1-0.6,0.2-1.2,0.2-1.8c0.1-0.9,0.2-1.7,0.2-2.6c0-2.4-0.5-4.7-1.4-7
			c-0.5-1.2-1.3-1.7-2.4-1.7c-0.2,0-0.5,0-0.7,0.1c-0.7,0.1-1.3,0.5-1.7,1.1c-0.1,0.1-0.2,0.2-0.3,0.3c-0.1,0.1-0.2,0.2-0.3,0.3
			l-1,1.4c-0.9,1.1-1.9,2-3.1,2.9c-1.2,0.8-2.5,1.2-3.9,1.2c-0.5,0-0.9-0.1-1.3-0.2c-0.4-0.1-0.8-0.4-1.1-0.8
			c-0.6-0.6-0.9-1.1-0.9-1.5c0-0.4-0.1-0.7-0.1-0.8c0-0.6,0.1-1.1,0.3-1.7c0.3-1,0.9-1.8,1.6-2.6c0.8-0.8,1.7-1.5,2.7-2.1
			c1-0.6,2-1.1,3.1-1.4c1.1-0.4,2.1-0.6,3-0.7c0.4,0,0.7-0.1,1.1-0.1c1.5,0,3,0.4,4.3,1.1c1.4,0.7,2.8,1.7,4,3.1
			c1,1.2,1.9,2.5,2.7,4c0.8,1.5,1.5,3.1,2.1,4.8c0.6,1.7,1,3.4,1.4,5.1c0.3,1.7,0.5,3.3,0.6,4.8c0,0.4,0.1,0.8,0.1,1.2
			c0,0.9-0.1,2-0.2,3.1c-0.2,1.1-0.5,2.3-1.1,3.6c-1.2,2.6-3.1,4.4-5.8,5.5c-3,1.2-6.1,1.8-9.3,1.8c-0.8,0-1.7,0-2.5-0.1
			c-2.7-0.2-5.1-1.1-7.3-2.6c-1.2-0.8-2.1-1.7-2.9-2.8c-0.7-1.1-1.2-2.1-1.4-3.1c-0.2-1-0.3-1.8-0.3-2.5c0-0.6,0.1-1.4,0.3-2.3
			s0.7-2,1.4-3.2c1.2-1.9,2.8-3.3,4.8-4.3c2-1.1,4.1-1.6,6.2-1.6c1.5,0,3,0.3,4.5,0.9c1.5,0.6,2.7,1.5,3.7,2.8
			c0,0.1,0.1,0.1,0.1,0.2c0,0,0.1,0,0.2,0.1H291.3z M282.5,85.5c-0.1-0.6-0.3-1.1-0.5-1.4c-0.2-0.3-0.5-0.5-0.8-0.5c0,0-0.1,0-0.2,0
			c-0.5,0.1-0.8,0.4-1,0.8c-0.2,0.4-0.3,0.9-0.3,1.3c0,0.1,0,0.3,0,0.4c0.1,0.6,0.3,1,0.6,1.4c0.3,0.3,0.7,0.5,1,0.5
			c0,0,0.1,0,0.2,0c0.4-0.1,0.7-0.3,0.8-0.7c0.2-0.4,0.2-0.8,0.2-1.2C282.5,86,282.5,85.7,282.5,85.5z M286.7,85.6
			c-0.1-0.6-0.3-1-0.6-1.3c-0.3-0.3-0.5-0.5-0.8-0.5c0,0-0.1,0-0.2,0c-0.4,0.1-0.7,0.3-0.9,0.7c-0.2,0.4-0.3,0.7-0.3,1.1
			c0,0.2,0,0.4,0.1,0.6c0.2,1,0.6,1.4,1.3,1.4c0.1,0,0.2,0,0.2,0c0.4-0.1,0.7-0.3,0.9-0.6c0.2-0.3,0.3-0.7,0.3-1.1
			C286.7,85.9,286.7,85.7,286.7,85.6z M279.3,88.5c-0.1-0.7-0.3-1.2-0.7-1.6c-0.4-0.4-0.8-0.6-1.2-0.6c-0.1,0-0.2,0-0.2,0
			c-0.4,0.1-0.6,0.2-0.8,0.5c-0.2,0.3-0.2,0.5-0.2,0.8c0,0.1,0,0.2,0.1,0.3c0.1,0.7,0.4,1.3,0.7,1.7c0.4,0.4,0.8,0.6,1.2,0.6
			c0.1,0,0.2,0,0.2,0c0.3-0.1,0.6-0.2,0.7-0.5c0.2-0.3,0.2-0.6,0.2-0.9C279.4,88.8,279.4,88.6,279.3,88.5z M288.5,86.6
			c-0.5,0.1-0.9,0.4-1.2,0.9c-0.3,0.5-0.4,0.9-0.4,1.4c0,0.1,0,0.2,0,0.3c0.1,0.3,0.2,0.5,0.4,0.7c0.2,0.2,0.4,0.3,0.6,0.3
			c0,0,0.1,0,0.2-0.1c0.5-0.1,0.9-0.4,1.2-0.8c0.3-0.5,0.5-1,0.5-1.4c0-0.1,0-0.2,0-0.3c-0.1-0.3-0.2-0.6-0.5-0.7
			c-0.2-0.1-0.4-0.2-0.6-0.2C288.6,86.6,288.6,86.6,288.5,86.6z M278.7,93c0.2,0.8,0.6,1.3,1.4,1.7c0.8,0.3,1.6,0.4,2.4,0.4
			c0.4,0,0.8,0,1.2-0.1c1.2-0.2,2.1-0.6,2.8-1.2c0.6-0.6,1-1.3,1-2c0-0.1,0-0.2,0-0.3c-0.1-0.4-0.2-0.8-0.5-0.9
			c-0.2-0.2-0.5-0.4-0.8-0.5c-0.3-0.1-0.5-0.3-0.8-0.4c-0.3-0.2-0.5-0.4-0.6-0.8c-0.3-0.6-0.7-0.8-1.4-0.8c0,0-0.1,0-0.1,0
			c-0.2,0-0.4,0.1-0.7,0.3c-0.2,0.1-0.4,0.4-0.6,0.6c-0.2,0.4-0.5,0.7-0.8,0.9c-0.3,0.1-0.6,0.2-0.9,0.3c-0.3,0.1-0.5,0.3-0.8,0.4
			c-0.2,0.1-0.4,0.5-0.5,1c-0.1,0.3-0.2,0.5-0.2,0.7c0,0.1-0.1,0.3-0.1,0.4C278.7,92.9,278.7,93,278.7,93z"/>
		<path class="logo_light" d="M252.6,98.5c-0.3,0-0.5,0-0.8,0c-2.7,0-5.4-0.5-8-1.6c-2.6-1-5-2.6-7.3-4.7c-1.2-1.1-2.1-2.3-2.9-3.6
			c-0.7-1.3-1.2-2.6-1.4-3.7c-0.2-1.2-0.3-2.2-0.3-3.1c0-0.6,0.1-1.3,0.2-2.3c0.1-1,0.5-2.3,1.1-3.7c0.8-1.9,1.9-3.8,3.3-5.6
			c1.4-1.8,2.9-3.4,4.6-4.7c1.8-1.4,3.7-2.5,5.7-3.3c2.1-0.9,4.2-1.3,6.4-1.3c0.5,0,0.9,0,1.4,0.1c0.5,0,0.9,0.1,1.4,0.2
			c2.1,0.3,3.8,1,5.2,2.1c1.4,1.1,2.4,2.3,3,3.7c0.6,1.4,1,2.8,1,4.3c0,0.1,0,0.7-0.1,1.6c0,0.9-0.5,2.2-1.2,3.7
			c-1.2,2.4-2.8,4.2-4.8,5.5c-2,1.3-4.3,2-7,2.2c-0.6,0-1.2,0.1-1.7,0.1c-1,0-2.1-0.1-3.4-0.2c-1.2-0.1-2.6-0.4-4.2-0.8
			c-0.3-0.1-0.6-0.1-1-0.1c-0.5,0-1.1,0.2-1.8,0.5c-0.6,0.3-1.1,0.8-1.5,1.4c-0.4,0.7-0.6,1.3-0.6,1.9c0,0.7,0.3,1.5,0.9,2.2
			c1.4,1.6,3.3,2.5,5.6,2.6c0.2,0,0.5,0.1,0.7,0.1c0.5,0,1.1-0.1,1.8-0.2c0.7-0.1,1.4-0.3,2.1-0.5c1.4-0.4,2.8-0.8,4.1-1.4
			c1.3-0.6,2.7-1.1,4.1-1.6c1-0.3,1.8-0.6,2.6-0.7c0.8-0.1,1.4-0.2,1.9-0.2c0.5,0,0.9,0,1.4,0.1c0.1,0,0.1,0,0.2,0.1h0.4
			c0,0,0.1,0.1,0.2,0.1c1.2,0.3,2,0.8,2.4,1.5c0.3,0.6,0.5,1.2,0.5,1.7c0,0.6-0.2,1.2-0.5,1.8c-0.6,1.3-1.4,2.4-2.4,3.2
			c-1,0.8-2.1,1.4-3.3,1.8c-1.2,0.4-2.5,0.7-3.8,0.9C255.2,98.4,253.9,98.5,252.6,98.5z M253.4,68.2c0.2-0.6,0.2-1,0.2-1.4
			c0-0.1,0-0.4-0.1-0.6c0-0.3-0.3-0.5-0.7-0.7c-0.2,0-0.3-0.1-0.5-0.1c-0.4,0-0.8,0.2-1.2,0.6c-0.5,0.4-0.8,0.9-1,1.6
			c-0.1,0.4-0.2,0.7-0.2,1.1c0,0.2,0,0.5,0.1,0.9c0.1,0.4,0.4,0.7,0.9,0.8c0.1,0,0.2,0.1,0.3,0.1c0.3,0,0.7-0.2,1.1-0.6
			C252.8,69.5,253.2,69,253.4,68.2z M248.6,69.7c0.2-0.4,0.2-0.8,0.2-1.2c0-0.3-0.1-0.7-0.2-1.1c-0.2-0.4-0.5-0.8-1.1-0.9
			c-0.2,0-0.3-0.1-0.4-0.1c-0.3,0-0.5,0.1-0.8,0.3c-0.3,0.1-0.5,0.5-0.6,0.9c-0.1,0.4-0.2,0.8-0.2,1.2c0,0.4,0.1,0.8,0.2,1.3
			c0.2,0.5,0.5,0.8,1,1c0.1,0,0.2,0.1,0.3,0.1c0.3,0,0.5-0.1,0.8-0.3C248.2,70.7,248.4,70.3,248.6,69.7z M257.6,70.5
			c0.1-0.4,0.2-0.8,0.2-1.1c0-0.2,0-0.4-0.1-0.8c-0.1-0.4-0.3-0.6-0.7-0.7c-0.2-0.1-0.3-0.1-0.5-0.1c-0.3,0-0.7,0.2-1.1,0.5
			c-0.4,0.3-0.7,0.9-0.9,1.6c-0.1,0.3-0.2,0.6-0.2,0.9c0,0.7,0.3,1.1,1,1.3c0.2,0.1,0.4,0.1,0.6,0.1c0.3,0,0.6-0.1,0.9-0.3
			C257.1,71.5,257.4,71.1,257.6,70.5z M245.6,74.1c-0.1,0.2-0.1,0.4-0.1,0.7c0,0.7,0.4,1.4,1.1,2.2c0.7,0.8,1.8,1.4,3.2,1.8
			c0.4,0.1,0.7,0.2,1.1,0.2c0.3,0,0.7,0.1,1,0.1c0.9,0,1.7-0.2,2.3-0.5c0.7-0.3,1.1-0.8,1.3-1.4c0.1-0.3,0.1-0.5,0.1-0.7
			c0-0.2-0.1-0.4-0.2-0.7c-0.1-0.3-0.3-0.5-0.5-0.8c-0.2-0.3-0.4-0.6-0.6-0.8c-0.2-0.3-0.3-0.6-0.3-0.9c0-0.1,0-0.1,0-0.2
			c0-0.1,0-0.1,0-0.2c0-0.7-0.4-1.2-1.1-1.4c-0.1,0-0.2-0.1-0.4-0.1c-0.1,0-0.3,0-0.6,0.1c-0.3,0-0.5,0.1-0.8,0.3
			c-0.5,0.3-1,0.5-1.5,0.5c-0.5,0-0.9,0-1.2-0.1c-0.3,0-0.4-0.1-0.5-0.1c-0.4,0-0.9,0.3-1.4,0.8c-0.2,0.2-0.4,0.4-0.6,0.6
			C245.8,73.7,245.7,73.9,245.6,74.1z M259,72.4c-0.2-0.1-0.3-0.1-0.5-0.1c-0.4,0-0.8,0.2-1.4,0.6c-0.5,0.4-0.9,0.9-1.1,1.5
			c0,0.1-0.1,0.3-0.1,0.4c0,0.2,0.1,0.4,0.2,0.7c0.2,0.3,0.4,0.4,0.6,0.5c0.2,0.1,0.4,0.1,0.6,0.1c0.4,0,0.9-0.2,1.4-0.5
			c0.5-0.4,0.9-0.9,1.1-1.5c0-0.1,0.1-0.3,0.1-0.4c0-0.2-0.1-0.4-0.2-0.7C259.5,72.7,259.3,72.5,259,72.4z"/>
		<path class="logo_light" d="M206.3,77.4c1.1-0.3,2.1-0.4,3-0.4c1.1,0,2.1,0.2,3.1,0.6c1,0.4,1.9,1,2.8,1.8c0.2-0.2,0.2-0.4,0.2-0.6
			c0,0,0-0.1-0.1-0.2c0-0.1,0-0.3-0.1-0.4c0-0.3,0-0.6,0-0.8c0-1.9,0.1-3.9,0.3-6c0.3-2,0.7-4.1,1.4-6.3c0.3-1,0.7-2.2,1.3-3.3
			c0.6-1.2,1.3-2.4,2.1-3.4c0.8-1.1,1.8-2,2.8-2.7c1.1-0.7,2.2-1.1,3.5-1.1c1.4,0,2.6,0.4,3.6,1.3c1.1,0.9,1.7,2.1,2,3.6
			c0.1,0.5,0.1,1,0.1,1.4c0,0.6-0.1,1.2-0.2,2c-0.1,0.7-0.3,1.6-0.6,2.6c-0.4,1.1-0.9,2.2-1.4,3.2c-0.5,1-1,2.1-1.5,3.1
			c-0.8,1.7-1.5,3.4-2.2,5.1c-0.7,1.7-1.2,3.4-1.6,5.2c-0.4,2-0.6,4.1-0.6,6.1c0,1.4,0.1,2.8,0.3,4.2c0.1,0.5,0.1,0.9,0.1,1.3
			c0,0.3,0.1,0.6,0.1,0.8c0,0.3,0,0.7-0.1,1c0,0.7-0.2,1.5-0.7,2.2c-0.5,0.7-1.1,1.1-2,1.1c-0.6,0-1.2-0.2-1.6-0.7
			c-0.4-0.4-0.7-0.9-1-1.4c-0.9-1.7-1.6-3.4-2.1-5.1c-0.5-1.7-0.8-3.5-1.1-5.4c-0.1-0.5-0.2-0.9-0.5-1.1c-0.2-0.3-0.5-0.5-1-0.7
			c-0.5-0.2-0.9-0.3-1.2-0.3c-0.3,0-0.5-0.1-0.7-0.1c-0.3,0-0.6,0-1,0.1c-1,0.2-1.9,0.3-2.7,0.4c-0.8,0.1-1.5,0.1-2.1,0.1
			c-0.4,0-0.8,0-1.2-0.1c-0.1,0-0.1,0-0.2,0c-0.2,0-0.3,0.1-0.4,0.2c-0.1,0.1-0.1,0.3-0.1,0.6c0,0.8,0.1,1.6,0.2,2.4
			c0.2,0.8,0.3,1.6,0.5,2.4c0.1,0.6,0.2,1.1,0.2,1.7c0.1,0.5,0.2,1.1,0.3,1.6c0.1,0.2,0.1,0.4,0.1,0.7c0,0.1,0,0.2-0.1,0.3
			c0,0.1,0,0.4-0.1,0.7c-0.2,0.7-0.5,1.3-0.9,1.7c-0.5,0.4-1,0.6-1.6,0.6c-0.9,0-1.7-0.3-2.4-0.9c-0.7-0.7-1.4-1.5-2-2.5
			c-0.6-1-1.1-2.2-1.6-3.5c-0.5-1.3-0.9-2.6-1.2-3.8c-0.3-1.2-0.6-2.4-0.8-3.4c-0.2-1-0.3-1.9-0.5-2.5c-0.3-1.6-0.5-3.2-0.6-4.6
			c-0.1-1.4-0.2-2.8-0.2-4.2c0-0.3,0-0.7,0-1c0-1.4,0.2-3.1,0.5-4.9c0.3-1.8,0.9-3.5,1.6-5.2c0.8-1.7,1.7-3.1,2.9-4.4
			c1.2-1.3,2.6-2.1,4.3-2.5c0.4-0.1,0.8-0.1,1.2-0.1c0.7,0,1.5,0.2,2.3,0.5c0.8,0.3,1.6,0.9,2.2,2c0.9,1.5,1.4,3.2,1.4,5
			c0,0.4,0,0.7-0.1,1.1c-0.2,1.3-0.4,2.5-0.8,3.7c-0.3,1.2-0.7,2.4-1.2,3.6c0,0.2-0.1,0.4-0.2,0.6l-0.1,0.4
			c-0.1,0.2-0.2,0.4-0.2,0.6l-1.1,3c-0.2,0.5-0.4,1-0.6,1.6C206.6,76.4,206.5,76.9,206.3,77.4z"/>
		<path class="logo_light" d="M169.4,78.2c-0.4,0.1-0.8,0.1-1.2,0.2c-0.4,0-0.8,0.1-1.2,0.1c-0.7,0.1-1.3,0-1.7-0.2
			c-0.5-0.3-0.8-0.7-0.9-1.1c0-0.4,0.2-0.8,0.6-1.2c0.5-0.4,0.9-0.7,1.4-0.9c0.4-0.2,0.8-0.4,1.3-0.5c0.5-0.2,0.9-0.3,1.4-0.4
			c0.4-0.1,0.7-0.3,0.9-0.5c0.2-0.2,0.4-0.6,0.5-1c0.2-0.9,0.4-1.7,0.7-2.7c0.3-0.9,0.7-1.8,1.1-2.7s1-1.6,1.6-2.3
			c0.6-0.7,1.4-1.3,2.1-1.8c0.5-0.3,1.1-0.5,1.6-0.7c0.6-0.2,1.2-0.2,1.8-0.1c0.9,0.3,1.7,0.8,2.3,1.6c0.6,0.7,1,1.7,1.2,2.7
			c0.1,0.7,0.1,1.5,0,2.2c-0.1,0.7-0.2,1.4-0.4,2.1c-0.2,0.5-0.2,0.8-0.2,0.9c0.1,0.1,0.4,0.2,0.9,0.3c0.6,0.2,1.2,0.4,1.7,0.8
			c0.5,0.3,1,0.8,1.4,1.3c0.7,0.9,0.9,1.8,0.6,2.7c-0.3,0.9-1.1,1.4-2.3,1.6c-0.6,0.1-1.3,0.2-1.9,0.1c-0.6-0.1-1.1-0.2-1.7-0.4
			c-0.6-0.1-1-0.2-1.2-0.1c-0.1,0.1-0.3,0.4-0.5,1c-0.9,2.4-1.4,4.8-1.5,7.3c-0.1,2.4,0.2,4.8,1,7.3c0.1,0.4,0.2,0.7,0.3,1.1
			c0.1,0.3,0.1,0.7,0.1,1.1c0,0.8-0.2,1.4-0.7,2c-0.5,0.6-1.1,0.8-1.9,0.8c-0.6,0-1.3-0.3-1.9-0.9c-0.3-0.3-0.6-0.6-0.8-0.9
			c-0.2-0.3-0.5-0.6-0.7-0.9c-1.5-2.4-2.5-4.9-3.2-7.5c-0.6-2.6-0.8-5.3-0.6-8.1c0-0.4,0.1-0.7,0.1-1.1
			C169.5,79,169.5,78.6,169.4,78.2z"/>
		<path class="logo_light" d="M149.7,98.5c-0.3,0-0.5,0-0.8,0c-2.7,0-5.4-0.5-8-1.6c-2.6-1-5-2.6-7.3-4.7c-1.2-1.1-2.1-2.3-2.9-3.6
			c-0.7-1.3-1.2-2.6-1.4-3.7c-0.2-1.2-0.3-2.2-0.3-3.1c0-0.6,0.1-1.3,0.2-2.3c0.1-1,0.5-2.3,1.1-3.7c0.8-1.9,1.9-3.8,3.3-5.6
			c1.4-1.8,2.9-3.4,4.6-4.7c1.8-1.4,3.7-2.5,5.7-3.3c2.1-0.9,4.2-1.3,6.4-1.3c0.5,0,0.9,0,1.4,0.1c0.5,0,0.9,0.1,1.4,0.2
			c2.1,0.3,3.8,1,5.2,2.1c1.4,1.1,2.4,2.3,3,3.7c0.6,1.4,1,2.8,1,4.3c0,0.1,0,0.7-0.1,1.6c0,0.9-0.5,2.2-1.2,3.7
			c-1.2,2.4-2.8,4.2-4.8,5.5c-2,1.3-4.3,2-7,2.2c-0.6,0-1.2,0.1-1.7,0.1c-1,0-2.1-0.1-3.4-0.2c-1.2-0.1-2.6-0.4-4.2-0.8
			c-0.3-0.1-0.6-0.1-1-0.1c-0.5,0-1.1,0.2-1.8,0.5c-0.6,0.3-1.1,0.8-1.5,1.4c-0.4,0.7-0.6,1.3-0.6,1.9c0,0.7,0.3,1.5,0.9,2.2
			c1.4,1.6,3.3,2.5,5.6,2.6c0.2,0,0.5,0.1,0.7,0.1c0.5,0,1.1-0.1,1.8-0.2c0.7-0.1,1.4-0.3,2.1-0.5c1.4-0.4,2.8-0.8,4.1-1.4
			c1.3-0.6,2.7-1.1,4.1-1.6c1-0.3,1.8-0.6,2.6-0.7c0.8-0.1,1.4-0.2,1.9-0.2c0.5,0,0.9,0,1.4,0.1c0.1,0,0.1,0,0.2,0.1h0.4
			c0,0,0.1,0.1,0.2,0.1c1.2,0.3,2,0.8,2.4,1.5c0.3,0.6,0.5,1.2,0.5,1.7c0,0.6-0.2,1.2-0.5,1.8c-0.6,1.3-1.4,2.4-2.4,3.2
			c-1,0.8-2.1,1.4-3.3,1.8c-1.2,0.4-2.5,0.7-3.8,0.9C152.3,98.4,151,98.5,149.7,98.5z M150.5,68.2c0.2-0.6,0.2-1,0.2-1.4
			c0-0.1,0-0.4-0.1-0.6c0-0.3-0.3-0.5-0.7-0.7c-0.2,0-0.3-0.1-0.5-0.1c-0.4,0-0.8,0.2-1.2,0.6c-0.5,0.4-0.8,0.9-1,1.6
			c-0.1,0.4-0.2,0.7-0.2,1.1c0,0.2,0,0.5,0.1,0.9c0.1,0.4,0.4,0.7,0.9,0.8c0.1,0,0.2,0.1,0.3,0.1c0.3,0,0.7-0.2,1.1-0.6
			C149.9,69.5,150.2,69,150.5,68.2z M145.7,69.7c0.2-0.4,0.2-0.8,0.2-1.2c0-0.3-0.1-0.7-0.2-1.1c-0.2-0.4-0.5-0.8-1.1-0.9
			c-0.2,0-0.3-0.1-0.4-0.1c-0.3,0-0.5,0.1-0.8,0.3c-0.3,0.1-0.5,0.5-0.6,0.9c-0.1,0.4-0.2,0.8-0.2,1.2c0,0.4,0.1,0.8,0.2,1.3
			c0.2,0.5,0.5,0.8,1,1c0.1,0,0.2,0.1,0.3,0.1c0.3,0,0.5-0.1,0.8-0.3C145.2,70.7,145.5,70.3,145.7,69.7z M154.7,70.5
			c0.1-0.4,0.2-0.8,0.2-1.1c0-0.2,0-0.4-0.1-0.8c-0.1-0.4-0.3-0.6-0.7-0.7c-0.2-0.1-0.3-0.1-0.5-0.1c-0.3,0-0.7,0.2-1.1,0.5
			c-0.4,0.3-0.7,0.9-0.9,1.6c-0.1,0.3-0.2,0.6-0.2,0.9c0,0.7,0.3,1.1,1,1.3c0.2,0.1,0.4,0.1,0.6,0.1c0.3,0,0.6-0.1,0.9-0.3
			C154.2,71.5,154.5,71.1,154.7,70.5z M142.7,74.1c-0.1,0.2-0.1,0.4-0.1,0.7c0,0.7,0.4,1.4,1.1,2.2c0.7,0.8,1.8,1.4,3.2,1.8
			c0.4,0.1,0.7,0.2,1.1,0.2c0.3,0,0.7,0.1,1,0.1c0.9,0,1.7-0.2,2.3-0.5c0.7-0.3,1.1-0.8,1.3-1.4c0.1-0.3,0.1-0.5,0.1-0.7
			c0-0.2-0.1-0.4-0.2-0.7c-0.1-0.3-0.3-0.5-0.5-0.8c-0.2-0.3-0.4-0.6-0.6-0.8c-0.2-0.3-0.3-0.6-0.3-0.9c0-0.1,0-0.1,0-0.2
			c0-0.1,0-0.1,0-0.2c0-0.7-0.4-1.2-1.1-1.4c-0.1,0-0.2-0.1-0.4-0.1c-0.1,0-0.3,0-0.6,0.1c-0.3,0-0.5,0.1-0.8,0.3
			c-0.5,0.3-1,0.5-1.5,0.5c-0.5,0-0.9,0-1.2-0.1c-0.3,0-0.4-0.1-0.5-0.1c-0.4,0-0.9,0.3-1.4,0.8c-0.2,0.2-0.4,0.4-0.6,0.6
			C142.9,73.7,142.8,73.9,142.7,74.1z M156.1,72.4c-0.2-0.1-0.3-0.1-0.5-0.1c-0.4,0-0.8,0.2-1.4,0.6c-0.5,0.4-0.9,0.9-1.1,1.5
			c0,0.1-0.1,0.3-0.1,0.4c0,0.2,0.1,0.4,0.2,0.7c0.2,0.3,0.4,0.4,0.6,0.5c0.2,0.1,0.4,0.1,0.6,0.1c0.4,0,0.9-0.2,1.4-0.5
			c0.5-0.4,0.9-0.9,1.1-1.5c0-0.1,0.1-0.3,0.1-0.4c0-0.2-0.1-0.4-0.2-0.7C156.6,72.7,156.4,72.5,156.1,72.4z"/>
		<path class="logo_light" d="M112.8,98.5c-0.3,0-0.5,0-0.8,0c-2.7,0-5.4-0.5-7.9-1.6c-2.6-1-5-2.6-7.3-4.7c-1.2-1.1-2.1-2.3-2.9-3.6
			c-0.7-1.3-1.2-2.6-1.4-3.7c-0.2-1.2-0.3-2.2-0.3-3.1c0-0.6,0.1-1.3,0.2-2.3c0.1-1,0.5-2.3,1.1-3.7c0.8-1.9,1.9-3.8,3.3-5.6
			c1.4-1.8,2.9-3.4,4.6-4.7c1.8-1.4,3.7-2.5,5.7-3.3c2.1-0.9,4.2-1.3,6.4-1.3c0.5,0,0.9,0,1.4,0.1c0.5,0,0.9,0.1,1.4,0.2
			c2.1,0.3,3.8,1,5.2,2.1c1.4,1.1,2.4,2.3,3,3.7c0.6,1.4,1,2.8,1,4.3c0,0.1,0,0.7-0.1,1.6c0,0.9-0.5,2.2-1.2,3.7
			c-1.2,2.4-2.8,4.2-4.8,5.5c-2,1.3-4.3,2-7,2.2c-0.6,0-1.2,0.1-1.7,0.1c-1,0-2.1-0.1-3.4-0.2c-1.2-0.1-2.6-0.4-4.2-0.8
			c-0.3-0.1-0.6-0.1-1-0.1c-0.5,0-1.1,0.2-1.8,0.5c-0.6,0.3-1.1,0.8-1.5,1.4c-0.4,0.7-0.6,1.3-0.6,1.9c0,0.7,0.3,1.5,0.9,2.2
			c1.4,1.6,3.3,2.5,5.6,2.6c0.2,0,0.5,0.1,0.7,0.1c0.5,0,1.1-0.1,1.8-0.2c0.7-0.1,1.4-0.3,2.1-0.5c1.4-0.4,2.8-0.8,4.1-1.4
			c1.3-0.6,2.7-1.1,4.1-1.6c1-0.3,1.8-0.6,2.6-0.7c0.8-0.1,1.4-0.2,1.9-0.2c0.5,0,0.9,0,1.4,0.1c0.1,0,0.1,0,0.2,0.1h0.4
			c0,0,0.1,0.1,0.2,0.1c1.2,0.3,2,0.8,2.4,1.5c0.3,0.6,0.5,1.2,0.5,1.7c0,0.6-0.2,1.2-0.5,1.8c-0.6,1.3-1.4,2.4-2.4,3.2
			c-1,0.8-2.1,1.4-3.3,1.8c-1.2,0.4-2.5,0.7-3.8,0.9C115.4,98.4,114.1,98.5,112.8,98.5z M113.5,68.2c0.2-0.6,0.2-1,0.2-1.4
			c0-0.1,0-0.4-0.1-0.6c0-0.3-0.3-0.5-0.7-0.7c-0.2,0-0.3-0.1-0.5-0.1c-0.4,0-0.8,0.2-1.2,0.6c-0.5,0.4-0.8,0.9-1,1.6
			c-0.1,0.4-0.2,0.7-0.2,1.1c0,0.2,0,0.5,0.1,0.9c0.1,0.4,0.4,0.7,0.9,0.8c0.1,0,0.2,0.1,0.3,0.1c0.3,0,0.7-0.2,1.1-0.6
			C113,69.5,113.3,69,113.5,68.2z M108.8,69.7c0.2-0.4,0.2-0.8,0.2-1.2c0-0.3-0.1-0.7-0.2-1.1c-0.2-0.4-0.5-0.8-1.1-0.9
			c-0.2,0-0.3-0.1-0.4-0.1c-0.3,0-0.5,0.1-0.8,0.3c-0.3,0.1-0.5,0.5-0.6,0.9c-0.1,0.4-0.2,0.8-0.2,1.2c0,0.4,0.1,0.8,0.2,1.3
			c0.2,0.5,0.5,0.8,1,1c0.1,0,0.2,0.1,0.3,0.1c0.3,0,0.5-0.1,0.8-0.3C108.3,70.7,108.6,70.3,108.8,69.7z M117.8,70.5
			c0.1-0.4,0.2-0.8,0.2-1.1c0-0.2,0-0.4-0.1-0.8c-0.1-0.4-0.3-0.6-0.7-0.7c-0.2-0.1-0.3-0.1-0.5-0.1c-0.3,0-0.7,0.2-1.1,0.5
			c-0.4,0.3-0.7,0.9-0.9,1.6c-0.1,0.3-0.2,0.6-0.2,0.9c0,0.7,0.3,1.1,1,1.3c0.2,0.1,0.4,0.1,0.6,0.1c0.3,0,0.6-0.1,0.9-0.3
			C117.3,71.5,117.6,71.1,117.8,70.5z M105.8,74.1c-0.1,0.2-0.1,0.4-0.1,0.7c0,0.7,0.4,1.4,1.1,2.2c0.7,0.8,1.8,1.4,3.2,1.8
			c0.4,0.1,0.7,0.2,1.1,0.2c0.3,0,0.7,0.1,1,0.1c0.9,0,1.7-0.2,2.3-0.5c0.7-0.3,1.1-0.8,1.3-1.4c0.1-0.3,0.1-0.5,0.1-0.7
			c0-0.2-0.1-0.4-0.2-0.7c-0.1-0.3-0.3-0.5-0.5-0.8c-0.2-0.3-0.4-0.6-0.6-0.8c-0.2-0.3-0.3-0.6-0.3-0.9c0-0.1,0-0.1,0-0.2
			c0-0.1,0-0.1,0-0.2c0-0.7-0.4-1.2-1.1-1.4c-0.1,0-0.2-0.1-0.4-0.1c-0.1,0-0.3,0-0.6,0.1c-0.3,0-0.5,0.1-0.8,0.3
			c-0.5,0.3-1,0.5-1.5,0.5c-0.5,0-0.9,0-1.2-0.1c-0.3,0-0.4-0.1-0.5-0.1c-0.4,0-0.9,0.3-1.4,0.8c-0.2,0.2-0.4,0.4-0.6,0.6
			C106,73.7,105.8,73.9,105.8,74.1z M119.2,72.4c-0.2-0.1-0.3-0.1-0.5-0.1c-0.4,0-0.8,0.2-1.4,0.6c-0.5,0.4-0.9,0.9-1.1,1.5
			c0,0.1-0.1,0.3-0.1,0.4c0,0.2,0.1,0.4,0.2,0.7c0.2,0.3,0.4,0.4,0.6,0.5c0.2,0.1,0.4,0.1,0.6,0.1c0.4,0,0.9-0.2,1.4-0.5
			c0.5-0.4,0.9-0.9,1.1-1.5c0-0.1,0.1-0.3,0.1-0.4c0-0.2-0.1-0.4-0.2-0.7C119.7,72.7,119.5,72.5,119.2,72.4z"/>
		<path class="logo_light" d="M40.3,77.2c0-1.1,0.2-2.4,0.5-3.8c0.3-1.5,0.8-2.9,1.5-4.2c0.7-1.4,1.5-2.5,2.5-3.5c1-1,2.2-1.4,3.6-1.4
			c0,0,0.1,0,0.1,0c1.8,0,3,0.8,3.8,2.4c0.4,0.7,0.6,1.3,0.6,2c0.1,0.6,0.1,1.2,0.1,1.7c0,0.2,0,0.5,0,0.7c0,1.1-0.2,2.1-0.3,3.2
			c-0.2,1-0.3,2.1-0.5,3.2c-0.2,1.4-0.3,2.6-0.5,3.6c-0.1,1-0.2,1.8-0.2,2.4c0,0.8,0.1,1.6,0.2,2.3c0.2,1.5,0.6,2.9,1.3,4.2
			c0.7,1.3,1.7,2.4,3.2,3.1c0.5,0.2,0.8,0.3,1.1,0.3c0.9,0,1.5-0.5,1.7-1.5c0-0.2,0.1-0.4,0.1-0.6l0.2-1.2c0-0.2,0.1-0.4,0.1-0.6
			c0.1-0.6,0.1-1.3,0.2-1.9c0.1-0.7,0.2-1.3,0.3-2c0.1-0.5,0.3-1,0.5-1.5c0.2-0.6,0.5-1.1,0.8-1.5c0.3-0.5,0.7-0.9,1.2-1.2
			c0.5-0.3,1-0.4,1.6-0.4c0.7,0,1.3,0.2,1.8,0.7c0.5,0.4,0.9,0.9,1.2,1.6c0.3,0.6,0.6,1.2,0.8,2c0.2,0.7,0.3,1.3,0.3,1.9
			c0.1,0.7,0.2,1.5,0.3,2.2c0.1,0.7,0.2,1.4,0.3,2.2c0,0.4,0.3,0.9,0.7,1.3c0.4,0.4,0.9,0.6,1.4,0.6c0.3,0,0.5-0.1,0.8-0.3
			c1.4-0.7,2.4-1.7,3.2-3c0.6-1.2,1.1-2.2,1.2-3.2c0.2-1,0.3-2,0.3-3c0-0.3,0-0.7-0.1-1c-0.1-1.6-0.2-3.1-0.5-4.6
			c-0.2-1.5-0.5-3-0.7-4.5c-0.1-0.7-0.2-1.4-0.2-1.9c0-0.5-0.1-0.9-0.1-1.2c0-0.5,0-1,0.1-1.5c0-0.3,0-0.4,0.1-0.6
			c0.2-1.3,0.7-2.3,1.4-3.1c0.7-0.8,1.8-1.2,3.2-1.2c1.1,0,2.1,0.3,2.9,1c0.9,0.6,1.6,1.4,2.3,2.4c0.6,0.9,1.2,2,1.6,3.1
			c0.4,1.1,0.7,2,0.8,2.9c0.3,1.6,0.5,3.2,0.5,4.7c0,1.3-0.2,2.9-0.6,4.8c-0.3,1.9-1.4,4.1-3,6.6c-0.7,1-1.5,2-2.4,2.8
			c-0.9,0.9-1.8,1.7-2.9,2.3c-1,0.7-2.1,1.2-3.3,1.6c-1.2,0.4-2.4,0.6-3.6,0.6c-2.3,0-4.4-0.7-6.5-2.2L65,94.7c0,0-0.1,0-0.1,0
			c0,0,0-0.1-0.1-0.1c-0.3-0.2-0.5-0.3-0.6-0.4C64.2,94,64.1,94,64,94c-0.1,0-0.4,0.2-0.9,0.6c-1,0.7-2,1.4-3.2,1.8
			c-1.2,0.5-2.4,0.7-3.7,0.7c-1.2,0-2.3-0.2-3.4-0.5c-1.1-0.4-2.1-0.9-3.2-1.4c-1-0.6-1.9-1.3-2.8-2.1c-0.9-0.8-1.6-1.6-2.3-2.5
			c-1.4-1.9-2.5-3.9-3.2-6c-0.7-2.1-1-4.5-1-7.1C40.3,77.5,40.3,77.4,40.3,77.2z"/>
		<path class="logo_light" d="M20.9,99.6c-1.7,0-3.5-0.2-5.4-0.4c-1.9-0.2-3.8-0.7-5.6-1.3c-1.8-0.6-3.5-1.4-5-2.5c-1.5-1-2.7-2.4-3.6-4
			c-0.6-1.2-1.1-2.4-1.3-3.7c-0.2-1.3,0-2.6,0.5-3.9c0.5-1.3,1.3-2.2,2.2-2.9c0.9-0.7,2-1,3.1-1c1.1,0,2.1,0.2,2.9,0.7
			c0.9,0.5,1.7,1.1,2.4,1.8c0.8,0.7,1.4,1.6,2,2.5c0.6,0.9,1.1,1.7,1.6,2.5c0.4,0.7,0.9,1.4,1.6,2.2c0.7,0.8,1.5,1.6,2.3,2.3
			c0.9,0.7,1.7,1.2,2.6,1.7c0.9,0.4,1.8,0.7,2.7,0.7c0.9,0,1.8-0.2,2.6-0.7c0.8-0.5,1.6-1.2,2.3-2.2c0.6-0.9,0.9-1.7,0.9-2.6
			c0-0.9-0.3-1.8-0.8-2.6c-0.5-0.9-1.1-1.6-1.7-2.1c-0.6-0.6-1.2-1-1.9-1.4c-0.7-0.4-1.4-0.7-2.2-0.9c-0.8-0.3-1.7-0.5-2.6-0.7
			l-3.4-0.7c-2-0.4-3.9-0.9-5.8-1.6c-1.8-0.7-3.5-1.8-5.1-3.2c-1.7-1.5-3-3.1-3.9-5c-0.9-1.9-1.3-3.9-1.1-6.2
			c0.2-2.2,0.7-4.1,1.6-5.7c0.9-1.6,2.1-3,3.6-4.1c1.5-1.1,3.1-1.9,5-2.4c1.9-0.5,3.8-0.8,5.9-0.8c2.1,0,4.2,0.3,6.1,0.9
			c2,0.6,3.8,1.4,5.4,2.6c1.7,1.1,3,2.5,4.2,4.2c1.2,1.6,2,3.5,2.4,5.6c0.2,0.7,0.2,1.5,0.1,2.2c-0.1,0.7-0.2,1.4-0.4,2.2
			c-0.4,1.4-1.2,2.5-2.5,3.3c-1.2,0.8-2.6,1.2-4.1,1.2c-1.4,0-2.6-0.4-3.7-1.1c-1.1-0.7-1.7-1.8-2-3.2c-0.1-0.6-0.2-1.3-0.3-1.9
			c-0.1-0.7-0.2-1.3-0.2-2c-0.1-0.4-0.1-0.8-0.2-1.1c0-0.4-0.1-0.7-0.2-1.1c-0.2-0.7-0.4-1.4-0.8-1.8c-0.4-0.5-0.8-0.9-1.4-1.2
			c-0.5-0.3-1-0.6-1.6-0.7c-0.6-0.1-1.1-0.1-1.7-0.1c-0.9,0-1.6,0.3-2.2,0.8c-0.6,0.5-1,1.2-1.2,2.1c-0.6,2.5-0.2,4.8,1.2,6.9
			c0.4,0.6,0.8,1.1,1.4,1.4c0.6,0.3,1.2,0.6,1.8,0.8c0.9,0.3,1.7,0.7,2.6,0.9c0.9,0.3,1.8,0.5,2.7,0.8c1.5,0.5,2.9,1.1,4.3,1.7
			c1.4,0.7,2.7,1.5,3.9,2.4c1.2,0.9,2.3,2,3.2,3.2c0.9,1.2,1.5,2.6,1.9,4.2c0.3,1.3,0.4,2.6,0.2,4c-0.2,1.4-0.6,2.7-1.2,3.9
			c-0.6,1.2-1.5,2.3-2.5,3.3c-1.1,1-2.2,1.7-3.6,2.3c-1.4,0.6-2.8,0.9-4.2,1.1C23.8,99.5,22.4,99.6,20.9,99.6z"/>
	</g>
	<g>
		<path class="logo_light" d="M147.1,28.3c0.9-0.1,1.8,0.9,2,2.3c0.1,1.4-0.5,2.6-1.4,2.7c-0.9,0.1-1.8-0.9-2-2.3
			C145.5,29.6,146.2,28.4,147.1,28.3z"/>
		<path class="logo_light" d="M172.2,4.2c-0.1-0.6-0.2-1-0.4-1.3c-0.2-0.2-0.4-0.4-0.8-0.5c-0.4-0.1-0.9-0.1-1.3,0.1
			c-0.4,0.2-0.7,0.5-0.8,0.9c-0.3,1-0.1,2.3,0.4,3.8c0.4,1.2,1.1,2.6,1.8,3.9c1.4-0.7,2.7-1.4,3.8-2.2c1.2-0.9,2.2-1.8,2.5-2.8
			c0.1-0.4,0.1-0.9-0.1-1.2c-0.2-0.4-0.5-0.7-1-0.8c-0.4-0.1-0.7-0.1-1,0l-0.1,0c-0.3,0.1-0.7,0.4-1.1,0.8c-0.5,0.5-1.2,0.5-1.7,0
			C172.3,4.7,172.2,4.5,172.2,4.2L172.2,4.2z M173.7,1.6c0.1,0.2,0.2,0.3,0.3,0.5c0.1-0.1,0.3-0.1,0.4-0.2c0,0,0.1,0,0.1,0
			c0.8-0.3,1.6-0.3,2.5,0c1.1,0.3,1.9,1,2.3,1.9c0.5,0.9,0.6,2,0.3,3c-0.5,1.6-1.8,2.9-3.4,4c-1.5,1.1-3.3,2-5.1,2.9
			c-0.6,0.3-1.3,0.1-1.6-0.5c-0.9-1.8-1.9-3.5-2.5-5.3c-0.7-1.8-0.9-3.6-0.4-5.2c0.3-1,1.1-1.8,2-2.3c0.9-0.5,2-0.6,3.1-0.3
			C172.6,0.5,173.2,1,173.7,1.6L173.7,1.6z"/>
		<path class="logo_light" d="M207.8,46.5c0,0,0.1,0,0.1,0c3.4,0.3,6.7,0.2,9.6-0.1c0.1,0,0.2,0,0.3,0c0.4,0,0.8-0.1,1.2-0.2
			c2.5-2.4,3.7-6.3,4.3-9c-3.4-1.1-3.9-3.8-3.7-5.7c-3.2,0-8.8-0.9-13.4-2.1c-4.1-1.1-7.5-2.6-8-4.3c-0.1-0.4-0.2-0.8-0.3-1.2
			c-0.3-1.2-0.6-2.9-1.4-4.4c-1.6-3.3-5.1-6.2-14.1-2.2c-5,2.3-8.4,5.6-10.7,9.5c4.2,7.8,10.2,19.5,8.9,28.5c-0.5,3.8-2.6,6.4-5,7.6
			c-1.1,0.5-2.3,0.8-3.6,0.7c-1.2-0.1-2.4-0.5-3.5-1.2c-2.3-1.6-4-4.8-4-9.7c0-6.5,0.1-13.9,2.3-20.7c0.6-1.8,1.3-3.5,2.1-5.2
			c-3.2-5.8-6.4-10.3-8-12.5l-2.7,6.4l0,0c-0.3,0.6-1,0.8-1.6,0.6c0,0-2.3-1-4.4-0.9c-2.1,0.1-4.9,1.3-4.9,1.3
			c-0.5,0.2-1.2,0-1.5-0.5l-3.3-5.4c-0.9,2.2-2.4,6.5-3.7,13.9c-0.3,1.7-0.5,3.4-0.8,5.2c2.5-0.1,4.3,0.1,4.3,0.1
			c0.6,0.1,1.1,0.6,1,1.3c-0.1,0.6-0.6,1.1-1.3,1c0,0-1.8-0.2-4.3,0c-0.2,1.8-0.4,3.7-0.5,5.4c2.2-1.1,4-1.8,4-1.8
			c0.6-0.2,1.3,0.1,1.5,0.7c0.2,0.6-0.1,1.3-0.7,1.5c0,0-2.3,0.9-5,2.3c-0.4,6-0.4,10.6-0.4,10.6c0,0.6-0.5,1.1-1.2,1.1
			s-1.2-0.5-1.2-1.2c0,0,0-3.8,0.3-9.1c-1,0.7-2.1,1.4-2.9,2.2c-0.5,0.4-1.2,0.4-1.7-0.1c-0.4-0.5-0.4-1.2,0.1-1.6
			c1.4-1.2,3.1-2.4,4.7-3.3c0.1-2,0.3-4.2,0.6-6.4c-1.7,0.3-3.4,0.7-5,1.5c-0.6,0.3-1.3,0-1.6-0.5c-0.3-0.6,0-1.3,0.5-1.5
			c2-1,4.3-1.5,6.3-1.8c0.2-1.9,0.5-3.9,0.8-5.8c2.1-12.1,4.9-16.6,4.9-16.6c0.3-0.5,1.1-0.7,1.6-0.4c0.2,0.1,0.3,0.3,0.4,0.4
			l3.8,6.4c1.1-0.4,3.1-1.1,4.8-1.1c1.6-0.1,3.3,0.4,4.4,0.7l3.1-7.2c0.2-0.6,0.9-0.9,1.5-0.6c0.2,0.1,0.4,0.2,0.5,0.4
			c0.3,0.4,4.4,5.4,8.8,13.1c2.5-3.7,6-6.9,11-9.2c10.7-4.9,15.1-1,17.2,3.3c0.8,1.8,1.2,3.6,1.5,4.9c0.1,0.5,0.2,0.9,0.3,1.1
			c0.2,0.8,3,1.8,6.4,2.7c4.8,1.3,10.7,2.1,13.5,2c1.9-0.1,3.5-0.3,4.9-0.5c2.7-0.4,4.4-0.6,5.2,0.8c0,0.1,0.1,0.1,0.1,0.2
			c0,0,0,0.1,0,0.1c0.4,1,0.9,4.2,0.6,7.6c-0.3,3.6-1.5,7.4-4.7,9.2c-0.2,0.1-0.4,0.2-0.6,0.3c-1.3,0.6-3.4,1.2-5.9,1.6
			c0,0-0.1,0-0.1,0c1,1.9,0.9,3.4,0.3,4.6c-0.4,0.7-0.9,1.2-1.5,1.7c-0.6,0.4-1.3,0.7-1.9,0.8c-1.5,0.3-3.1-0.1-3.8-1.2
			c-0.6-1-1.6-2.2-2.7-3.3c-1-1-2-1.8-2.7-2.2c-1.2-0.1-2.3-0.2-3.5-0.4c-6.4-1-12.6-3.2-16.8-7.5c-0.5-0.5-0.4-1.2,0-1.6
			c0.5-0.4,1.2-0.4,1.7,0c3.8,3.9,9.6,5.9,15.5,6.8C205.5,46.3,206.7,46.4,207.8,46.5L207.8,46.5z M170.4,29.2
			c-0.5,1.1-0.9,2.2-1.3,3.3c-2,6.4-2.1,13.7-2.1,20.1c0,4.1,1.3,6.6,3,7.8c0.7,0.5,1.5,0.8,2.3,0.8c0.8,0.1,1.6-0.1,2.4-0.5
			c1.8-0.9,3.3-2.9,3.7-5.9C179.4,47.1,173.9,35.9,170.4,29.2z M225.6,37.6c-0.5,2.3-1.4,5.3-3.1,7.9c0.9-0.2,1.7-0.5,2.3-0.8
			c0.1-0.1,0.3-0.1,0.4-0.2c2.2-1.3,3.1-4.1,3.5-6.9C227.6,37.7,226.5,37.7,225.6,37.6L225.6,37.6z M210.5,39.4
			c0.7,0,1.4,0.6,1.4,1.3s-0.6,1.3-1.4,1.3c-0.7,0-1.4-0.6-1.4-1.3S209.8,39.4,210.5,39.4z M205.4,39.4c0.7,0,1.4,0.6,1.4,1.3
			s-0.6,1.3-1.4,1.3c-0.7,0-1.4-0.6-1.4-1.3S204.6,39.4,205.4,39.4z M213.6,35.1c0.7,0,1.4,0.6,1.4,1.3c0,0.7-0.6,1.3-1.4,1.3
			c-0.7,0-1.4-0.6-1.4-1.3C212.2,35.7,212.8,35.1,213.6,35.1z M208,35.1c0.7,0,1.4,0.6,1.4,1.3c0,0.7-0.6,1.3-1.4,1.3
			c-0.7,0-1.4-0.6-1.4-1.3C206.7,35.7,207.3,35.1,208,35.1z M202.6,35.1c0.7,0,1.4,0.6,1.4,1.3c0,0.7-0.6,1.3-1.4,1.3
			c-0.7,0-1.4-0.6-1.4-1.3C201.2,35.7,201.8,35.1,202.6,35.1z M193.3,22.5c1.2,0,2.2,1.7,2.2,3.8s-1,3.8-2.2,3.8
			c-1.2,0-2.2-1.7-2.2-3.8S192.1,22.5,193.3,22.5z M185.1,22.7c1.2,0,2.2,1.7,2.2,3.8s-1,3.8-2.2,3.8c-1.2,0-2.2-1.7-2.2-3.8
			S183.9,22.7,185.1,22.7z M211.4,48.9c0.1,0.1,0.3,0.3,0.4,0.4c1.2,1.2,2.4,2.6,3.1,3.8c0.1,0.2,0.7,0.3,1.3,0.1
			c0.4-0.1,0.7-0.2,1.1-0.5c0.3-0.2,0.6-0.5,0.7-0.8c0.4-0.7,0.3-1.8-0.7-3.3C215.4,48.9,213.5,49,211.4,48.9L211.4,48.9z"/>
		<path class="logo_light" d="M147.7,37.7c0-0.6,0.5-1.2,1.2-1.2c0.7,0,1.2,0.5,1.2,1.2c0,0,0,3.2,1.7,2.9c1.8-0.2,1.4-3.1,1.4-3.1
			c-0.1-0.6,0.4-1.2,1-1.3c0.5-0.1,1.1,0.2,1.3,0.7c0,0,1.1,2.7,3.2,2.6c1.7-0.1,1.1-3.2,1.1-3.2c-0.1-0.6,0.3-1.2,1-1.3
			c0.6-0.1,1.3,0.3,1.4,0.9c0,0,1.1,5.6-3.3,5.9c-1.5,0.1-2.7-0.5-3.6-1.3c-0.4,1.1-1.3,2.1-3.1,2.4
			C147.7,43.5,147.7,37.7,147.7,37.7z"/>
		<path class="logo_light" d="M159.5,26.5c0.9-0.1,1.8,0.9,2,2.3c0.1,1.4-0.5,2.6-1.4,2.7c-0.9,0.1-1.8-0.9-2-2.3
			C157.9,27.8,158.6,26.6,159.5,26.5z"/>
	</g>
</g>
</svg>
