<svg xmlns="http://www.w3.org/2000/svg" x="0px" y="0px" viewBox="0 0 300 300" style="enable-background:new 0 0 300 300;" xml:space="preserve"><path d="M300,150c0,8.8-36.1,14-37.7,22.4c-1.7,8.6,29.6,27.2,26.3,35.1c-3.3,8-38.6-1-43.4,6.2c-4.8,7.2,17,36.4,10.9,42.5 c-6.1,6.1-35.3-15.7-42.5-10.9c-7.2,4.8,1.9,40.1-6.2,43.4c-7.9,3.3-26.5-28-35.1-26.3C164,263.9,158.8,300,150,300 c-8.8,0-14-36.1-22.4-37.7c-8.6-1.7-27.2,29.6-35.1,26.3c-8-3.3,1-38.6-6.2-43.4c-7.2-4.8-36.4,17-42.5,10.9 c-6.1-6.1,15.7-35.3,10.9-42.5c-4.8-7.2-40.1,1.9-43.4-6.2c-3.3-7.9,28-26.5,26.3-35.1C36.1,164,0,158.8,0,150 c0-8.8,36.1-14,37.7-22.4c1.7-8.6-29.6-27.2-26.3-35.1c3.3-8,38.6,1,43.4-6.2c4.8-7.2-17-36.4-10.9-42.5 c6.1-6.1,35.3,15.7,42.5,10.9c7.2-4.8-1.9-40.1,6.2-43.4c7.9-3.3,26.5,28,35.1,26.3C136,36.1,141.2,0,150,0c8.8,0,14,36.1,22.4,37.7 c8.6,1.7,27.2-29.6,35.1-26.3c8,3.3-1,38.6,6.2,43.4c7.2,4.8,36.4-17,42.5-10.9c6.1,6.1-15.7,35.3-10.9,42.5 c4.8,7.2,40.1-1.9,43.4,6.2c3.3,7.9-28,26.5-26.3,35.1C263.9,136,300,141.2,300,150L300,150z"></path></svg>